<svg version="1.1" viewBox="0 0 512 128" xmlns="http://www.w3.org/2000/svg">
  <g transform="matrix(1.0775 0 0 1.0775 -19.841 -211.84)" stroke-width="2.6373">
    <path d="m462.27 286.78h-11.075q-8.9628-9.0658-13.341-21.531-4.3269-12.517-4.3269-24.776h11.384q0 9.2203 2.8846 18.647 2.8846 9.4264 8.8082 16.792 5.8722-7.366 8.7567-16.792 2.8846-9.4264 2.8846-18.647h11.641q0 12.259-4.3269 24.776-4.3269 12.465-13.29 21.531z" fill="currentColor" class="mix-blend-darken" />
    <path d="m429.51 287.03h-46.102v-34.821q0-4.7389 3.3997-8.2416 3.3997-3.5027 8.2416-3.5027h34.718v11.744l-18.183 21.48h-14.886l18.183-21.48h-20.089v23.128h23.025q4.6874 0 8.1901 3.3997t3.5027 8.2932z" fill="currentColor" class="mix-blend-darken" />
    <path d="m328.14 287.03h-8.3962q-0.41208-15.505-0.51511-30.855-0.0515-15.402-0.0515-30.906h46.102q4.6874 0 8.1901 3.3997 3.5027 3.3997 3.5027 8.2932h-46.102v38.375q34.718-1.6483 34.718-37.036h11.641q0 15.814-5.8207 26.682-5.8207 10.869-16.844 16.483-10.972 5.5631-26.425 5.5631z" fill="#0adb72" />
    <g>
      <path d="m316.14 287.03h-34.718q-4.6874 0-8.1901-3.3997-3.4512-3.3997-3.4512-8.2932v-38.684q0-4.6874 3.3482-8.1901 3.3997-3.5027 8.2932-3.5027v46.565q0 1.6483 1.0302 2.73 1.0817 1.0817 2.4725 1.0817h16.02l-2.9876-12.002h11.95z" fill="currentColor" class="mix-blend-darken" />
      <path d="m263.6 287.03h-34.718q-4.842 0-8.2416-3.5027-3.3997-3.5027-3.3997-8.1901v-5.7176q0-4.8935 3.3482-8.2932 3.3482-3.3997 8.0356-3.3997h23.077v-5.7176h-17.668q-6.0782 0-12.259 3.1936-6.1297 3.1421-11.178 8.2932-5.048 5.151-8.1386 11.281-3.0906 6.1297-3.0906 12.053h-11.693v-34.821q0-4.945 3.5027-8.3447t8.1901-3.3997v18.235q4.4814-5.3571 10.096-9.4264 5.6661-4.1208 12.002-6.4388 6.3358-2.3695 12.878-2.3695h17.617q4.842 0 8.2416 3.5027 3.3997 3.5027 3.3997 8.2416zm-11.899-11.693v-5.7176h-20.089q-1.4423 0-2.1634 0.92718-0.66964 0.87568-0.66964 1.9059 0 1.0817 0.66964 2.0089 0.72114 0.87567 2.1634 0.87567z" fill="currentColor" class="mix-blend-darken" />
      <path d="m176.34 251.9h-20.347v-11.693h8.7052q4.8935 0 8.2416 3.5027 3.3997 3.5027 3.3997 8.1901z" fill="currentColor" class="mix-blend-darken" />
      <path d="m131.06 287.03h-23.025q-4.6874 0-8.1901-3.3997-3.5027-3.3997-3.5027-8.2932h31.73q1.4423 0 2.1634-1.0302 0.72115-1.0302 0.72115-2.2664 0-1.1847-0.72115-2.2149-0.72114-1.0302-2.1634-1.0302h-31.73v-16.586q0-4.7389 3.3997-8.2416 3.3997-3.5027 8.2932-3.5027h34.975q0-4.6874 3.3997-8.1901 3.3997-3.5027 8.2416-3.5027v21.222q0 8.9628 3.1421 14.526 3.1936 5.5116 9.1688 8.0356 6.0267 2.524 14.526 2.524v11.693q-17.256 0-27.506-8.7052-10.199-8.7567-10.972-26.167h-34.718v4.8935l23.025 0.30907q4.6874 0 8.0356 3.3997 3.3482 3.3997 3.3482 8.2932v6.5418q0 4.6874-3.3997 8.1901-3.3482 3.5027-8.2416 3.5027z" fill="currentColor" class="mix-blend-darken" />
    </g>
    <path d="m90.163 287.03q-4.8935 0-8.2932-3.5027-3.3997-3.5027-3.3997-8.1901v-16.329q-16.483 0.41209-26.013 7.0569-4.1208 2.8846-6.4388 7.1599-2.2665 4.2754-2.2665 9.993v3.8118h-11.641v-50.892q4.8935 0 8.2416 3.5027 3.3997 3.5027 3.3997 8.1901v10.354q0.46359-0.36057 0.9787-0.66963t0.92718-0.66964q12.569-8.9113 32.812-9.2718v-10.611h-34.409q-4.8935 0-8.2932-3.5027-3.3997-3.5027-3.3997-8.1901h45.844q4.8935 0 8.2416 3.5027 3.3997 3.5027 3.3997 8.1901 0 24.879 0.30906 50.068z" fill="#0a66d6" />
  </g>
</svg>