<svg version="1.1" viewBox="0 0 666.66669 666.66669" xmlns="http://www.w3.org/2000/svg">
  <defs>
    <linearGradient id="linearGradient21338" x1="250.8752" x2="358.93066" y1="138.0201" y2="202.19882" gradientTransform="matrix(1.3333333,0,0,-1.3333333,0,666.66667)" gradientUnits="userSpaceOnUse">
      <stop stop-color="#0adb72" offset="0"/>
      <stop stop-color="#0a63d9" stop-opacity=".99546593" offset="1"/>
    </linearGradient>
  </defs>
  <g>
    <g id="background">
      <path d="m588.69532 593.86454c0 19.708-114.32933 35.68533-255.36133 35.68533-141.03333 0-255.362659-15.97733-255.362659-35.68533s114.329329-35.68533 255.362659-35.68533c141.032 0 255.36133 15.97733 255.36133 35.68533m20.03906-315.05719c-64.99199-111.29867-241.26666-71.65867-277.27332-125.79867-18.436-27.72-39.06133-59.851996-68.976-76.561329-28.52-15.929333-61.58667-21.613332-90.416-19.502666-102.942662 7.534667-146.591994 99.641335-126.809328 200.786665 26.389333 134.92399 145.994668 272.74666 288.085328 273.71199 74.31333 0.50267 145.26266-26.06 200.91733-63.61467 0.41733-0.28 0.83333-0.56133 1.24666-0.844 55.59867-37.84666 122.84667-103.20266 73.22533-188.17732" fill="#0a63d9" stroke-width="1.33333"/>
    </g>
    <g id="backdrop">
      <path d="m574.05332 178.03255v240.07999c0 16.34-13.252 29.59334-29.592 29.59334h-422.25466c-16.34133 0-29.593329-13.25334-29.593329-29.59334v-240.07999c0-.70667.02933-1.39733.088-2.088 1.06-15.37067 13.870669-27.52 29.505329-27.52h422.25466c15.63333 0 28.44533 12.14933 29.504 27.52.0587.69067.088 1.38133.088 2.088" fill="#fff" stroke-width="1.33333"/>
      <path d="m533.42839 436.54294h-398.68133c-15.31733 0-27.73466-12.41733-27.73466-27.73333v-221.77466h454.14932v221.77466c0 15.316-12.41733 27.73333-27.73333 27.73333" fill="#1a2e35" stroke-width="1.33333"/>
      <path d="m573.96479 175.94402h-481.262659c1.058667-15.37067 13.869329-27.51867 29.503999-27.51867h422.25466c15.63466 0 28.44533 12.148 29.504 27.51867" fill="#0adb72" stroke-width="1.33333"/>
      <path d="m151.84173 162.18428c0 2.89467-2.34667 5.24267-5.24133 5.24267-2.896 0-5.24267-2.348-5.24267-5.24267 0-2.89466 2.34667-5.24133 5.24267-5.24133 2.89466 0 5.24133 2.34667 5.24133 5.24133" fill="#1a2e35" stroke-width="1.33333"/>
      <path d="m174.00453 162.18428c0 2.89467-2.34667 5.24267-5.24133 5.24267-2.896 0-5.24134-2.348-5.24134-5.24267 0-2.89466 2.34534-5.24133 5.24134-5.24133 2.89466 0 5.24133 2.34667 5.24133 5.24133" fill="#1a2e35" stroke-width="1.33333"/>
      <path d="m196.168 162.18428c0 2.89467-2.34667 5.24267-5.24134 5.24267-2.896 0-5.24266-2.348-5.24266-5.24267 0-2.89466 2.34666-5.24133 5.24266-5.24133 2.89467 0 5.24134 2.34667 5.24134 5.24133" fill="#1a2e35" stroke-width="1.33333"/>
      <path d="m574.05332 178.03255v240.07999c0 16.34-13.252 29.59334-29.592 29.59334h-422.25466c-16.34133 0-29.593329-13.25334-29.593329-29.59334v-240.07999c0-.70667.02933-1.39733.088-2.088 1.06-15.37067 13.870669-27.52 29.505329-27.52h422.25466c15.63333 0 28.44533 12.14933 29.504 27.52.0587.69067.088 1.38133.088 2.088z" fill="none" stroke="#1a2e35" stroke-linecap="round" stroke-linejoin="round" stroke-miterlimit="10" stroke-width="1.47067"/>
      <path d="m561.16932 187.03388v221.78266c0 15.31067-12.288 27.72534-27.42533 27.72534h-399.30533c-15.13733 0-27.42533-12.41467-27.42533-27.72534v-221.78266z" fill="#fff" opacity=".199997" stroke-width="1.33333"/>
      <path d="m573.96479 175.94402h-481.262659c1.058667-15.37067 13.869329-27.51867 29.503999-27.51867h422.25466c15.63466 0 28.44533 12.148 29.504 27.51867z" fill="none" stroke="#1a2e35" stroke-miterlimit="10" stroke-width="1.47067"/>
      <path d="m561.16145 187.04228v221.76933c0 15.31067-12.41466 27.73867-27.74 27.73867h-398.67599c-13.47333 0-24.69466-9.61867-27.196-22.356l-.0147-.0147v-.06c-.33867-1.72-.51467-3.5-.51467-5.308v-221.7693z" fill="none" stroke="#1a2e35" stroke-miterlimit="10" stroke-width="1.47067"/>
      <path d="m546.81639 259.95255c-7.55867 0-13.67867-6.11867-13.67867-13.67867 0-7.544 6.12-13.67867 13.67867-13.67867 7.56 0 13.68 6.13467 13.68 13.67867 0 7.56-6.12 13.67867-13.68 13.67867m13.91466-38.60934c-1.94266-1.08666-4.01466-1.94133-6.164-2.544l-2.48533-11.13333h-10.58933l-2.47067 11.13333c-2.16267.58934-4.236 1.45734-6.17733 2.544l-9.56-6.11733-7.48667 7.48667 6.016 9.56c-1.104 1.956-1.95733 4.02933-2.54533 6.17733l-11.13467 2.47067v10.58933l11.13467 2.48667c.588 2.176 1.44133 4.264 2.54533 6.22133l-6.11867 9.61867 7.48534 7.48666 9.62-6.11866c1.94133 1.10266 4.01466 1.956 6.17733 2.55866l2.472 11.12h10.58933l2.484-11.12c2.14934-.60266 4.22134-1.47066 6.16267-2.55866l.48667.308v-50.448z" fill="#1a2e35" stroke-width="1.33333"/>
      <path d="m288.59893 249.74868c-15.92934 0-28.84267-12.91333-28.84267-28.84267 0-15.92933 12.91333-28.84266 28.84267-28.84266 15.928 0 28.84266 12.91333 28.84266 28.84266 0 15.92934-12.91466 28.84267-28.84266 28.84267m81.33599-17.67867v-22.32666l-23.47466-5.20667c-1.27867-4.53067-3.07334-8.91333-5.368-13.032l2.83866-4.47066h-110.79599l2.736 4.35333c-2.30934 4.104-4.104 8.472-5.35467 13.016l-23.47333 5.22266v22.32534l23.47333 5.23733c1.25067 4.57333 3.04533 8.98667 5.35467 13.11867l-12.9 20.28266 15.796 15.78134 20.268-12.89867c4.11866 2.30933 8.48666 4.11867 13.032 5.39867l5.20666 23.444h22.32667l5.25067-23.444c4.53066-1.28 8.884-3.104 12.988-5.39867l20.28266 12.89867 15.78133-15.78134-12.81066-20.28266c2.27866-4.11734 4.08933-8.472 5.368-13.00134z" fill="#1a2e35" stroke-width="1.33333"/>
      <path d="m332.97066 366.76561c-9.216 2.508-18.71067-2.932-21.21067-12.12933-2.508-9.216 2.93334-18.712 12.12934-21.21067 9.216-2.508 18.71066 2.932 21.21066 12.12933 2.508 9.216-2.932 18.71067-12.12933 21.21067m30.49733-7.84667c.688-2.74 1.044-5.55866 1.07467-8.38666l12.73066-6.69334-3.51866-12.91733-14.36934.672c-1.45333-2.42266-3.192-4.66933-5.16266-6.672l4.25733-13.74666-11.604-6.648-9.708 10.59333c-2.732-.66933-5.536-1.02-8.36-1.06533l-6.72133-12.74134-12.89733 3.50934.68 14.38933c-2.42267 1.45467-4.668 3.19333-6.68534 5.15867l-13.752-4.244-6.656 11.58533 10.64934 9.68266c-.688 2.74-1.03867 5.544-1.05067 8.364l-12.75467 6.716 3.51734 12.91734 14.38933-.68134c1.43467 2.43067 3.16 4.67334 5.144 6.68134l-4.27867 13.676 11.60534 6.648 9.65733-10.50267c2.74133.68933 5.54533 1.03867 8.37867 1.056l6.70266 12.74933 12.89867-3.508-.56667-12.292-.096-2.10533c2.44933-1.444 4.71067-3.17867 6.75067-5.16533l13.74266 4.272 5.67734-9.92667.97066-1.67867z" fill="#1a2e35" stroke-width="1.33333"/>
      <path d="m461.35932 380.84241c-10.42666 7.45733-24.92933 5.05867-32.38666-5.368-7.472-10.41467-5.06-24.916 5.35466-32.37333 10.42667-7.472 24.92934-5.06 32.38667 5.35333 7.47066 10.428 5.06 24.93067-5.35467 32.388m49.728.79467 2.94267-17.724-17.944-7.22134c-.41334-3.78-1.28-7.488-2.57467-11.06l12.91467-14.38533-10.45867-14.62-17.81067 7.56c-2.956-2.368-6.17733-4.368-9.61866-5.972l-1.044-19.32533-17.73867-2.928-7.26533 17.87067c-3.76667.44133-7.45733 1.30933-11.01733 2.58933l-14.428-12.91333-14.60534 10.45733 7.57467 17.796c-2.088 2.61733-3.89867 5.412-5.39867 8.384-.20533.41066-.41066.824-.60266 1.23466l-19.31067 1.07467-2.94267 17.708 2.912 1.176 15.032 6.06c.412 3.75067 1.26534 7.45733 2.57334 11.01733l-12.91334 14.428 10.45867 14.60534 17.81067-7.58934c2.94133 2.39734 6.17733 4.412 9.604 6.01467l1 19.23867 17.724 2.92666 7.25066-17.73733c3.78-.412 7.48667-1.28 11.04667-2.58933l14.39866 12.92933 14.61867-10.472-7.57333-17.812c2.41066-2.956 4.45733-6.208 6.07333-9.66267z" fill="#1a2e35" stroke-width="1.33333"/>
      <path d="m174.80986 357.71481c-8.472-9.41333-22.97333-10.17867-32.388-1.70533-9.41333 8.47066-10.17733 22.97333-1.70533 32.38666 8.472 9.412 22.97333 10.16267 32.38667 1.69067 9.41333-8.47067 10.17866-22.95867 1.70666-32.372m47.036 27.66533.94133-17.708-18.356-5.17733c-.852-3.63333-2.11733-7.17733-3.764-10.53067l11.08934-15.576-11.884-13.19333-16.62 9.39867c-3.17733-1.98533-6.56-3.61867-10.12-4.83867l-3.17733-18.82666-17.708-.94134-5.11867 18.41467c-3.648.80933-7.17733 2.07333-10.53067 3.736l-15.56133-11.08933-13.208 11.884 9.41333 16.63466c-2.02933 3.16267-3.648 6.54533-4.85333 10.104l-5.368.88267v23.988l3.89733 1.104c.824 3.66133 2.088 7.20666 3.76534 10.56l-7.66267 10.72266.51467 9.192v.06l.0147.0133 7.89867 8.76666 16.64933-9.39866c3.176 2.044 6.58934 3.69066 10.148 4.89866l3.03067 18.07467v.016l.14667.74933 17.708.94267.47066-1.692v-.016l4.648-16.708c3.67734-.82267 7.20667-2.07333 10.58934-3.736l15.532 11.076 13.20799-11.86933-9.38399-16.65067c2.00133-3.16133 3.61866-6.544 4.79466-10.08933z" fill="#1a2e35" stroke-width="1.33333"/>
    </g>
    <g id="bottom-obj">
      <path d="m104.252 286.90561h-7.225336c-16.150666 0-29.242666 13.092-29.242666 29.24267v160.45599c0 16.14934 13.092 29.24267 29.242666 29.24267h99.146666c16.15066 0 29.24266-13.09333 29.24266-29.24267" fill="none" stroke="#1a2e35" stroke-dasharray="4.412" stroke-linecap="round" stroke-linejoin="round" stroke-miterlimit="10" stroke-width="1.47067"/>
      <path d="m270.76826 478.37894h-139.436c-9.65466 0-17.48-7.82533-17.48-17.47866v-193.06c0-9.65467 7.82534-17.48 17.48-17.48h139.436c9.65333 0 17.48 7.82533 17.48 17.48v193.06c0 9.65333-7.82667 17.47866-17.48 17.47866" fill="#0adb72" stroke-width="1.33333"/>
      <path d="m270.76826 478.37894h-139.436c-9.65466 0-17.48-7.82533-17.48-17.47866v-193.06c0-9.65467 7.82534-17.48 17.48-17.48h139.436c9.65333 0 17.48 7.82533 17.48 17.48v193.06c0 9.65333-7.82667 17.47866-17.48 17.47866" opacity=".199997" stroke-width="1.33333"/>
      <path d="m270.76826 478.37894h-139.436c-9.65466 0-17.48-7.82533-17.48-17.47866v-193.06c0-9.65467 7.82534-17.48 17.48-17.48h139.436c9.65333 0 17.48 7.82533 17.48 17.48v193.06c0 9.65333-7.82667 17.47866-17.48 17.47866z" fill="none" stroke="#1a2e35" stroke-miterlimit="10" stroke-width="1.47067"/>
      <path d="m304.48239 285.06255v193.05866c0 9.66266-7.82533 17.48666-17.488 17.48666h-139.43199c-9.64934 0-17.47334-7.824-17.47334-17.48666v-193.05866c0-9.648 7.824-17.47334 17.47334-17.47334h139.43199c9.66267 0 17.488 7.82534 17.488 17.47334" fill="#fff" stroke-width="1.33333"/>
      <path d="m304.48239 285.06255v193.05866c0 9.66266-7.82533 17.48666-17.488 17.48666h-139.43199c-9.64934 0-17.47334-7.824-17.47334-17.48666v-193.05866c0-9.648 7.824-17.47334 17.47334-17.47334h139.43199c9.66267 0 17.488 7.82534 17.488 17.47334z" fill="none" stroke="#1a2e35" stroke-linecap="round" stroke-linejoin="round" stroke-miterlimit="10" stroke-width="1.47067"/>
      <path d="m304.48239 285.06255v10.33866h-174.39333v-10.33866c0-9.648 7.824-17.47334 17.47334-17.47334h139.43199c9.66267 0 17.488 7.82534 17.488 17.47334" fill="#0a63d9" stroke-width="1.33333"/>
      <path d="m304.48239 285.06255v10.33866h-174.39333v-10.33866c0-9.648 7.824-17.47334 17.47334-17.47334h139.43199c9.66267 0 17.488 7.82534 17.488 17.47334z" fill="none" stroke="#1a2e35" stroke-miterlimit="10" stroke-width="1.47067"/>
      <path d="m189.39333 314.57468h-42.904v-7.196h42.904z" fill="#0a63d9" stroke-width="1.33333"/>
      <path d="m189.39333 379.09201h-42.904v-7.196h42.904z" fill="#0a63d9" stroke-width="1.33333"/>
      <path d="m189.39333 437.59868h-42.904v-7.196h42.904z" fill="#0a63d9" stroke-width="1.33333"/>
      <path d="m268.34399 330.47335h-121.85599v-5.27867h121.85599z" fill="#1a2e35" stroke-width="1.33333"/>
      <path d="m246.37199 340.44134h-99.88399v-5.14266h99.88399z" fill="#1a2e35" stroke-width="1.33333"/>
      <path d="m259.45199 350.37201h-112.96399v-5.14267h112.96399z" fill="#1a2e35" stroke-width="1.33333"/>
      <path d="m259.45199 360.29468h-112.96399v-5.14267h112.96399z" fill="#1a2e35" stroke-width="1.33333"/>
      <path d="m268.34399 388.97868h-121.85599v-5.27734h121.85599z" fill="#1a2e35" stroke-width="1.33333"/>
      <path d="m246.37199 398.94801h-99.88399v-5.14267h99.88399z" fill="#1a2e35" stroke-width="1.33333"/>
      <path d="m259.45199 408.87868h-112.96399v-5.14267h112.96399z" fill="#1a2e35" stroke-width="1.33333"/>
      <path d="m268.34399 453.22801h-121.85599v-5.27867h121.85599z" fill="#1a2e35" stroke-width="1.33333"/>
      <path d="m246.37199 463.19468h-99.88399v-5.14267h99.88399z" fill="#1a2e35" stroke-width="1.33333"/>
      <path d="m259.45199 473.12801h-112.96399v-5.144h112.96399z" fill="#1a2e35" stroke-width="1.33333"/>
    </g>
    <g id="top-obj">
      <path d="m217.28586 135.50522v-31.69467c0-9.890666 8.01867-17.909332 17.90933-17.909332h128.93467c9.89066 0 17.90933 8.018666 17.90933 17.909332" fill="none" stroke="#1a2e35" stroke-dasharray="4.412" stroke-linecap="round" stroke-linejoin="round" stroke-miterlimit="10" stroke-width="1.47067"/>
      <path d="m501.01945 133.72522v78.02666c0 11.516-9.324 20.84133-20.84133 20.84133h-179.71733c-11.50133 0-20.84133-9.32533-20.84133-20.84133v-78.02666c0-11.516 9.34-20.856 20.84133-20.856h179.71733c11.51733 0 20.84133 9.34 20.84133 20.856" fill="#fff" stroke-width="1.33333"/>
      <path d="m501.01945 133.72522v78.02666c0 11.516-9.324 20.84133-20.84133 20.84133h-179.71733c-11.50133 0-20.84133-9.32533-20.84133-20.84133v-78.02666c0-11.516 9.34-20.856 20.84133-20.856h179.71733c11.51733 0 20.84133 9.34 20.84133 20.856z" fill="none" stroke="#1c1c1b" stroke-miterlimit="10" stroke-width="1.47067"/>
      <path d="m501.01945 133.72522v1.78h-221.39999v-1.78c0-11.516 9.34-20.856 20.84133-20.856h179.71733c11.51733 0 20.84133 9.34 20.84133 20.856" fill="#0a63d9" stroke-width="1.33333"/>
      <path d="m501.01945 133.72522v1.78h-221.39999v-1.78c0-11.516 9.34-20.856 20.84133-20.856h179.71733c11.51733 0 20.84133 9.34 20.84133 20.856z" fill="none" stroke="#1a2e35" stroke-miterlimit="10" stroke-width="1.47067"/>
      <path d="m312.14519 127.91535c-1.24666 1.24667-3.268 1.24667-4.51466 0-1.24667-1.24667-1.24667-3.268 0-4.51467 1.24666-1.24666 3.268-1.24666 4.51466 0 1.24667 1.24667 1.24667 3.268 0 4.51467" fill="#1a2e35" stroke-width="1.33333"/>
      <path d="m326.97133 127.91535c-1.24667 1.24667-3.268 1.24667-4.51467 0s-1.24667-3.268 0-4.51467c1.24667-1.24666 3.268-1.24666 4.51467 0 1.24666 1.24667 1.24666 3.268 0 4.51467" fill="#1a2e35" stroke-width="1.33333"/>
      <path d="m341.79812 127.91535c-1.24666 1.24667-3.268 1.24667-4.51466 0-1.24534-1.24667-1.24534-3.268 0-4.51467 1.24666-1.24666 3.268-1.24666 4.51466 0 1.248 1.24667 1.248 3.268 0 4.51467" fill="#1a2e35" stroke-width="1.33333"/>
      <path d="m366.10799 212.41068h-72.37066v-62.55733h72.37066z" fill="none" stroke="#1a2e35" stroke-dasharray="4.412" stroke-linecap="round" stroke-linejoin="round" stroke-miterlimit="10" stroke-width="1.47067"/>
      <path d="m460.56399 154.24668h-83.29067v-4.39333h83.29067z" fill="#1a2e35" stroke-width="1.33333"/>
      <path d="m441.16266 163.35735h-63.88934v-4.39333h63.88934z" fill="#1a2e35" stroke-width="1.33333"/>
      <path d="m472.41199 172.46802h-95.13867v-4.44534h95.13867z" fill="#1a2e35" stroke-width="1.33333"/>
      <path d="m458.28532 181.31868h-81.012v-4.44533h81.012z" fill="#1a2e35" stroke-width="1.33333"/>
    </g>
    <g id="person">
      <path d="m395.81772 587.28774s-38.668 11.08933-44.06533 13.00133c-4.912 1.736-18.22267 6.39867-28.21066 4.95733-.98534-.148-1.94134-.35333-2.85334-.61866-10.11866-3.01467-14.664-5.824-15.98666-12.19333-1.33867-6.38267 3.70533-11.04534 8.56-14.04667 4.85333-3 31.18133-6.132 31.18133-6.132l6.35333 1.868h.0147z" fill="#0adb72" stroke-width="1.33333"/>
      <path d="m323.54226 605.24614c-.98533-.14667-1.94133-.35334-2.85333-.61867-10.11867-3.01467-14.664-5.824-15.988-12.192-1.33867-6.384 3.70666-11.04666 8.56-14.048 4.85333-3 31.18133-6.132 31.18133-6.132l6.35466 1.868c-5.752 2.648-27.19599 4.11867-31.87333 6.81067-4.67733 2.69067-6.94133 7.76533-4.17733 14.61867 1.47067 3.648 5.41333 7.17733 8.796 9.69333" fill="#fff" stroke-width="1.33333"/>
      <path d="m389.99999 588.86334s-29.04 7.52533-40.55467 12.34133c-11.51466 4.81467-33.48533 6.92133-41.31066-3.01066-7.82533-9.932-.90267-18.476 6.92267-20.37334 7.82533-1.89866 23.64933-4.908 32.29066-3.70533" fill="none" stroke="#1a2e35" stroke-linecap="round" stroke-linejoin="round" stroke-miterlimit="10" stroke-width="1.47067"/>
      <path d="m324.12493 604.71747s-14.776-8.10133-9.86934-19.45733c3.62-8.38 23.332-6.564 33.092-11.144" fill="none" stroke="#1a2e35" stroke-linecap="round" stroke-linejoin="round" stroke-miterlimit="10" stroke-width="1.47067"/>
      <path d="m513.58465 607.0404c-.396 3.956-1.79466 7.75067-5.79466 10.104-2.66267 1.57467-6.456 2.51467-11.884 2.456-13.56134-.176-39.04933-9.868-39.04933-9.868l-23.87067-13.19333 12.412-19.65066 3.39867-5.38267 8.78 1.97067s7.26533 4.11866 14.57599 7.39733c7.30934 3.28133 25.048 3.972 31.29867 9.03067 6.25067 5.04666 10.81067 10.54666 10.13333 17.13599" fill="#0adb72" stroke-width="1.33333"/>
      <path d="m513.58465 607.0404c-.396 3.956-1.79466 7.75067-5.79466 10.104.75066-3.07466 1.368-7.324-.67734-11.91333-2.64666-5.98666-11.33866-11.26666-22.752-12.14933-11.4-.88267-20.15066-6.22133-24.72533-8.604-3.57333-1.85333-11.104-5.89867-14.23733-7.58933l3.39867-5.38267 8.78 1.97067s7.26533 4.11866 14.57599 7.39733c7.30934 3.28133 25.048 3.972 31.29867 9.03067 6.25067 5.04666 10.81067 10.54666 10.13333 17.13599" fill="#fff" stroke-width="1.33333"/>
      <path d="m438.27479 600.23694c16.99333 9.736 36.428 16.74533 55.872 19.08533 4.34133.524 9.39466.59733 12.304-2.668 1.62133-1.81867 2.21333-4.39067 2.00533-6.82-.528-6.12667-5.67867-10.98666-11.32933-13.41466-5.652-2.42934-11.892-3.00934-17.89334-4.35467-5.976-1.34-11.776-3.46267-17.20666-6.29467-4.31333-2.25066-8.49067-4.98533-13.25067-5.99333-4.76133-1.008-10.432.21467-12.972 4.36667" fill="none" stroke="#1a2e35" stroke-linecap="round" stroke-linejoin="round" stroke-miterlimit="10" stroke-width="1.47067"/>
      <path d="m504.85812 618.31907c4.39333-2.25467 8-6.396 8.732-11.28.86533-5.776-2.42533-11.58133-7.06-15.136-4.636-3.55333-10.42533-5.22133-16.144-6.40933-5.72-1.18933-11.56667-1.98667-17.008-4.11333-8.36533-3.26667-16.61333-9.72267-25.29333-7.42" fill="none" stroke="#1a2e35" stroke-linecap="round" stroke-linejoin="round" stroke-miterlimit="10" stroke-width="1.47067"/>
      <path d="m457.63546 488.34641c-1.39734.72 4.016-14.28267 1.44133-17.68-2.57467-3.412-10.28-3.07334-10.28-3.07334l.66133-4.10399c.0893-.456 4.57467-23.45867 4.57467-23.45867l1.51467-1.80933s15.70799 26.93066 18.51733 36.41733c0 0-17.12133 13.708-16.42933 13.708m-101.544-19.82667c-2.972 2.10267-1.38267 10.26533-1.38267 10.26533l-5.06-4.456 12.69333-31.21066 5.41334 23.96s-8.69334-.648-11.664 1.44133m109.12-74.83466-40.38934-15.36934-.5-.192s.14667-1.07466.26534-2.63333c.24933-3.22133.38133-8.47067-1.13334-10.25067-2.24933-2.63333-8.63333-.42666-14.85466-3.28-6.22134-2.85466-17.73867 2.24934-17.73867 2.24934s-8.30933-1.52934-11.972 4.472c-1.868 4.83866-1.22133 12.04533-1.22133 12.04533s-.264.10267-.764.28c-4.80934 1.79467-30.99067 11.648-36.53467 15.60533-6.12 4.33867-12.88533 48.83067-15.06133 61.89067-2.17733 13.076-6.04533 24.84266-4.07467 29.34266 1.95734 4.48667 30.09333 26.152 46.272 31.74134 16.17867 5.604 73.584 3.956 73.584 3.956s.94133-.25067 2.604-.78c9.70667-3.11734 44.15333-15.95734 62.42-46.24134 0 0-17.69334-58.03733-40.90133-82.83599" fill="url(#linearGradient21338)" stroke-width="1.33333"/>
      <path d="m388.95306 296.33855-20.844 22.132s-2.87467 2.54-1.73334 8.96c1.144 6.42133 3.804 11.93599 5.81334 12.36399 2.01066.428 4.82666.432 4.82666.432s4.46667 9.68134 7.632 13.48534c0 0 1.10267 14.94133.51334 19.09066 0 0 7.48933 6.54267 14.54266 7.37334 7.05467.832 17.95334-9.976 17.95334-9.976l2.70266-13.23067s6.39467-9.708 6.83067-12.29067c.436-2.58533 3.35867-1.92266 4.79467-3.19733 1.43733-1.27333 4.76266-6.976 5.312-12.36266.548-5.38667.58666-11.57467-5.67067-9.75734-5.42267-1.45733-2.028-12.92-2.028-12.92l-9.528-8.40666z" fill="#fff" stroke-width="1.33333"/>
      <path d="m424.82159 378.31508c-.32267.85333-.676 1.66133-1.07333 2.412-3.44134 6.48666-18.42934 18.84-18.42934 18.84l-4.52933-13.928-2.48667 13.928c-5.00133-2.176-20.252-15.39867-20.252-15.39867s-.516-1.23467-1.14666-3.16133c.5-.17734.764-.28.764-.28s-.648-7.208 1.22133-12.04667c3.66133-6.00133 11.97067-4.47067 11.97067-4.47067s11.51733-5.104 17.73866-2.25066c6.22134 2.85333 12.60534.648 14.856 3.28 2.24934 2.63333.86667 12.884.86667 12.884z" fill="#fff" opacity=".5" stroke-width="1.33333"/>
      <path d="m457.63546 488.34641c-1.39734.72 4.016-14.28267 1.44133-17.68-2.57467-3.412-10.28-3.07334-10.28-3.07334l.66133-4.10399c.0893-.456 4.57467-23.45867 4.57467-23.45867l1.51467-1.80933s15.70799 26.93066 18.51733 36.41733c0 0-17.12133 13.708-16.42933 13.708m7.576-94.66133-40.38934-15.36934-.5-.192s.14667-1.07466.26534-2.63333l-.83867 5.236-5.972 8.11867s10.1 3.644 18.636 8.21466c5.93467 3.17734 9.34533 9.64 8.56267 16.32667l-7.44534 63.66266-3.044 36.15334 9.20667 9.56c9.70667-3.11734 44.15333-15.95734 62.42-46.24134 0 0-17.69334-58.03733-40.90133-82.83599" opacity=".199997" stroke-width="1.33333"/>
      <path d="m354.70826 478.78521-5.06-4.456 12.69466-31.21067 5.412 23.96s-8.692-.648-11.664 1.44133c-2.97066 2.10267-1.38266 10.26534-1.38266 10.26534m15.78266-8.11867-6.28133-20.988s-11.25867-38.40533-18.98133-47.87733l2.02933 27.00933s-6.62533 32.26667-12.75733 41.856c-6.13333 9.576-7.45733 11.97333 0 11.97333 7.47066 0 25.592 14.45734 25.592 14.45734l-1.39867-12.06134z" opacity=".199997" stroke-width="1.33333"/>
      <path d="m384.64719 353.71228s1.15867 11.316 0 16.48666" fill="none" stroke="#1a2e35" stroke-linecap="round" stroke-linejoin="round" stroke-miterlimit="10" stroke-width="1.47067"/>
      <path d="m418.81119 368.68361s-.0667-5.51467 1.25867-10.812" fill="none" stroke="#1a2e35" stroke-linecap="round" stroke-linejoin="round" stroke-miterlimit="10" stroke-width="1.47067"/>
      <path d="m421.84239 304.77668s6.848 8.60267 6.496 15.09867c-.35067 6.496-.87733 14.22133-.70133 21.77066s-12.11467 23.35067-18.43467 24.75467c-6.32133 1.404-11.764 1.756-15.80133-2.28267-4.03734-4.03733-8.07734-9.656-13.344-16.85333-5.26667-7.2-4.03734-23-4.03734-23" fill="none" stroke="#1a2e35" stroke-linecap="round" stroke-linejoin="round" stroke-miterlimit="10" stroke-width="1.47067"/>
      <path d="m405.36199 330.28521c-.41867 2.36-.59733 4.76-.53333 7.156.0533 2.00533.35066 4.17333 1.756 5.60533.756.77067 1.856 1.38934 2 2.46.128.95067-.59867 1.81334-1.408 2.33067-.80667.51733-1.744.83733-2.46667 1.46667" fill="none" stroke="#1a2e35" stroke-linecap="round" stroke-linejoin="round" stroke-miterlimit="10" stroke-width="1.47067"/>
      <path d="m394.48826 350.13801s.792 5.10267 7.636 6.17067" fill="none" stroke="#1a2e35" stroke-linecap="round" stroke-linejoin="round" stroke-miterlimit="10" stroke-width="1.47067"/>
      <path d="m395.20052 334.17641c0 1.47467-.63866 2.66933-1.424 2.66933-.78666 0-1.424-1.19466-1.424-2.66933 0-1.47466.63734-2.67066 1.424-2.67066.78534 0 1.424 1.196 1.424 2.67066" fill="#1a2e35" stroke-width="1.33333"/>
      <path d="m415.61332 334.81774c0 1.47467-.63866 2.67067-1.424 2.67067-.78666 0-1.42533-1.196-1.42533-2.67067 0-1.47466.63867-2.66933 1.42533-2.66933.78534 0 1.424 1.19467 1.424 2.66933" fill="#1a2e35" stroke-width="1.33333"/>
      <path d="m411.49479 328.35281s6.63733-6.63733 12.252.76667" fill="none" stroke="#1a2e35" stroke-linecap="round" stroke-linejoin="round" stroke-miterlimit="10" stroke-width="2.94133"/>
      <path d="m397.45439 328.48055s-4.21067-4.72267-10.84933 0" fill="none" stroke="#1a2e35" stroke-linecap="round" stroke-linejoin="round" stroke-miterlimit="10" stroke-width="2.94133"/>
      <path d="m385.16146 359.93094s4.06533 11.20534 13.144 14.38267c9.08 3.17867 21.13466-13.31467 21.13466-13.31467l-.63066-2.14533s-7.89867 10.264-16.68534 8.51333c-8.788-1.74933-17.47733-13.65466-17.47733-13.65466z" fill="#1a2e35" stroke-width="1.33333"/>
      <path d="m377.01559 339.79428s-5.412 1.912-6.85067-2.30534c-1.44-4.21866-6.37333-15.31866-2.056-19.01866 4.31734-3.7 7.78667 4.88533 7.78667 4.88533" fill="none" stroke="#1a2e35" stroke-linecap="round" stroke-linejoin="round" stroke-miterlimit="10" stroke-width="1.47067"/>
      <path d="m427.62626 342.09374s5.02933 1.012 6.47066-3.20533c1.43867-4.21733 6.372-15.31866 2.05467-19.01866s-7.78533 4.88533-7.78533 4.88533" fill="none" stroke="#1a2e35" stroke-linecap="round" stroke-linejoin="round" stroke-miterlimit="10" stroke-width="1.47067"/>
      <path d="m375.89586 334.17641c1.49866-.068 3.95866-1.52933 4.74933-2.80533.788-1.27733 1.12267-2.77733 1.38-4.256.49067-2.832.74133-5.70533.752-8.57867.004-1.124-.0253-2.26933.30133-3.344.34267-1.11866 1.05067-2.08666 1.80934-2.976 1.88933-2.21333 4.16266-4.084 5.96-6.37333 1.796-2.28933 3.11466-5.18933 2.63066-8.05733 0 0 12.27334 11.21866 29.964 7.74933 9.52534-1.868 18.66667-10.22667 17.55334-20.732-.396-3.73867-3.14267-6.42667-6.71067-7.31467-4.708-1.17066-8.93867 1.34-13.204 2.948-7.77733 2.93334-15.38667-2.10266-23.244-2.948-6.72-.72266-14.968.11067-18.46667 6.792 0 0-12.06933 1.41734-17.356 11.33067-5.288 9.91333 4.76267 23.63733 4.76267 23.63733s4.044-4.89733 9.24267 5.016z" fill="#1a2e35" stroke-width="1.33333"/>
      <path d="m422.60279 302.24161s-3.12133 16.264 5.024 24.14c0 0 1.78133-4.88933 3.58933-6.08266 0 0 4.532-8.59334-1.42666-18.05734-5.95867-9.46533-7.18667 0-7.18667 0" fill="#1a2e35" stroke-width="1.33333"/>
      <path d="m437.52212 283.73175c-1.204 4.48266-4.99466 7.95066-9.29333 9.70133-11.30667 4.60533-22.28933-.50267-33.60933-1.50267-9.252-.81733-19.45067 7.51867-20.096 17.016" fill="none" opacity=".199997" stroke="#fff" stroke-linecap="round" stroke-linejoin="round" stroke-miterlimit="10" stroke-width="1.47067"/>
      <path d="m367.50132 306.44148c.17067-7.47733 5.11067-14.63333 12.04267-17.44267" fill="none" opacity=".199997" stroke="#fff" stroke-linecap="round" stroke-linejoin="round" stroke-miterlimit="10" stroke-width="1.47067"/>
      <path d="m382.03906 368.68361s7.44933 8.208 17.608 12.04533c0 0 13.53333-3.924 20.42266-13.36133" fill="none" stroke="#1a2e35" stroke-linecap="round" stroke-linejoin="round" stroke-miterlimit="10" stroke-width="1.47067"/>
      <path d="m402.83986 334.17641c0 6.61467-5.36134 11.97733-11.976 11.97733-6.616 0-11.97867-5.36266-11.97867-11.97733 0-6.61466 5.36267-11.97733 11.97867-11.97733 6.61466 0 11.976 5.36267 11.976 11.97733z" fill="none" stroke="#1a2e35" stroke-linecap="round" stroke-linejoin="round" stroke-miterlimit="10" stroke-width="1.47067"/>
      <path d="m429.59892 334.17641c0 6.61467-5.36266 11.97733-11.97733 11.97733s-11.97733-5.36266-11.97733-11.97733c0-6.61466 5.36266-11.97733 11.97733-11.97733s11.97733 5.36267 11.97733 11.97733z" fill="none" stroke="#1a2e35" stroke-linecap="round" stroke-linejoin="round" stroke-miterlimit="10" stroke-width="1.47067"/>
      <path d="m384.64719 364.21614s-3.64133.73734-5.76133 4.468c-2.12 3.72934-.84134 15.47867-.84134 15.47867s10.94267 10.82933 20.26134 15.39867l2.74933-15.45867 4.26667 15.45867s14.43066-10.20667 18.42533-18.832c0 0 1.304-10.05867 0-13.36267-1.30133-3.30267-4.30667-3.15067-4.30667-3.15067" fill="none" stroke="#1a2e35" stroke-linecap="round" stroke-linejoin="round" stroke-miterlimit="10" stroke-width="1.47067"/>
      <path d="m367.50132 467.59641s-4.272-28.66-9.96666-40.35333" fill="none" stroke="#1a2e35" stroke-linecap="round" stroke-linejoin="round" stroke-miterlimit="10" stroke-width="1.47067"/>
      <path d="m345.22786 401.80081s5.408 7.58 8.85333 14.81467" fill="none" stroke="#1a2e35" stroke-linecap="round" stroke-linejoin="round" stroke-miterlimit="10" stroke-width="1.47067"/>
      <path d="m457.63666 423.19788c1.50533-5.70934 3.10533-10.71867 4.704-13.98934" fill="none" stroke="#1a2e35" stroke-linecap="round" stroke-linejoin="round" stroke-miterlimit="10" stroke-width="1.47067"/>
      <path d="m448.79426 467.59641s3.08533-19.64667 6.75866-35.84133" fill="none" stroke="#1a2e35" stroke-linecap="round" stroke-linejoin="round" stroke-miterlimit="10" stroke-width="1.47067"/>
      <path d="m454.02732 440.02348c2.94-3.92267 7.2-6.83734 11.92267-8.152" fill="none" stroke="#1a2e35" stroke-linecap="round" stroke-linejoin="round" stroke-miterlimit="10" stroke-width="1.47067"/>
      <path d="m424.32679 378.12241s24.852 9.92667 40.89067 15.56533c0 0 19.73333 18.55734 40.88933 82.83467 0 0-19.39334 32.61333-56.26667 43.06933" fill="none" stroke="#1a2e35" stroke-linecap="round" stroke-linejoin="round" stroke-miterlimit="10" stroke-width="1.47067"/>
      <path d="m456.24479 489.51307 17.816-14.876s9.42666-7.16266 19.228-2.26266" fill="none" stroke="#1a2e35" stroke-linecap="round" stroke-linejoin="round" stroke-miterlimit="10" stroke-width="1.47067"/>
      <path d="m455.55332 438.22521s14.73867 21.708 18.508 36.412" fill="none" stroke="#1a2e35" stroke-linecap="round" stroke-linejoin="round" stroke-miterlimit="10" stroke-width="1.47067"/>
      <path d="m354.86852 479.60814-5.21333-4.972s-7.74133-1.352-16.50533 4.52267" fill="none" stroke="#1a2e35" stroke-linecap="round" stroke-linejoin="round" stroke-miterlimit="10" stroke-width="1.47067"/>
      <path d="m349.65492 474.63667s6.47467-21.27199 12.86267-32.25333" fill="none" stroke="#1a2e35" stroke-linecap="round" stroke-linejoin="round" stroke-miterlimit="10" stroke-width="1.47067"/>
      <path d="m377.66279 380.72921s-35.74933 13.41333-39.25333 17.31867c-3.50534 3.90666-16.82667 78.93066-17.17733 87.51599-.31334 7.67467 27.53066 24.91867 41.28666 32.188" fill="none" stroke="#1a2e35" stroke-linecap="round" stroke-linejoin="round" stroke-miterlimit="10" stroke-width="1.47067"/>
      <path d="m507.08065 368.68361h-40.73466c-4.80933 0-8.70933-3.9-8.70933-8.70933v-23.89734c0-4.80933 3.9-8.70799 8.70933-8.70799h40.73466c4.80934 0 8.70934 3.89866 8.70934 8.70799v23.89734c0 4.80933-3.9 8.70933-8.70934 8.70933" fill="#fff" stroke-width="1.33333"/>
      <path d="m507.08065 368.68361h-40.73466c-4.80933 0-8.70933-3.9-8.70933-8.70933v-23.89734c0-4.80933 3.9-8.70799 8.70933-8.70799h40.73466c4.80934 0 8.70934 3.89866 8.70934 8.70799v23.89734c0 4.80933-3.9 8.70933-8.70934 8.70933z" fill="none" stroke="#1a2e35" stroke-linecap="round" stroke-linejoin="round" stroke-miterlimit="10" stroke-width="1.47067"/>
      <path d="m476.39972 339.79428-11.18266 7.02 10.37733 9.204" fill="none" stroke="#1a2e35" stroke-linecap="round" stroke-linejoin="round" stroke-miterlimit="10" stroke-width="1.47067"/>
      <path d="m496.77599 356.68614 10.04933-8.564-11.6-7.60533" fill="none" stroke="#1a2e35" stroke-linecap="round" stroke-linejoin="round" stroke-miterlimit="10" stroke-width="1.47067"/>
      <path d="m481.83599 361.95574 8.25466-25.884" fill="none" stroke="#1a2e35" stroke-linecap="round" stroke-linejoin="round" stroke-miterlimit="10" stroke-width="1.47067"/>
      <path d="m404.39452 406.07428c0 1.3-1.052 2.352-2.352 2.352-1.29733 0-2.34933-1.052-2.34933-2.352 0-1.29867 1.052-2.35067 2.34933-2.35067 1.3 0 2.352 1.052 2.352 2.35067" fill="#1a2e35" stroke-width="1.33333"/>
      <path d="m445.76039 531.70187h-81.35867c-1.052 0-1.90533-.85466-1.90533-1.908 0-1.05333.85333-1.90666 1.90533-1.90666h81.35867c1.05333 0 1.90667.85333 1.90667 1.90666 0 1.05334-.85334 1.908-1.90667 1.908" fill="#1a2e35" stroke-width="1.33333"/>
      <path d="m448.60812 525.37894 10.90267-51.19867c.72133-3.38933-1.864-6.584-5.32933-6.584h-95.05467c-3.43333 0-6.01067 3.13734-5.34533 6.504l9.77466 49.49467c.49467 2.508 2.66534 4.33333 5.22 4.392l74.37734 1.70267c2.61866.06 4.90933-1.74934 5.45466-4.31067" fill="#fff" stroke-width="1.33333"/>
      <path d="m448.60812 525.37894 10.90267-51.19867c.72133-3.38933-1.864-6.584-5.32933-6.584h-95.05467c-3.43333 0-6.01067 3.13734-5.34533 6.504l9.77466 49.49467c.49467 2.508 2.66534 4.33333 5.22 4.392l74.37734 1.70267c2.61866.06 4.90933-1.74934 5.45466-4.31067z" fill="none" stroke="#1a2e35" stroke-linecap="round" stroke-linejoin="round" stroke-miterlimit="10" stroke-width="1.47067"/>
      <path d="m413.91932 497.10161c0 4.192-3.39866 7.588-7.58933 7.588s-7.58933-3.396-7.58933-7.588 3.39866-7.588 7.58933-7.588 7.58933 3.396 7.58933 7.588" fill="#1a2e35" stroke-width="1.33333"/>
      <path d="m428.83332 472.45574h11.29467" fill="none" stroke="#1a2e35" stroke-linecap="round" stroke-linejoin="round" stroke-miterlimit="10" stroke-width="1.47067"/>
      <path d="m374.90106 472.45574h42.86933" fill="none" stroke="#1a2e35" stroke-linecap="round" stroke-linejoin="round" stroke-miterlimit="10" stroke-width="1.47067"/>
      <path d="m448.79426 579.69401-8.66667 22.74533s-22.096-5.57067-50.41067-11.37333c-29.60533-6.06667-60.52533-13.92-76.56533-42.06-1.956-3.43067-3.256-7.484-2.34133-11.32534 2.31467-9.72 14.95867-12.35733 23.29333-13.33066 5.23067-.61067 10.51067-.81334 15.77333-.88667 2.684-.0373 11.536-1.444 13.67867.132 0 .001 5.55467 4.088 10.288 6.09733 4.73333 2.00934 73.82267-1.80533 73.82267-1.80533s2.05466-4.33733 2.17333-8.296c10.86133-5.52 36.00933-10.196 46.636-8.13067 16.70933 3.25067 26.45733 12.99734 24.6 23.208-1.85734 10.21334-38.732 37.59867-72.28133 45.02534" fill="#1a2e35" stroke-width="1.33333"/>
      <path d="m448.79426 579.69401s-21.016-5.57067-38.19067-17.17467c-17.17333-11.604-30.59067-25.06533-54.51733-22.28" fill="none" stroke="#fff" stroke-linecap="round" stroke-linejoin="round" stroke-miterlimit="10" stroke-width="1.47067"/>
      <path d="m406.65359 559.78254c10.848-3.12267 18.80933-10.13867 27.51467-16.876 9.22-7.14 18.97066-14.052 29.45733-19.35733" fill="none" stroke="#fff" stroke-linecap="round" stroke-linejoin="round" stroke-miterlimit="10" stroke-width="1.47067"/>
      <path d="m402.83986 336.07161h3.18266" fill="none" stroke="#1a2e35" stroke-linecap="round" stroke-linejoin="round" stroke-miterlimit="10" stroke-width="1.47067"/>
    </g>
  </g>
</svg>
