<svg version="1.1" viewBox="0 0 666.66669 666.66669" xmlns="http://www.w3.org/2000/svg" xmlns:xlink="http://www.w3.org/1999/xlink"><defs><linearGradient id="linearGradient21338" x1="250.8752" x2="358.93066" y1="138.0201" y2="202.19882" gradientUnits="userSpaceOnUse"><stop stop-color="#0adb72" offset="0"/><stop stop-color="#0a63d9" stop-opacity=".99546593" offset="1"/></linearGradient></defs><g transform="matrix(1.3333333,0,0,-1.3333333,0,666.66667)"><g fill="#0a63d9"><path d="m456.5508 290.8945c-48.744 83.474-180.95 53.744-207.955 94.349-13.827 20.79-29.296 44.889-51.732 57.421-21.39 11.947-46.19 16.21-67.812 14.627-77.207-5.651-109.944-74.731-95.107-150.59 19.792-101.193 109.496-204.56 216.064-205.284 55.735-.377 108.947 19.545 150.688 47.711.313.21.625.421.935.633 41.699 28.385 92.135 77.402 54.919 141.133"/><path d="m441.5215 54.6016c0-14.781-85.747-26.764-191.521-26.764-105.775 0-191.522 11.983-191.522 26.764s85.747 26.764 191.522 26.764c105.774 0 191.521-11.983 191.521-26.764"/></g><g><path d="m430.54 366.4756v-180.06c0-12.255-9.939-22.195-22.194-22.195h-316.691c-12.256 0-22.195 9.94-22.195 22.195v180.06c0 .53.022 1.048.066 1.566.795 11.528 10.403 20.64 22.129 20.64h316.691c11.725 0 21.334-9.112 22.128-20.64.044-.518.066-1.036.066-1.566" fill="#fff"/><path d="m400.0713 172.5928h-299.011c-11.488 0-20.801 9.313-20.801 20.8v166.331h340.612v-166.331c0-11.487-9.313-20.8-20.8-20.8" fill="#1a2e35"/><path d="m430.4736 368.042h-360.947c.794 11.528 10.402 20.639 22.128 20.639h316.691c11.726 0 21.334-9.111 22.128-20.639" fill="#0adb72"/></g><g fill="#1a2e35"><path d="m113.8813 378.3618c0-2.171-1.76-3.932-3.931-3.932-2.172 0-3.932 1.761-3.932 3.932s1.76 3.931 3.932 3.931c2.171 0 3.931-1.76 3.931-3.931"/><path d="m130.5034 378.3618c0-2.171-1.76-3.932-3.931-3.932-2.172 0-3.931 1.761-3.931 3.932s1.759 3.931 3.931 3.931c2.171 0 3.931-1.76 3.931-3.931"/><path d="m147.126 378.3618c0-2.171-1.76-3.932-3.931-3.932-2.172 0-3.932 1.761-3.932 3.932s1.76 3.931 3.932 3.931c2.171 0 3.931-1.76 3.931-3.931"/></g><path d="m430.54 366.4756v-180.06c0-12.255-9.939-22.195-22.194-22.195h-316.691c-12.256 0-22.195 9.94-22.195 22.195v180.06c0 .53.022 1.048.066 1.566.795 11.528 10.403 20.64 22.129 20.64h316.691c11.725 0 21.334-9.112 22.128-20.64.044-.518.066-1.036.066-1.566z" fill="none" stroke="#1a2e35" stroke-linecap="round" stroke-linejoin="round" stroke-miterlimit="10" stroke-width="1.103"/><path d="m420.877 359.7246v-166.337c0-11.483-9.216-20.794-20.569-20.794h-299.479c-11.353 0-20.569 9.311-20.569 20.794v166.337z" fill="#fff" opacity=".199997"/><path d="m430.4736 368.042h-360.947c.794 11.528 10.402 20.639 22.128 20.639h316.691c11.726 0 21.334-9.111 22.128-20.639z" fill="none" stroke="#1a2e35" stroke-miterlimit="10" stroke-width="1.103"/><path d="m420.8711 359.7183v-166.327c0-11.483-9.311-20.804-20.805-20.804h-299.007c-10.105 0-18.521 7.214-20.397 16.767l-.011.011v.045c-.254 1.29-.386 2.625-.386 3.981v166.327z" fill="none" stroke="#1a2e35" stroke-miterlimit="10" stroke-width="1.103"/><g fill="#1a2e35"><path d="m410.1123 305.0356c-5.669 0-10.259 4.589-10.259 10.259 0 5.658 4.59 10.259 10.259 10.259 5.67 0 10.26-4.601 10.26-10.259 0-5.67-4.59-10.259-10.26-10.259m10.436 28.957c-1.457.815-3.011 1.456-4.623 1.908l-1.864 8.35h-7.942l-1.853-8.35c-1.622-.442-3.177-1.093-4.633-1.908l-7.17 4.588-5.615-5.615 4.512-7.17c-.828-1.467-1.468-3.022-1.909-4.633l-8.351-1.853v-7.942l8.351-1.865c.441-1.632 1.081-3.198 1.909-4.666l-4.589-7.214 5.614-5.615 7.215 4.589c1.456-.827 3.011-1.467 4.633-1.919l1.854-8.34h7.942l1.863 8.34c1.612.452 3.166 1.103 4.622 1.919l.365-.231v37.836z"/><path d="m216.4492 312.6885c-11.947 0-21.632 9.685-21.632 21.632s9.685 21.632 21.632 21.632c11.946 0 21.632-9.685 21.632-21.632s-9.686-21.632-21.632-21.632m61.002 13.259v16.745l-17.606 3.905c-.959 3.398-2.305 6.685-4.026 9.774l2.129 3.353h-83.097l2.052-3.265c-1.732-3.078-3.078-6.354-4.016-9.762l-17.605-3.917v-16.744l17.605-3.928c.938-3.43 2.284-6.74 4.016-9.839l-9.675-15.212 11.847-11.836 15.201 9.674c3.089-1.732 6.365-3.089 9.774-4.049l3.905-17.583h16.745l3.938 17.583c3.398.96 6.663 2.328 9.741 4.049l15.212-9.674 11.836 11.836-9.608 15.212c1.709 3.088 3.067 6.354 4.026 9.751z"/><path d="m249.728 224.9258c-6.912-1.881-14.033 2.199-15.908 9.097-1.881 6.912 2.2 14.034 9.097 15.908 6.912 1.881 14.033-2.199 15.908-9.097 1.881-6.912-2.199-14.033-9.097-15.908m22.873 5.885c.516 2.055.783 4.169.806 6.29l9.548 5.02-2.639 9.688-10.777-.504c-1.09 1.817-2.394 3.502-3.872 5.004l3.193 10.31-8.703 4.986-7.281-7.945c-2.049.502-4.152.765-6.27.799l-5.041 9.556-9.673-2.632.51-10.792c-1.817-1.091-3.501-2.395-5.014-3.869l-10.314 3.183-4.992-8.689 7.987-7.262c-.516-2.055-.779-4.158-.788-6.273l-9.566-5.037 2.638-9.688 10.792.511c1.076-1.823 2.37-3.505 3.858-5.011l-3.209-10.257 8.704-4.986 7.243 7.877c2.056-.517 4.159-.779 6.284-.792l5.027-9.562 9.674 2.631-.425 9.219-.072 1.579c1.837 1.083 3.533 2.384 5.063 3.874l10.307-3.204 4.258 7.445.728 1.259z"/><path d="m346.0195 214.3682c-7.82-5.593-18.697-3.794-24.29 4.026-5.604 7.811-3.795 18.687 4.016 24.28 7.82 5.604 18.697 3.795 24.29-4.015 5.603-7.821 3.795-18.698-4.016-24.291m37.296-.596 2.207 13.293-13.458 5.416c-.31 2.835-.96 5.616-1.931 8.295l9.686 10.789-7.844 10.965-13.358-5.67c-2.217 1.776-4.633 3.276-7.214 4.479l-.783 14.494-13.304 2.196-5.449-13.403c-2.825-.331-5.593-.982-8.263-1.942l-10.821 9.685-10.954-7.843 5.681-13.347c-1.566-1.963-2.924-4.059-4.049-6.288-.154-.308-.308-.618-.452-.926l-14.483-.806-2.207-13.281 2.184-.882 11.274-4.545c.309-2.813.949-5.593 1.93-8.263l-9.685-10.821 7.844-10.954 13.358 5.692c2.206-1.798 4.633-3.309 7.203-4.511l.75-14.429 13.293-2.195 5.438 13.303c2.835.309 5.615.96 8.285 1.942l10.799-9.697 10.964 7.854-5.68 13.359c1.808 2.217 3.343 4.656 4.555 7.247z"/><path d="m131.1074 231.7139c-6.354 7.06-17.23 7.634-24.291 1.279-7.06-6.353-7.633-17.23-1.279-24.29 6.354-7.059 17.23-7.622 24.29-1.268 7.06 6.353 7.634 17.219 1.28 24.279m35.277-20.749.706 13.281-13.767 3.883c-.639 2.725-1.588 5.383-2.823 7.898l8.317 11.682-8.913 9.895-12.465-7.049c-2.383 1.489-4.92 2.714-7.59 3.629l-2.383 14.12-13.281.706-3.839-13.811c-2.736-.607-5.383-1.555-7.898-2.802l-11.671 8.317-9.906-8.913 7.06-12.476c-1.522-2.372-2.736-4.909-3.64-7.578l-4.026-.662v-17.991l2.923-.828c.618-2.746 1.566-5.405 2.824-7.92l-5.747-8.042.386-6.894v-.045l.011-.01 5.924-6.575 12.487 7.049c2.382-1.533 4.942-2.768 7.611-3.674l2.273-13.556v-.012l.11-.562 13.281-.707.353 1.269v.012l3.486 12.531c2.758.617 5.405 1.555 7.942 2.802l11.649-8.307 9.906 8.902-7.038 12.488c1.501 2.371 2.714 4.908 3.596 7.567z"/></g><path d="m78.189 284.8208h-5.419c-12.113 0-21.932-9.819-21.932-21.932v-120.342c0-12.112 9.819-21.932 21.932-21.932h74.36c12.113 0 21.932 9.82 21.932 21.932" fill="none" stroke="#1a2e35" stroke-dasharray="4.412" stroke-linecap="round" stroke-linejoin="round" stroke-miterlimit="10" stroke-width="1.103"/><path d="m203.0762 141.2158h-104.577c-7.241 0-13.11 5.869-13.11 13.109v144.795c0 7.241 5.869 13.11 13.11 13.11h104.577c7.24 0 13.11-5.869 13.11-13.11v-144.795c0-7.24-5.87-13.109-13.11-13.109" fill="#0adb72"/><path d="m203.0762 141.2158h-104.577c-7.241 0-13.11 5.869-13.11 13.109v144.795c0 7.241 5.869 13.11 13.11 13.11h104.577c7.24 0 13.11-5.869 13.11-13.11v-144.795c0-7.24-5.87-13.109-13.11-13.109" opacity=".199997"/><path d="m203.0762 141.2158h-104.577c-7.241 0-13.11 5.869-13.11 13.109v144.795c0 7.241 5.869 13.11 13.11 13.11h104.577c7.24 0 13.11-5.869 13.11-13.11v-144.795c0-7.24-5.87-13.109-13.11-13.109z" fill="none" stroke="#1a2e35" stroke-miterlimit="10" stroke-width="1.103"/><path d="m228.3618 286.2031v-144.794c0-7.247-5.869-13.115-13.116-13.115h-104.574c-7.237 0-13.105 5.868-13.105 13.115v144.794c0 7.236 5.868 13.105 13.105 13.105h104.574c7.247 0 13.116-5.869 13.116-13.105" fill="#fff"/><path d="m228.3618 286.2031v-144.794c0-7.247-5.869-13.115-13.116-13.115h-104.574c-7.237 0-13.105 5.868-13.105 13.115v144.794c0 7.236 5.868 13.105 13.105 13.105h104.574c7.247 0 13.116-5.869 13.116-13.105z" fill="none" stroke="#1a2e35" stroke-linecap="round" stroke-linejoin="round" stroke-miterlimit="10" stroke-width="1.103"/><path d="m228.3618 286.2031v-7.754h-130.795v7.754c0 7.236 5.868 13.105 13.105 13.105h104.574c7.247 0 13.116-5.869 13.116-13.105" fill="#0a63d9"/><path d="m228.3618 286.2031v-7.754h-130.795v7.754c0 7.236 5.868 13.105 13.105 13.105h104.574c7.247 0 13.116-5.869 13.116-13.105z" fill="none" stroke="#1a2e35" stroke-miterlimit="10" stroke-width="1.103"/><g fill="#0a63d9"><path d="m142.045 264.069h-32.178v5.397h32.178z"/><path d="m142.045 215.681h-32.178v5.397h32.178z"/><path d="m142.045 171.801h-32.178v5.397h32.178z"/></g><g fill="#1a2e35"><path d="m201.258 252.145h-91.392v3.959h91.392z"/><path d="m184.779 244.669h-74.913v3.857h74.913z"/><path d="m194.589 237.221h-84.723v3.857h84.723z"/><path d="m194.589 229.779h-84.723v3.857h84.723z"/><path d="m201.258 208.266h-91.392v3.958h91.392z"/><path d="m184.779 200.789h-74.913v3.857h74.913z"/><path d="m194.589 193.341h-84.723v3.857h84.723z"/><path d="m201.258 160.079h-91.392v3.959h91.392z"/><path d="m184.779 152.604h-74.913v3.857h74.913z"/><path d="m194.589 145.154h-84.723v3.858h84.723z"/></g><path d="m162.9644 398.3711v23.771c0 7.418 6.014 13.432 13.432 13.432h96.701c7.418 0 13.432-6.014 13.432-13.432" fill="none" stroke="#1a2e35" stroke-dasharray="4.412" stroke-linecap="round" stroke-linejoin="round" stroke-miterlimit="10" stroke-width="1.103"/><path d="m375.7646 399.7061v-58.52c0-8.637-6.993-15.631-15.631-15.631h-134.788c-8.626 0-15.631 6.994-15.631 15.631v58.52c0 8.637 7.005 15.642 15.631 15.642h134.788c8.638 0 15.631-7.005 15.631-15.642" fill="#fff"/><path d="m375.7646 399.7061v-58.52c0-8.637-6.993-15.631-15.631-15.631h-134.788c-8.626 0-15.631 6.994-15.631 15.631v58.52c0 8.637 7.005 15.642 15.631 15.642h134.788c8.638 0 15.631-7.005 15.631-15.642z" fill="none" stroke="#1c1c1b" stroke-miterlimit="10" stroke-width="1.103"/><path d="m375.7646 399.7061v-1.335h-166.05v1.335c0 8.637 7.005 15.642 15.631 15.642h134.788c8.638 0 15.631-7.005 15.631-15.642" fill="#0a63d9"/><path d="m375.7646 399.7061v-1.335h-166.05v1.335c0 8.637 7.005 15.642 15.631 15.642h134.788c8.638 0 15.631-7.005 15.631-15.642z" fill="none" stroke="#1a2e35" stroke-miterlimit="10" stroke-width="1.103"/><g fill="#1a2e35"><path d="m234.1089 404.0635c-.935-.935-2.451-.935-3.386 0s-.935 2.451 0 3.386 2.451.935 3.386 0 .935-2.451 0-3.386"/><path d="m245.2285 404.0635c-.935-.935-2.451-.935-3.386 0s-.935 2.451 0 3.386 2.451.935 3.386 0 .935-2.451 0-3.386"/><path d="m256.3486 404.0635c-.935-.935-2.451-.935-3.386 0-.934.935-.934 2.451 0 3.386.935.935 2.451.935 3.386 0 .936-.935.936-2.451 0-3.386"/></g><path d="m274.581 340.692h-54.278v46.918h54.278z" fill="none" stroke="#1a2e35" stroke-dasharray="4.412" stroke-linecap="round" stroke-linejoin="round" stroke-miterlimit="10" stroke-width="1.103"/><g fill="#1a2e35"><path d="m345.423 384.315h-62.468v3.295h62.468z"/><path d="m330.872 377.482h-47.917v3.295h47.917z"/><path d="m354.309 370.649h-71.354v3.334h71.354z"/><path d="m343.714 364.011h-60.759v3.334h60.759z"/></g><path d="m296.8633 59.5342s-29.001-8.317-33.049-9.751c-3.684-1.302-13.667-4.799-21.158-3.718-.739.111-1.456.265-2.14.464-7.589 2.261-10.998 4.368-11.99 9.145-1.004 4.787 2.779 8.284 6.42 10.535 3.64 2.25 23.386 4.599 23.386 4.599l4.765-1.401h.011z" fill="#0adb72"/><path d="m242.6567 46.0654c-.739.11-1.456.265-2.14.464-7.589 2.261-10.998 4.368-11.991 9.144-1.004 4.788 2.78 8.285 6.42 10.536 3.64 2.25 23.386 4.599 23.386 4.599l4.766-1.401c-4.314-1.986-20.397-3.089-23.905-5.108-3.508-2.018-5.206-5.824-3.133-10.964 1.103-2.736 4.06-5.383 6.597-7.27" fill="#fff"/><path d="m292.5 58.3525s-21.78-5.644-30.416-9.256c-8.636-3.611-25.114-5.191-30.983 2.258s-.677 13.857 5.192 15.28c5.869 1.424 17.737 3.681 24.218 2.779" fill="none" stroke="#1a2e35" stroke-linecap="round" stroke-linejoin="round" stroke-miterlimit="10" stroke-width="1.103"/><path d="m243.0937 46.4619s-11.082 6.076-7.402 14.593c2.715 6.285 17.499 4.923 24.819 8.358" fill="none" stroke="#1a2e35" stroke-linecap="round" stroke-linejoin="round" stroke-miterlimit="10" stroke-width="1.103"/><path d="m385.1885 44.7197c-.297-2.967-1.346-5.813-4.346-7.578-1.997-1.181-4.842-1.886-8.913-1.842-10.171.132-29.287 7.401-29.287 7.401l-17.903 9.895 9.309 14.738 2.549 4.037 6.585-1.478s5.449-3.089 10.932-5.548c5.482-2.461 18.786-2.979 23.474-6.773 4.688-3.785 8.108-7.91 7.6-12.852" fill="#0adb72"/><path d="m385.1885 44.7197c-.297-2.967-1.346-5.813-4.346-7.578.563 2.306 1.026 5.493-.508 8.935-1.985 4.49-8.504 8.45-17.064 9.112-8.55.662-15.113 4.666-18.544 6.453-2.68 1.39-8.328 4.424-10.678 5.692l2.549 4.037 6.585-1.478s5.449-3.089 10.932-5.548c5.482-2.461 18.786-2.979 23.474-6.773 4.688-3.785 8.108-7.91 7.6-12.852" fill="#fff"/><path d="m328.7061 49.8223c12.745-7.302 27.321-12.559 41.904-14.314 3.256-.393 7.046-.448 9.228 2.001 1.216 1.364 1.66 3.293 1.504 5.115-.396 4.595-4.259 8.24-8.497 10.061-4.239 1.822-8.919 2.257-13.42 3.266-4.482 1.005-8.832 2.597-12.905 4.721-3.235 1.688-6.368 3.739-9.938 4.495-3.571.756-7.824-.161-9.729-3.275" fill="none" stroke="#1a2e35" stroke-linecap="round" stroke-linejoin="round" stroke-miterlimit="10" stroke-width="1.103"/><path d="m378.6436 36.2607c3.295 1.691 6 4.797 6.549 8.46.649 4.332-1.819 8.686-5.295 11.352-3.477 2.665-7.819 3.916-12.108 4.807-4.29.892-8.675 1.49-12.756 3.085-6.274 2.45-12.46 7.292-18.97 5.565" fill="none" stroke="#1a2e35" stroke-linecap="round" stroke-linejoin="round" stroke-miterlimit="10" stroke-width="1.103"/><g><path d="m343.2266 133.7402c-1.048-.54 3.012 10.712 1.081 13.26-1.931 2.559-7.71 2.305-7.71 2.305l.496 3.078c.067.342 3.431 17.594 3.431 17.594l1.136 1.357s11.781-20.198 13.888-27.313c0 0-12.841-10.281-12.322-10.281m-76.158 14.87c-2.229-1.577-1.037-7.699-1.037-7.699l-3.795 3.342 9.52 23.408 4.06-17.97s-6.52.486-8.748-1.081m81.84 56.126-30.292 11.527-.375.144s.11.806.199 1.975c.187 2.416.286 6.353-.85 7.688-1.687 1.975-6.475.32-11.141 2.46-4.666 2.141-13.304-1.687-13.304-1.687s-6.232 1.147-8.979-3.354c-1.401-3.629-.916-9.034-.916-9.034s-.198-.077-.573-.21c-3.607-1.346-23.243-8.736-27.401-11.704-4.59-3.254-9.664-36.623-11.296-46.418-1.633-9.807-4.534-18.632-3.056-22.007 1.468-3.365 22.57-19.614 34.704-23.806 12.134-4.203 55.188-2.967 55.188-2.967s.706.188 1.953.585c7.28 2.338 33.115 11.968 46.815 34.681 0 0-13.27 43.528-30.676 62.127" fill="url(#linearGradient21338)"/><path d="m291.7148 277.7461-15.633-16.599s-2.156-1.905-1.3-6.72c.858-4.816 2.853-8.952 4.36-9.273 1.508-.321 3.62-.324 3.62-.324s3.35-7.261 5.724-10.114c0 0 .827-11.206.385-14.318 0 0 5.617-4.907 10.907-5.53 5.291-.624 13.465 7.482 13.465 7.482l2.027 9.923s4.796 7.281 5.123 9.218c.327 1.939 2.519 1.442 3.596 2.398 1.078.955 3.572 5.232 3.984 9.272.411 4.04.44 8.681-4.253 7.318-4.067 1.093-1.521 9.69-1.521 9.69l-7.146 6.305z" fill="#fff"/><path d="m318.6162 216.2637c-.242-.64-.507-1.246-.805-1.809-2.581-4.865-13.822-14.13-13.822-14.13l-3.397 10.446-1.865-10.446c-3.751 1.632-15.189 11.549-15.189 11.549s-.387.926-.86 2.371c.375.133.573.21.573.21s-.486 5.406.916 9.035c2.746 4.501 8.978 3.353 8.978 3.353s8.638 3.828 13.304 1.688 9.454-.486 11.142-2.46c1.687-1.975.65-9.663.65-9.663z" fill="#fff" opacity=".5"/><path d="m343.2266 133.7402c-1.048-.54 3.012 10.712 1.081 13.26-1.931 2.559-7.71 2.305-7.71 2.305l.496 3.078c.067.342 3.431 17.594 3.431 17.594l1.136 1.357s11.781-20.198 13.888-27.313c0 0-12.841-10.281-12.322-10.281m5.682 70.996-30.292 11.527-.375.144s.11.806.199 1.975l-.629-3.927-4.479-6.089s7.575-2.733 13.977-6.161c4.451-2.383 7.009-7.23 6.422-12.245l-5.584-47.747-2.283-27.115 6.905-7.17c7.28 2.338 33.115 11.968 46.815 34.681 0 0-13.27 43.528-30.676 62.127" opacity=".199997"/><path d="m266.0312 140.9111-3.795 3.342 9.521 23.408 4.059-17.97s-6.519.486-8.748-1.081c-2.228-1.577-1.037-7.699-1.037-7.699m11.837 6.089-4.711 15.741s-8.444 28.804-14.236 35.908l1.522-20.257s-4.969-24.2-9.568-31.392c-4.6-7.182-5.593-8.98 0-8.98 5.603 0 19.194-10.843 19.194-10.843l-1.049 9.046z" opacity=".199997"/></g><g fill="none" stroke="#1a2e35" stroke-linecap="round" stroke-linejoin="round" stroke-miterlimit="10" stroke-width="1.103"><path d="m288.4854 234.7158s.869-8.487 0-12.365"/><path d="m314.1084 223.4873s-.05 4.136.944 8.109"/><path d="m316.3818 271.4175s5.136-6.452 4.872-11.324c-.263-4.872-.658-10.666-.526-16.328s-9.086-17.513-13.826-18.566c-4.741-1.053-8.823-1.317-11.851 1.712-3.028 3.028-6.058 7.242-10.008 12.64-3.95 5.4-3.028 17.25-3.028 17.25"/><path d="m304.0215 252.2861c-.314-1.77-.448-3.57-.4-5.367.04-1.504.263-3.13 1.317-4.204.567-.578 1.392-1.042 1.5-1.845.096-.713-.449-1.36-1.056-1.748-.605-.388-1.308-.628-1.85-1.1"/><path d="m295.8662 237.3965s.594-3.827 5.727-4.628"/></g><path d="m296.4004 249.3677c0-1.106-.479-2.002-1.068-2.002-.59 0-1.068.896-1.068 2.002s.478 2.003 1.068 2.003c.589 0 1.068-.897 1.068-2.003" fill="#1a2e35"/><path d="m311.71 248.8867c0-1.106-.479-2.003-1.068-2.003-.59 0-1.069.897-1.069 2.003s.479 2.002 1.069 2.002c.589 0 1.068-.896 1.068-2.002" fill="#1a2e35"/><path d="m308.6211 253.7354s4.978 4.978 9.189-.575" fill="none" stroke="#1a2e35" stroke-linecap="round" stroke-linejoin="round" stroke-miterlimit="10" stroke-width="2.206"/><path d="m298.0908 253.6396s-3.158 3.542-8.137 0" fill="none" stroke="#1a2e35" stroke-linecap="round" stroke-linejoin="round" stroke-miterlimit="10" stroke-width="2.206"/><path d="m288.8711 230.0518s3.049-8.404 9.858-10.787c6.81-2.384 15.851 9.986 15.851 9.986l-.473 1.609s-5.924-7.698-12.514-6.385c-6.591 1.312-13.108 10.241-13.108 10.241z" fill="#1a2e35"/><path d="m282.7617 245.1543s-4.059-1.434-5.138 1.729c-1.08 3.164-4.78 11.489-1.542 14.264s5.84-3.664 5.84-3.664" fill="none" stroke="#1a2e35" stroke-linecap="round" stroke-linejoin="round" stroke-miterlimit="10" stroke-width="1.103"/><path d="m320.7197 243.4297s3.772-.759 4.853 2.404c1.079 3.163 4.779 11.489 1.541 14.264s-5.839-3.664-5.839-3.664" fill="none" stroke="#1a2e35" stroke-linecap="round" stroke-linejoin="round" stroke-miterlimit="10" stroke-width="1.103"/><path d="m281.9219 249.3677c1.124.051 2.969 1.147 3.562 2.104.591.958.842 2.083 1.035 3.192.368 2.124.556 4.279.564 6.434.003.843-.019 1.702.226 2.508.257.839.788 1.565 1.357 2.232 1.417 1.66 3.122 3.063 4.47 4.78 1.347 1.717 2.336 3.892 1.973 6.043 0 0 9.205-8.414 22.473-5.812 7.144 1.401 14 7.67 13.165 15.549-.297 2.804-2.357 4.82-5.033 5.486-3.531.878-6.704-1.005-9.903-2.211-5.833-2.2-11.54 1.577-17.433 2.211-5.04.542-11.226-.083-13.85-5.094 0 0-9.052-1.063-13.017-8.498-3.966-7.435 3.572-17.728 3.572-17.728s3.033 3.673 6.932-3.762z" fill="#1a2e35"/><path d="m316.9521 273.3188s-2.341-12.198 3.768-18.105c0 0 1.336 3.667 2.692 4.562 0 0 3.399 6.445-1.07 13.543-4.469 7.099-5.39 0-5.39 0" fill="#1a2e35"/><g fill="none" stroke-linecap="round" stroke-linejoin="round" stroke-miterlimit="10" stroke-width="1.103"><path d="m328.1416 287.2012c-.903-3.362-3.746-5.963-6.97-7.276-8.48-3.454-16.717.377-25.207 1.127-6.939.613-14.588-5.639-15.072-12.762" opacity=".199997" stroke="#fff"/><path d="m275.626 270.1689c.128 5.608 3.833 10.975 9.032 13.082" opacity=".199997" stroke="#fff"/><g stroke="#1a2e35"><path d="m286.5293 223.4873s5.587-6.156 13.206-9.034c0 0 10.15 2.943 15.317 10.021"/><path d="m302.1299 249.3677c0-4.961-4.021-8.983-8.982-8.983-4.962 0-8.984 4.022-8.984 8.983s4.022 8.983 8.984 8.983c4.961 0 8.982-4.022 8.982-8.983z"/><path d="m322.1992 249.3677c0-4.961-4.022-8.983-8.983-8.983s-8.983 4.022-8.983 8.983 4.022 8.983 8.983 8.983 8.983-4.022 8.983-8.983z"/><path d="m288.4854 226.8379s-2.731-.553-4.321-3.351c-1.59-2.797-.631-11.609-.631-11.609s8.207-8.122 15.196-11.549l2.062 11.594 3.2-11.594s10.823 7.655 13.819 14.124c0 0 .978 7.544 0 10.022-.976 2.477-3.23 2.363-3.23 2.363"/><path d="m275.626 149.3027s-3.204 21.495-7.475 30.265"/><path d="m258.9209 198.6494s4.056-5.685 6.64-11.111"/><path d="m343.2275 182.6016c1.129 4.282 2.329 8.039 3.528 10.492"/><path d="m336.5957 149.3027s2.314 14.735 5.069 26.881"/><path d="m340.5205 169.9824c2.205 2.942 5.4 5.128 8.942 6.114"/><path d="m318.2451 216.4082s18.639-7.445 30.668-11.674c0 0 14.8-13.918 30.667-62.126 0 0-14.545-24.46-42.2-32.302"/><path d="m342.1836 132.8652 13.362 11.157s7.07 5.372 14.421 1.697"/><path d="m341.665 171.3311s11.054-16.281 13.881-27.309"/><path d="m266.1514 140.2939-3.91 3.729s-5.806 1.014-12.379-3.392"/><path d="m262.2412 144.0225s4.856 15.954 9.647 24.19"/><path d="m283.2471 214.4531s-26.812-10.06-29.44-12.989c-2.629-2.93-12.62-59.198-12.883-65.637-.235-5.756 20.648-18.689 30.965-24.141"/></g></g><path d="m380.3105 223.4873h-30.551c-3.607 0-6.532 2.925-6.532 6.532v17.923c0 3.607 2.925 6.531 6.532 6.531h30.551c3.607 0 6.532-2.924 6.532-6.531v-17.923c0-3.607-2.925-6.532-6.532-6.532" fill="#fff"/><g fill="none" stroke="#1a2e35" stroke-linecap="round" stroke-linejoin="round" stroke-miterlimit="10" stroke-width="1.103"><path d="m380.3105 223.4873h-30.551c-3.607 0-6.532 2.925-6.532 6.532v17.923c0 3.607 2.925 6.531 6.532 6.531h30.551c3.607 0 6.532-2.924 6.532-6.531v-17.923c0-3.607-2.925-6.532-6.532-6.532z"/><path d="m357.2998 245.1543-8.387-5.265 7.783-6.903"/><path d="m372.582 232.4854 7.537 6.423-8.7 5.704"/><path d="m361.377 228.5332 6.191 19.413"/></g><g><path d="m303.2959 195.4443c0-.975-.789-1.764-1.764-1.764-.973 0-1.762.789-1.762 1.764 0 .974.789 1.763 1.762 1.763.975 0 1.764-.789 1.764-1.763" fill="#1a2e35"/><path d="m334.3203 101.2236h-61.019c-.789 0-1.429.641-1.429 1.431s.64 1.43 1.429 1.43h61.019c.79 0 1.43-.64 1.43-1.43s-.64-1.431-1.43-1.431" fill="#1a2e35"/><path d="m336.4561 105.9658 8.177 38.399c.541 2.542-1.398 4.938-3.997 4.938h-71.291c-2.575 0-4.508-2.353-4.009-4.878l7.331-37.121c.371-1.881 1.999-3.25 3.915-3.294l55.783-1.277c1.964-.045 3.682 1.312 4.091 3.233" fill="#fff"/></g><path d="m336.4561 105.9658 8.177 38.399c.541 2.542-1.398 4.938-3.997 4.938h-71.291c-2.575 0-4.508-2.353-4.009-4.878l7.331-37.121c.371-1.881 1.999-3.25 3.915-3.294l55.783-1.277c1.964-.045 3.682 1.312 4.091 3.233z" fill="none" stroke="#1a2e35" stroke-linecap="round" stroke-linejoin="round" stroke-miterlimit="10" stroke-width="1.103"/><path d="m310.4395 127.1738c0-3.144-2.549-5.691-5.692-5.691s-5.692 2.547-5.692 5.691 2.549 5.691 5.692 5.691 5.692-2.547 5.692-5.691" fill="#1a2e35"/><path d="m321.625 145.6582h8.471" fill="none" stroke="#1a2e35" stroke-linecap="round" stroke-linejoin="round" stroke-miterlimit="10" stroke-width="1.103"/><path d="m281.1758 145.6582h32.152" fill="none" stroke="#1a2e35" stroke-linecap="round" stroke-linejoin="round" stroke-miterlimit="10" stroke-width="1.103"/><path d="m336.5957 65.2295-6.5-17.059s-16.572 4.178-37.808 8.53c-22.204 4.55-45.394 10.44-57.424 31.545-1.467 2.573-2.442 5.613-1.756 8.494 1.736 7.29 11.219 9.268 17.47 9.998 3.923.458 7.883.61 11.83.665 2.013.028 8.652 1.083 10.259-.099 0-.001 4.166-3.066 7.716-4.573s55.367 1.354 55.367 1.354 1.541 3.253 1.63 6.222c8.146 4.14 27.007 7.647 34.977 6.098 12.532-2.438 19.843-9.748 18.45-17.406-1.393-7.66-29.049-28.199-54.211-33.769" fill="#1a2e35"/><g fill="none" stroke-linecap="round" stroke-linejoin="round" stroke-miterlimit="10" stroke-width="1.103"><path d="m336.5957 65.2295s-15.762 4.178-28.643 12.881c-12.88 8.703-22.943 18.799-40.888 16.71" stroke="#fff"/><path d="m304.9902 80.1631c8.136 2.342 14.107 7.604 20.636 12.657 6.915 5.355 14.228 10.539 22.093 14.518" stroke="#fff"/><path d="m302.1299 247.9463h2.387" stroke="#1a2e35"/></g></g></svg>
