<svg version="1.1" viewBox="0 0 666.66669 666.66669" xmlns="http://www.w3.org/2000/svg">
  <g transform="matrix(1.070911,0,0,1.070911,-23.7894,-22.384077)" stroke-width="1.33333">
    <g id="background">
      <path d="m101.90495 520.1807c-14.949434-10.82931-45.823357-38.3239-55.723865-86.17579-4.10879-19.85861-1.417197-39.18923 4.414122-57.35985 14.584897 55.98119 49.752943 96.79309 72.333153 118.32637h-21.02341v25.20927m510.82552-25.20927h-1.09867c5.37066-17.30929 12.27464-43.59989 15.0413-71.55182 1.63333 14.5693 0.26933 29.67992-4.49466 46.99988-2.65066 9.64131-5.93465 17.75729-9.44797 24.55194m-20.47995-207.34215c-24.10527-38.3679-58.05986-68.83849-94.58643-68.83849-0.79067 0-1.588 0.0147-2.37999 0.0427-2.53067 0.092-5.03066 0.136-7.50799 0.136-56.96119 0-99.52775-23.30794-99.52775-23.30794l-48.55054-45.24122c-2.632-2.45199-5.44532-4.88265-8.41598-7.26931 27.20926-14.07464 59.45052-44.185227 106.41173-44.185227 6.40932 0 13.09064 0.559998 20.07329 1.799997 68.41182 12.1373 134.61966 48.55054 137.93032 127.99968 1.12399 26.9946-1.06267 45.07189-3.44666 58.86385" fill="#d1eaf9"/>
      <path d="m143.28498 512.35005s-72.827823-51.8612-93.79337-140.13698c-20.966215-88.27578 11.033705-195.31018 71.72369-249.37938 60.68958-54.067862 169.93064-17.65462 218.48252 27.5866l48.55054 45.24122s46.34522 25.3786 107.03574 23.17194c60.68918-2.20666 114.75704 80.5518 129.10234 145.65564 14.34396 65.1025-19.86262 151.17029-19.86262 151.17029l-461.23884-3.30933" fill="#d1ebfa"/>
      <path d="m611.6318 494.97143h-95.15576c9.24131-24.56261 19.52662-59.13052 16.48929-85.24245-5.26132-45.23989-30.52125-88.27445-82.09446-121.37837-19.54395-12.5453-50.27187-21.76261-83.70912-23.74794 2.04133-12.45997 2.13199-25.59727 1.50133-32.52792-1.10267-12.1373-6.89598-22.06928-6.89598-22.06928s-10.89198-6.17731-24.81461-6.17731c-4.21332 0-8.70531 0.56666-13.25463 2.03999-19.58662 6.34399-26.4826 36.68924-24.27594 52.6892 0.62933 4.55999 1.76799 8.47865 3.27599 11.92131-33.71192 8.76931-64.74517 27.37593-84.42779 59.80251-28.89859 47.61189-27.06393 97.64376-19.30795 133.01967v31.67059h-76.03381c-22.58021-21.53328-57.748256-62.34518-72.333153-118.32637 12.961434-40.38657 41.435763-75.05181 45.240553-97.12243 5.51759-31.99992-6.620383-71.72382 44.13856-102.61974 50.7572-30.89726 141.24098-19.86262 175.44756-27.5866 5.13599-1.15999 10.39597-3.33865 15.85996-6.16531 2.97066 2.38666 5.78398 4.81732 8.41598 7.26931l48.55054 45.24122s42.56656 23.30794 99.52775 23.30794c2.47733 0 4.97732-0.044 7.50799-0.136 0.79199-0.028 1.58932-0.0427 2.37999-0.0427 36.52657 0 70.48116 30.47059 94.58643 68.83849-4.63066 26.79727-9.99864 37.41324 6.75598 65.82517 15.4213 26.14793 25.13861 47.40655 27.6666 69.96516-2.76666 27.95193-9.67064 54.24253-15.0413 71.55182" fill="#b0d6f2"/>
    </g>
    <g class="objects">
      <path d="m579.28389 355.20111h-59.49586c-3.67999 0-6.66665-2.98532-6.66665-6.66665v-29.70126c0-3.68132 2.98666-6.66665 6.66665-6.66665h59.49586c3.68132 0 6.66665 2.98533 6.66665 6.66665v29.70126c0 3.68133-2.98533 6.66665-6.66665 6.66665" fill="#599fdc"/>
      <path d="m549.53596 372.02907 9.42798-22.34528h-18.85596z" fill="#599fdc"/> -->
      <path d="m549.31063 326.29452h17.03062v2.49199l8.34931-4.81465-8.34931-4.81332v2.49199h-17.03062v4.64399" fill="#293d8a"/>
      <path d="m574.69056 336.08783h-17.03062v-2.492l-8.34931 4.81332 8.34931 4.81333v-2.492h17.03062v-4.64265" fill="#fff"/>
      <path d="m538.85732 340.46782-0.81067 0.29599s-2.52666-2.88532-3.83865-6.02798c-1.312-3.14133-1.35733-6.97865-1.35733-6.97865l0.59333-0.248-3.60266-8.61864c-0.64133 0.50133-1.25333 1.14666-1.74799 1.98266-2.03733 3.44399-1.836 8.72931 0.21466 13.8933 2.04933 5.16265 4.24133 9.76797 8.24132 12.66396 2.35999 1.70933 4.38265 2.008 5.95331 1.76l-3.64532-8.72264" fill="#293d8a"/>
      <path d="m541.44398 339.45315-1.12 0.40667 3.68533 8.82397c0.41733-0.13599 0.79066-0.30399 1.11466-0.48133 0.952-0.52133 1.37066-1.66666 0.96933-2.67466l-1.92533-4.85199c-0.428-1.07599-1.63466-1.61999-2.72399-1.22266" fill="#293d8a"/>
      <path d="m532.65734 317.37987c-0.45334 0.16267-0.94667 0.384-1.44267 0.676l3.67733 8.80265 1.23733-0.51734c1.07466-0.44799 1.59466-1.67199 1.17066-2.75599l-1.93333-4.96265c-0.41866-1.07733-1.62133-1.636-2.70932-1.24267" fill="#293d8a"/>
    </g>
    <g id="person">
      <path d="m516.47604 494.97143h-92.64777c1.54133-5.54665 5.24799-25.9306 5.24799-25.9306s-31.44792-26.9426-33.10258-31.35726c-1.104-2.94266-0.552-57.47052-5.24266-82.57446-4.68932-25.10394-10.7573-30.16126-23.4466-36.41324-13.11464-6.46265-32.55326-12.50664-32.55326-12.50664s3.86266 8.91998 7.44798 29.88526c3.588 20.96662 6.89732 56.27586 7.72532 80.5518 0.75066 22.01061 1.27333 69.64516 1.36533 78.34514h-39.00924c0.66267-6.22799 3.26666-31.54926 2.05733-34.20658-0.532-1.17333-13.40663-1.85066-29.01059-2.24266v-99.55042s-15.86796-1.108-33.13592-1.108c-16.11596 0-33.45192 0.96533-40.2439 4.69332-14.06796 7.72398-12.9653 34.48392-12.9653 34.48392v66.25983c-7.75598-35.37591-9.59064-85.40778 19.30795-133.01967 19.68262-32.42658 50.71587-51.0332 84.42779-59.80251 0.15067 0.34266 0.304 0.68133 0.46133 1.01466-1.10666 8.79731-3.28399 25.2546-4.28932 27.06393l-1.37866 2.48266-6.89732 4.69066s13.2413 18.75862 29.51726 21.79194c2.21066 0.41334 4.09466 0.59067 5.70132 0.59067 10.22531 0 9.19464-7.21065 9.19464-7.21065l-2.48266-5.24132 2.16533-18.75729c1.69733 0.26267 3.42266 0.40534 5.14265 0.40534 7.14932 0 14.21863-2.44266 18.89862-8.68265 4.26133-5.68132 6.89732-14.66129 8.43065-24.02394 33.43725 1.98533 64.16517 11.20264 83.70912 23.74794 51.57321 33.10392 76.83314 76.13848 82.09446 121.37837 3.03733 26.11193-7.24798 60.67984-16.48929 85.24245" fill="#95c3eb"/>
      <path d="m189.28138 509.16269v-106.35118s-1.18086-28.65752 13.88468-36.92921c15.06697-8.2717 78.58325-3.83956 78.58325-3.83956v147.11995h-92.46793" fill="#3a76c4" stroke-width="1.42788"/>
      <path d="m303.83524 266.00533s-3.58532 30.06926-4.96532 32.55192l-1.37866 2.48266-6.89732 4.69066s13.2413 18.75862 29.51726 21.79194c16.27596 3.03466 14.89596-6.61998 14.89596-6.61998l-2.48266-5.24132 3.31199-28.69059s-29.51859-13.51597-32.00125-20.96529" fill="#f57c83"/>
      <path d="m282.04196 308.21323 10.75864-4.69066s6.89732 11.31064 22.89728 17.93196c15.99996 6.61998 16.27596 2.75866 17.10262 0 0.828-2.75866-0.276-5.79332-0.276-5.79332l1.184-9.65864 6.39865 2.13199 22.21061 179.66355-57.10252 2.75866-23.17328-182.34354" fill="#fff"/>
      <path d="m334.73116 306.18923s3.86266 8.91998 7.44798 29.88526c3.588 20.96662 6.89732 56.27586 7.72532 80.5518 0.82666 24.27594 1.38 79.7238 1.38 79.7238h71.99982c0.82666 0 5.79198-27.30926 5.79198-27.30926s-31.44792-26.9426-33.10258-31.35726c-1.104-2.94266-0.552-57.47052-5.24266-82.57446-4.68932-25.10394-10.7573-30.16126-23.4466-36.41324-13.11464-6.46265-32.55326-12.50664-32.55326-12.50664" fill="#293d8a"/>
      <path d="m372.2484 464.74084c-0.368 0-0.66666-0.29867-0.66666-0.66667 0-1.97199-0.35067-29.99459-0.688-57.09452-0.34-27.10393-0.69067-55.13053-0.69067-57.11186 0-0.36933 0.29867-0.66666 0.66667-0.66666s0.66666 0.29733 0.66666 0.66666c0 1.972 0.35067 29.99459 0.68934 57.09453 0.33866 27.10393 0.68933 55.13052 0.68933 57.11185 0 0.368-0.29733 0.66667-0.66667 0.66667" fill="#788cbd"/>
      <path d="m228.80076 458.00485-0.55066 38.34524h83.86112s3.58666-32.55192 2.20666-35.58524c-1.37866-3.03599-85.51712-2.76-85.51712-2.76" fill="#293d8a"/>
      <path d="m333.86717 304.03191c-3.64133-1.336-8.31598-3.54666-11.73331-6.30132-5.98665-4.82666-9.82131-10.57597-12.30663-16.21596 2.76666 3.14533 5.82798 5.86665 8.90397 8.49064 3.89599 3.32266 9.74131 5.93199 15.95863 6.89865l-0.82266 7.12799" fill="#945168"/>
      <path d="m361.7671 210.00547s5.79331 9.93198 6.89598 22.06928c1.104 12.13864 0 43.31056-9.93198 56.55186-9.93064 13.2413-30.61992 9.37864-39.9999 1.37866-8.60664-7.34131-17.10262-15.44796-19.30928-31.44792s4.68932-46.34521 24.27594-52.6892c19.58528-6.34532 38.06924 4.13732 38.06924 4.13732" fill="#f57c83"/>
      <path d="m386.65237 479.00747s-0.97333 0-2.45333-0.04c-0.34667-0.0133-0.73333 0-1.13466-0.0133-1.42533-0.04-3.15866-0.0787-4.90533-0.132-0.38666-0.0147-0.78666-0.028-1.17333-0.0413-1.73332-0.04-3.21332 0.17334-4.59998 0.0947h-0.04c-0.29334-0.0147-0.72 0.0253-1.06667 0.0387-0.17333 0.0147-0.33333 0.0267-0.44 0.0147-0.8-0.148-0.95999-0.33333-1.82666-0.72-1.12-0.50799-16.28129-3.89332-28.61459-3.81465-12.31864 0.0533-23.37195 0.89333-25.17194-0.61333-1.81333-1.53333-2.90666-17.01196 7.61331-18.02663l12.9333 4.90666s29.53326-3.50533 40.3599 4.47999c10.85331 7.98664 10.51998 13.86663 10.51998 13.86663" fill="#f57c83"/>
      <path d="m372.34574 478.87547c-0.29334-0.0147-0.72 0.0253-1.06667 0.0387-0.26666-0.42534-0.828-1.2-1.13333-1.52-3.33332-3.39999-11.38664-5.59999-14.30663-6.30665-0.26667-0.0667-0.44133-0.33333-0.37333-0.59867 0.0533-0.268 0.33333-0.428 0.61333-0.37466 4.25332 1.02666 13.27997 3.65466 15.83996 7.95998 0.08 0.12 0.29333 0.53333 0.42667 0.80133" fill="#293d8a"/>
      <path d="m378.16305 478.8208c-0.38666-9e-3 -0.78666-0.02-1.17333-0.0427-3.63999-6.63732-9.59464-8.54265-16.95329-10.90931l-0.436-0.14533c-0.252-0.0853-0.40533-0.36934-0.31733-0.63333 0.0853-0.252 0.356-0.40534 0.63333-0.31867l0.42267 0.144c7.78131 2.49733 14.04263 4.50399 17.82395 11.9053" fill="#293d8a"/>
      <path d="m384.20037 478.96747c-0.34666-9e-3 -0.73333-5e-3 -1.13466-0.0147-2.20666-4.64132-9.51198-12.40797-19.17729-14.21863-0.27866-0.0467-0.46-0.304-0.41333-0.58266 0.06-0.26667 0.31733-0.44534 0.584-0.39867 9.95597 1.86933 17.98795 10.00131 20.14128 15.21463" fill="#293d8a"/>
      <path d="m306.0419 244.90272s6.06932-2.89733 10.34531-11.03464 3.72399-15.44796 3.72399-15.44796 7.72398-1.24133 19.31062 2.20666c11.5853 3.44799 25.3786 8.13865 36.96524 1.51733s11.58664-17.24129 5.93065-21.65461c-6.33332-4.94399-18.89595-1.932-18.89595-1.932s4.82665-4.68932 2.20666-7.44798c-2.62133-2.75866-12.1373 0.828-12.1373 0.828s-11.58664-9.24131-33.51725-8.13865c-21.93195 1.104-32.41459 16.41463-33.65592 33.51725-1.24133 17.10396 4.96666 34.20658 4.96666 34.20658l14.75729-6.61998" fill="#293d8a"/>
      <path d="m350.95912 273.03865c-0.25333 0-0.51866-7e-3 -0.8-0.0187-1.62399-0.0627-3.66532-0.33066-5.05865-1.20266-0.412-0.25867-0.256-0.932 0.24933-0.932h3e-3c0.86666 4e-3 1.71333 0.26534 2.57866 0.33067 0.804 0.0587 1.61733 0.0933 2.42266 0.13066 0.468 0.0213 1.02266 0.064 1.588 0.064 0.84666 0 1.71199-0.096 2.32799-0.50399 2.69333-1.78267-2.54266-3.98266-3.65066-4.79866-2.31732-1.70799-1.85199-4.65732-1.60933-7.18665 0.31334-3.25199 0.28267-6.80931 1.52533-9.87331 0.0893-0.21866 0.31867-0.33466 0.53067-0.33466 0.24 0 0.46 0.148 0.432 0.46533-0.35067 3.90399-1.25333 7.75731-1.49866 11.67997-0.104 1.632-0.224 3.39199 1.23599 4.43732 1.05333 0.75467 2.33333 1.11467 3.37733 1.888 0.90533 0.672 1.80799 1.75066 1.64666 2.95332-0.14133 1.06934-1.01333 1.7-1.91333 2.14667-1.208 0.59999-2.17066 0.75466-3.38666 0.75466" fill="#945168"/>
      <path d="m361.8111 258.22135c-0.412 2.32533-2.10267 3.96933-3.77866 3.67333-1.67466-0.296-2.69866-2.42266-2.288-4.74666 0.412-2.32532 2.10267-3.97065 3.77866-3.67465 1.67466 0.296 2.69999 2.42266 2.288 4.74798" fill="#293d8a"/>
      <path d="m340.70315 256.37869c-0.37333 2.50933-2.14 4.32399-3.94799 4.05599-1.808-0.26933-2.97066-2.52132-2.59733-5.02932 0.37333-2.50933 2.14133-4.32532 3.94932-4.05599 1.80667 0.26933 2.96933 2.52133 2.596 5.02932" fill="#293d8a"/>
      <path d="m356.89644 248.63605c1.28933 0.21733 2.59066-5e-3 3.89066 0.0867 0.31333 0.0213 0.62133 0.068 0.93466 0.0987 0.22134 0.02-0.41466-0.0667-0.10533-0.016l0.19867 0.0333c0.16266 0.0293 0.32533 0.0627 0.48533 0.10133 0.27733 0.068 0.54533 0.172 0.82266 0.23334 0.252 0.0547 0.532 0.11333 0.78533 0.10133 0.14267-0.0187 0.28267-0.0373 0.42534-0.0573l-0.268 0.0493 0.528-0.0573c0.73999-0.17334 1.19599-1.02933 0.98933-1.744-0.06-0.20533-0.15067-0.392-0.28134-0.56133l-0.16933-0.21467 0.156 0.17867-0.17067-0.22667c-0.0733-0.12266-0.17066-0.22133-0.29466-0.29466l-0.312-0.23734c-0.34133-0.23733-0.79067-0.37599-1.196-0.47999-0.76933-0.19867-1.57733-0.3-2.36933-0.304-0.78933-4e-3 -1.56799 0.0787-2.34799 0.18666-0.688 0.0947-1.45333 0.32934-2.01199 0.744-0.43067 0.32133-0.696 0.73333-0.62134 1.29733 0.0627 0.46667 0.43067 0.99733 0.932 1.08267" fill="#293d8a"/>
      <path d="m342.18314 244.94539c-0.17466-0.104-0.35333-0.19467-0.53866-0.27867-0.156-0.0707-0.58267-0.29466-0.26-0.11866l-0.35467-0.18934c-0.53466-0.26933-1.08933-0.44933-1.66666-0.596-1.25866-0.32133-2.58399-0.40266-3.87466-0.26666-1.37733 0.14533-2.63466 0.47866-3.82799 1.19733-0.168 0.10266-0.34133 0.20133-0.48133 0.34133-0.0947 0.12-0.188 0.24133-0.27866 0.364l0.0787-0.12c-0.368 0.25733-0.58266 0.67867-0.57866 1.124 3e-3 0.428 0.22533 0.78533 0.59733 0.99199 0.44933 0.25067 0.876 0.13067 1.34 0.012h-0.69867c0.38267 0.0587 0.652 0.0747 1.03866-0.0107 0.0147-3e-3 0.372-0.092 0.136-0.0427-0.22133 0.048 0.376-0.0453 0.44134-0.0547 0.076-0.0107 0.49066-0.052 0.052-9e-3l0.24266-0.028c0.20667-0.0253 0.416-0.052 0.624-0.068 0.91067-0.0733 1.81866-0.11466 2.73066-0.144 0.84667-0.028 1.70933-0.0347 2.55466 1e-3 0.364 0.016 0.724 0.028 1.088 0.0387 0.20266 5e-3 0.11733 0.0373-0.0227-7e-3l0.22667 0.0587c0.15066 0.0413 0.29866 0.0907 0.444 0.14667 0.58933 0.224 1.29466-0.20133 1.51199-0.74267 0.23734-0.58933 0.036-1.26666-0.524-1.59999" fill="#293d8a"/>
      <path d="m348.73246 283.29329c1.26666-2.54533 3.56933-4.41065 6.23199-5.61065-2.31066-0.23467-13.22397-1.24533-15.9773 0.31866-3.08532 1.75067 0.57067 8.78398 6.94932 9.13732 0.67066 0.0373 1.28-0.0173 1.85999-0.108 0.052-1.284 0.348-2.55466 0.936-3.73733" fill="#293d8a"/>
      <path d="m298.31792 268.48933s1.104 4.27599 7.44798 9.24131c6.34532 4.96532 15.5413 8.59731 15.5413 8.59731l0.73466-3.21866s-9.51731-4.13865-13.93063-8.68931c-4.41332-4.55199-4.96532-7.03465-4.96532-7.03465l-4.82799 1.104" fill="#d6dceb"/>
      <path d="m323.14586 280.72796c5.10665-0.23733 7.95598 3.8 8.31198 6.41199 0.356 2.61333-2.09733 5.54265-7.83732 2.96932-7.12931-3.19599-5.57998-9.14397-0.47466-9.38131" fill="#293d8a"/>
      <path d="m302.31791 236.90274s2.20533-15.85329 12.82797-26.62127c20.27595-20.55061 37.51724-19.31061 37.51724-19.31061s-0.13867-2.896-6.62132-5.10266c-6.08665-2.07199-8.82664-0.96533-8.82664-0.96533s-16.69063 1.37866-30.75859 16.96529c-14.0693 15.58663-15.58663 35.44791-15.58663 35.44791l11.44797-0.41333" fill="#d6dceb"/>
      <path d="m300.80058 234.97075c-13.28263-2.25067-20.68928 8.13864-21.24128 18.62128s7.06532 18.45196 17.24129 17.65463c22.89728-1.792 20.27595-33.51592 3.99999-36.27591" fill="#fff"/>
      <path d="m294.18726 261.06001c-3.50665 0-6.47065-1.76266-8.16398-4.86532-1.81466-3.32399-1.66266-7.41598 0.388-10.4253 0.156-0.22534 0.46534-0.28534 0.69467-0.13067 0.228 0.156 0.288 0.46666 0.132 0.69466-1.84133 2.70133-1.97333 6.38399-0.33733 9.38131 1.55333 2.84533 4.29465 4.45733 7.54131 4.34133 3.03466-0.0813 5.60665-1.46933 7.24265-3.90933 1.86666-2.78532 2.29599-6.63065 1.09333-9.79597-1.19333-3.14133-4.46532-5.28266-7.43998-4.89332-0.26933 0.0347-0.52533-0.156-0.56133-0.43067-0.0373-0.27333 0.15466-0.524 0.42933-0.56133 3.47999-0.464 7.13465 1.91466 8.50664 5.52932 1.31467 3.45999 0.844 7.66265-1.19733 10.70797-1.82133 2.71733-4.67865 4.26266-8.04664 4.35332l-0.28134 4e-3" fill="#7588bb"/>
      <path d="m284.52462 304.35057s-40.27456 9.93064-54.34386 25.9306-20.68928 94.8971-20.96528 109.51706c-0.276 14.6213 9.93064 20.69062 15.99996 24.82794 6.06932 4.13866 32.82658 11.58664 54.34386 12.69064 21.51728 1.10266 41.9319 0 41.9319 0s-0.0693-4.69066 3.23999-11.58797c3.07066-6.39599 6.96665-7.72399 6.96665-7.72399l-18.48262-6.61998s-3.23599-57.99185-8.27598-86.06778c-5.79332-32.27726-20.41462-60.96652-20.41462-60.96652" fill="#293d8a"/>
      <path d="m351.28446 442.11956-0.27067-0.0573c-0.33733-0.14933-0.48933-0.54267-0.34-0.87867 3.77466-8.51464 7.68398-25.22927 9.88664-36.9559l0.18-0.948c0.66667-3.44933 1.496-7.73865-0.15866-10.69997-0.844-1.51067-2.74933-4.78799-4.58266-7.93865-1.90266-3.27066-3.69999-6.36132-4.19866-7.28265-0.97066-1.80133 2.088-6.61198 6.51599-13.21063 1.19466-1.784 2.22933-3.324 2.83199-4.36666 1.57866-2.73066 0.52667-5.23199-0.68933-8.12798l-0.41333-0.99733c-1.10267-2.70799-2.35733-5.41999-3.56799-8.04265-0.49467-1.07066-0.99067-2.14399-1.47867-3.22266-0.648-1.42532-1.29733-2.87599-1.95599-4.34265-3.89866-8.69065-7.92932-17.67596-13.09197-26.35727-0.188-0.316-0.084-0.72533 0.232-0.91333 0.31733-0.18667 0.72533-0.084 0.91466 0.23333 5.19999 8.74531 9.24665 17.76663 13.1613 26.4906 0.65734 1.46667 1.30667 2.91466 1.95333 4.33999 0.488 1.07467 0.98133 2.14533 1.47467 3.21333 1.21866 2.63599 2.47866 5.36265 3.59332 8.09864l0.408 0.984c1.24133 2.95333 2.52399 6.00799 0.61333 9.31065-0.62533 1.08266-1.66933 2.63999-2.87866 4.44132-2.30799 3.44132-7.11331 10.60397-6.44932 11.83463 0.488 0.904 2.28 3.98533 4.17733 7.24665 1.83733 3.15866 3.74799 6.44399 4.59465 7.95865 1.89333 3.38666 1.012 7.94265 0.30533 11.60397l-0.18133 0.94c-0.80266 4.27065-5.05065 26.13593-9.97597 37.24924-0.11067 0.25067-0.35467 0.39733-0.60933 0.39733" fill="#788cbd"/>
      <path d="m311.97389 444.46489c-0.172 0-0.344-0.0653-0.47334-0.196-3.13465-3.15999-18.25195-29.33459-19.37728-34.25725-0.616-2.69466 0.93066-9.52931 2.42666-16.13996 1.15866-5.12132 2.35733-10.41731 2.016-11.85064-0.50934-2.14266-4.37466-5.30132-8.11332-8.35464-4.51599-3.68799-9.18531-7.50398-10.08931-10.93997-1.02799-3.90533-0.14933-28.3546 0.432-44.53189 0.20934-5.81732 0.37467-10.41198 0.37334-12.05064 0-0.368 0.29866-0.66666 0.66666-0.66666s0.66667 0.29733 0.66667 0.66533c1e-3 1.66399-0.164 6.26932-0.37467 12.09997-0.54267 15.12129-1.452 40.4279-0.47467 44.14522 0.79467 3.01599 5.49599 6.85732 9.64398 10.24664 4.09066 3.34133 7.95331 6.49732 8.56665 9.07865 0.41199 1.73332-0.712 6.70131-2.01333 12.45196-1.39467 6.16399-2.97466 13.14931-2.42666 15.5493 1.10399 4.82665 15.94529 30.51192 19.02395 33.61325 0.25866 0.26266 0.25733 0.684-4e-3 0.94266-0.13067 0.12934-0.3 0.19467-0.46933 0.19467" fill="#788cbd"/>
      <path d="m257.76736 433.01692-0.0933-7e-3c-0.36533-0.052-0.61866-0.38933-0.568-0.75333 0.48934-3.46799 8.14265-72.53449 8.49332-77.82381 0.0253-0.36933 0.34266-0.65733 0.71066-0.62133 0.36667 0.024 0.644 0.34267 0.62 0.70933-0.352 5.29866-8.01331 74.45048-8.50398 77.92248-0.0467 0.33199-0.332 0.57333-0.65866 0.57333" fill="#788cbd"/>
      <path d="m312.66322 451.7742-0.25067-0.048c-1.69599-0.68666-9.18797-3.21465-18.67328-6.41198-19.14396-6.45732-45.36389-15.29863-50.34921-17.88929-0.32667-0.16933-0.45333-0.572-0.284-0.89866 0.16933-0.328 0.56933-0.45867 0.89866-0.284 4.89466 2.54266 32.13592 11.7293 50.16121 17.80662 9.50664 3.20799 17.01463 5.73865 18.74795 6.44132 0.34134 0.13866 0.50534 0.52666 0.36667 0.86799-0.10533 0.25867-0.35467 0.416-0.61733 0.416" fill="#788cbd"/>
      <path d="m303.45657 479.27547c-16.84795 0-49.51187-3.03733-74.32514-11.81331-0.348-0.124-0.52933-0.50399-0.40667-0.85199 0.12133-0.34534 0.50667-0.528 0.85067-0.40534 31.34658 11.08798 75.19714 12.98131 83.35579 11.14931 0.35866-0.0773 0.71466 0.14667 0.796 0.50533 0.0813 0.35867-0.14534 0.716-0.504 0.79733-1.76667 0.39467-5.18132 0.61867-9.76665 0.61867" fill="#788cbd"/>
    </g>
    <g id="plant">
      <path d="m110.61279 313.65322c5.23065 4.59998 11.85517 7.54931 16.44529 12.8693 1.8056 2.09333 3.42799 4.32132 5.10519 6.51598 1.2204 1.59733 4.47772 4.24666 5.00572 6.25465 0.23333 0.884 0.184-0.31333-0.0507-1.2l-0.0387-0.11066c-0.45867-4.06532-0.78667-8.14665-0.92933-12.23597-0.14267-4.07866 0.112-8.17331-0.144-12.2453-0.36-5.74532-2.15333-11.30798-6.84932-14.90663-2.29533-1.76-5.24479-2.83066-7.35518-4.78266-2.00266-1.85333-1.19906-3.97599-0.0215-6.04265 1.1016-1.93466 2.4376-3.83466 2.86666-6.06132 0.48813-2.53066-0.46293-5.14132-1.74679-7.29598-2.7312-4.58665-8.79012-9.69998-14.52703-9.01464-4.78546 0.572-5.32759 6.09198-5.25946 9.9373 0.0667 3.73866 0.43653 7.46532 0.472 11.20664 0.0375 3.84266-0.61626 7.61332-0.67093 11.43864-0.0927 6.50799 2.91413 11.46664 7.69798 15.6733" fill="#60a6df"/>
      <path d="m159.2116 373.3624c1.456-3.47332 3.12666-6.71998 5.18132-9.87864 2.81866-4.33332 5.94532-8.55598 7.83732-13.4093 1.93332-4.95466 1.64933-10.25331 1.83999-15.47196 0.13867-3.83333 1.27866-7.65732 0.97067-11.50131-0.14667-1.84399-1.20933-4.82665-3.59466-4.52132-1.856 0.23733-2.95866 2.53866-3.67199 4.00666-1.24533 2.56266-2.108 5.29598-3.03333 7.98398-0.36 1.05199-0.70533 2.12266-1.16133 3.13732-0.26533 0.59067-1.10933 2.03066-1.90533 1.83466-1.35599-0.33466-0.12533-5.86931 0.076-6.84931 1.012-4.92266 2.536-9.49731 2.748-14.56263 0.30666-7.34398-0.264-16.08663-7.44665-20.10262-1.87866-1.04933-4.25733-1.67466-6.04132-0.104-1.76 1.548-2.25733 4.23332-2.51866 6.44265-0.80133 6.78265 0.79466 13.2053 2.96799 19.58662 1.79466 5.26932 3.93332 10.70664 4.08932 16.34129 0.15067 5.42399-2.67199 10.23064-3.99599 15.35463-2.11066 8.16531-1.67466 12.49464-1.68399 15.13863-0.0147 3.31332 0.10667 6.59065 0.348 9.89331 0.224 3.03599 0.48666 6.07332 0.85733 9.09464 0.076 0.612 0.14533 1.25067 0.22667 1.88933-1.16667-2.80933-1.57467-6.02665-2.54133-8.84931-1.716-5.01865-3.71066-9.93331-5.35866-14.97596-1.36133-4.16666-2.64666-8.36132-4.44532-12.36664-1.68533-3.75866-3.72132-7.73065-6.86638-10.48797-1.90106-1.66666-4.20572-2.64133-6.74838-2.62133-1.62613 0.012-3.0876 0.57467-4.64066 0.98533-1.91146 0.50533-3.41506 0.33067-4.98745-0.87733-5.14799-3.95732-6.71359-11.05197-10.52451-16.06263-2.84266-3.73732-9.586909-10.10797-14.546363-6.03198-2.63066 2.16133-3.356125 6.33865-3.218126 9.54131 0.173333 4.01732 1.929062 7.69198 4.020257 11.05197 2.223994 3.57199 5.094787 6.77065 7.138512 10.44397 1.2084 2.16933 1.39747 4.24799 1.2052 6.69599-0.18013 2.30533-0.38173 4.53865 0.40413 6.76265 2.36 6.67865 9.72918 5.74665 15.4605 5.92132 4.01039 0.12133 8.31291 0.71866 12.12023 2.00132 4.40053 1.48133 7.26305 4.34533 8.83638 8.69732 1.13733 3.15066 1.74666 6.72665 3.89066 9.40264 1.008 1.25866 2.34266 2.18799 3.81066 2.83733 2.23466 0.98666 9.04931 1.41866 9.09997 0.79599 0.168-2.08399 1.156-4.28265 1.77467-6.25998 1.15999-3.70799 2.52399-7.32532 4.02665-10.90664" fill="#60a6df"/>
      <path d="m190.85286 372.10374c-0.59334-3.81866-0.48-8.02665-2.288-11.53331-0.12933-0.25066-0.47066-0.31466-0.704-0.18533-1.29599 0.71866-1.34933 2.81199-1.45599 4.09466-0.17467 2.12799-0.044 4.26132-0.30667 6.38398-0.45866 3.72799-1.32 7.57065-2.66399 11.08397-1.51866 3.97599-4.28266 6.22932-8.29598 7.47065-2.57866 0.796-5.10799 1.49066-7.25998 3.20133-1.928 1.53332-3.26666 3.64665-4.25999 5.87198-2.67866 6.00932-3.95466 12.72664-5.19732 19.14662-0.836 4.32266-1.51867 8.66531-2.568 12.9453-1.04933 4.27599-2.17599 8.53065-2.77732 12.89997-0.10134 0.22-0.20934 0.43866-0.30267 0.66133-0.27466 0.65333 0.74667 1.00666 1.09867 0.46267 4.14398-6.37732 9.19064-12.10131 16.07596-15.6133 3.10932-1.58533 7.23998-1.91466 9.8333-4.40665 1.97333-1.896 2.244-4.78933 1.94933-7.36799-0.388-3.38799-2.01066-6.17598-3.70266-9.06264-0.92799-1.58666-2.02532-3.28533-1.65066-5.21332 0.35333-1.81866 1.86533-3.15466 3.36533-4.08666 2.86266-1.77733 6.20932-2.57732 8.55331-5.13865 2.17733-2.37866 3.38399-5.33865 3.62532-8.54398 0.32134-4.27199-0.41466-8.85198-1.06799-13.07063" fill="#60a6df"/>
      <path d="m134.365 394.12101c-3.65546-4.70932-8.06838-8.77064-13.0325-12.06797-2.64893-1.75866-8.89838-5.22932-10.15931-0.04-0.7396 3.04133 2.23693 6.03332 4.19585 7.93999 2.94426 2.86532 6.34946 5.33732 8.83332 8.63997-3.0756 0.98-6.28905 1.172-8.96145 3.29733-3.16359 2.51866-4.58279 7.37998-1.44586 10.46397 1.52866 1.50267 3.55572 2.42533 5.45932 3.34799 2.47453 1.19733 4.99479 2.284 7.53131 3.344 5.47706 2.28666 11.02331 4.60798 15.69396 8.35597 4.75999 3.81866 9.23598 10.27598 9.61331 16.50663 0.0373 0.59467-0.18933 0.0533 0.16534-0.21867 0.19466 0.17467 0.84799-0.13866 0.84399-0.48533-0.0973-9.24664-1.75866-18.04929-5.53732-26.5186-3.50132-7.85198-7.91998-15.76263-13.19996-22.56528" fill="#60a6df"/>
      <path d="m121.73823 308.04923c2.01666 4.18666 4.12546 8.27598 6.36452 12.3573 2.15479 3.92933 4.30785 7.82932 5.91958 12.02131 1.98533 5.16132 4.06666 10.2453 6.16532 15.36129 2.18133 5.31732 4.13066 10.73597 5.69465 16.26663 3.05333 10.79864 5.32132 21.91328 6.44265 33.08125 0.57067 5.67998 0.82933 11.3933 0.67333 17.09862-0.12266 4.45999-0.62533 8.87065-1.04399 13.30797-0.436 4.61465-0.75067 9.28531-0.364 13.9173 0.32266 3.87199 0.93866 8.47464 3.94399 11.2373 0.58666 0.54133 1.41999-0.13333 1.07866-0.832-3.57066-7.32264-3.37066-15.30662-2.68799-23.2466 0.37733-4.38399 0.9-8.74398 1.048-13.14397 0.188-5.59865-0.032-11.20797-0.55867-16.78396-1.036-10.96131-3.22132-21.79195-6.05598-32.42125-1.45467-5.44932-3.25333-10.79331-5.32532-16.0413-2.07867-5.25732-4.47733-10.37064-6.49065-15.65462-3.64-9.55598-9.18905-18.02929-14.10304-26.9346-0.2552-0.46267-0.92559-0.056-0.70106 0.40933" fill="#3e579e"/>
      <path d="m152.48895 386.18903c0.57733-6.95864 1.19333-13.65996 3.53999-20.29861 1.09333-3.09599 2.42-6.10665 3.47599-9.21465 0.872-2.56932 2.17733-6.09198 1.50533-8.82264-0.0747-0.30533-0.51866-0.28933-0.60266 0-0.44933 1.56-0.4 3.27066-0.72267 4.86932-0.316 1.556-0.73599 3.08666-1.21999 4.59866-1.02933 3.21599-2.37466 6.29731-3.53999 9.46264-2.25067 6.11465-3.40666 12.88797-2.91466 19.40528 0.0227 0.308 0.45333 0.308 0.47866 0" fill="#3e579e"/>
      <path d="m112.16372 346.19713c2.76253 6.67332 11.06624 7.05865 17.11409 8.55332 4.31919 1.06666 7.50718 3.94799 9.79651 7.68798 2.50666 4.09199 4.20132 8.89597 5.59465 13.46263l0.0813-0.0213c-1.69199-7.99865-4.11598-17.62929-12.36103-21.35062-6.60732-2.98266-15.3141-1.48399-19.54009-8.62131-0.20773-0.35066-0.85253-0.11466-0.68546 0.28933" fill="#3e579e"/>
      <path d="m148.1223 385.13304c0.32933 0.444 0.63066 0.90799 0.96933 1.34266 0.168 0.216 0.33866 0.41867 0.55066 0.592 0.21734 0.17733 0.47067 0.39733 0.768 0.392 0.124-3e-3 0.21067-0.14 0.144-0.25067-0.136-0.22266-0.38267-0.35733-0.57466-0.52666-0.19867-0.17467-0.4-0.34667-0.592-0.52667-0.38667-0.36533-0.74-0.76266-1.11733-1.136l-0.148 0.11334" fill="#3e579e"/>
      <path d="m130.84914 406.30232c4.76519 3.91065 9.16118 8.53864 12.65317 13.6093 1.66933 2.42399 3.21066 4.98932 4.60799 7.57864 1.52666 2.82933 2.52799 5.81866 3.72399 8.78532 0.0907 0.22533 0.50266 0.23066 0.47066-0.0627-0.66133-6.27598-4.63599-11.65597-7.81998-16.87729-1.65333-2.71199-3.70932-4.89866-5.91998-7.15998-2.28266-2.336-4.60932-4.54533-7.28558-6.42932-0.3256-0.22933-0.7412 0.3-0.43027 0.556" fill="#3e579e"/>
      <path d="m168.79024 398.91434c-2.29466 1.29999-2.36932 4.92532-2.41466 7.23998-0.0867 4.44665 1.01467 8.62264-0.93733 12.85997-1.76266 3.82799-4.57865 7.02398-6.79198 10.57864-2.07333 3.32665-4.11732 7.57998-4.07199 11.5853 3e-3 0.23067 0.35733 0.36267 0.46533 0.12667 0.83467-1.81867 1.13467-3.88399 1.73333-5.78932 0.672-2.14266 1.61066-4.08799 2.82666-5.97199 2.13066-3.30132 4.74532-6.30665 6.47465-9.85731 1.82133-3.74265 1.55466-7.44931 1.43333-11.50397-0.076-2.58532-0.33466-6.73998 1.74933-8.66264 0.328-0.30133-0.0907-0.81733-0.46667-0.60533" fill="#3e579e"/>
      <path d="m153.44628 441.59156c-9.24397-0.128-26.8518-0.22933-26.8518-0.22933l4.35733 32.34925c0.97959 7.27732 7.19184 12.70797 14.53449 12.70797h15.9173c7.34398 0 13.55596-5.43065 14.53596-12.70797l4.35732-32.34925s-17.60795 0.10133-26.8506 0.22933" fill="#fff"/>
    </g>
    <g id="laptop">
      <path d="m600.24917 382.14371-52.73721 104.45841-153.74494 1.10533 47.44788-107.03574 159.03427 1.472" fill="#f5f6f9"/>
      <path d="m291.72727 487.05545 0.0293-8.35998h99.52776l45.79188-100.41442h159.1716l4.00133 3.86266h-155.49425l-47.58655 104.82774s-105.44107-0.19067-105.44107 0.084" fill="#d1d8e8"/>
      <path d="m520.41203 439.78623c-1.73733 5.21066-11.16397 9.23465-21.05595 8.98665-9.89197-0.24667-16.50262-4.67066-14.76662-9.88264 1.73732-5.20932 11.16397-9.23331 21.05594-8.98531 9.89198 0.24799 16.50396 4.67198 14.76663 9.8813" fill="#d1d8e8"/>
      <path d="m397.16967 487.63811-0.276-0.06c-0.33466-0.152-0.48399-0.54666-0.33199-0.88266l47.76388-105.2184h155.92361c0.36933 0 0.66666 0.29733 0.66666 0.66666 0 0.368-0.29733 0.66667-0.66666 0.66667h-155.06495l-47.40788 104.43707c-0.11067 0.244-0.35467 0.39066-0.60667 0.39066" fill="#fff"/>
    </g>
    <g id="table">
      <path d="m101.81428 535.52199h182.89554v-40.55043h-182.89554z" fill="#4f68a9"/>
      <path d="m283.66462 535.52199h329.06585v-40.55043h-329.06585z" fill="#6f83b8"/>
      <path d="m101.81428 502.41941h181.85021v-7.4479h-181.85021z" fill="#3d5192"/>
      <path d="m612.73047 502.41941h-329.06585v-7.44798h329.06585v7.44798" fill="#5165a1"/>
      <path d="m292.70993 496.90209h-199.723229v-9.93064h199.723229v9.93064" fill="#647ab4"/>
      <path d="m620.73045 496.90209h-329.06451v-9.93064h329.06451v9.93064" fill="#8e9ec7"/>
    </g>
    <g class="objects">
      <path d="m238.62474 274.21065h-64.56518c-3.99599 0-7.23464-3.23866-7.23464-7.23465v-32.23325c0-3.99466 3.23865-7.23465 7.23464-7.23465h64.56518c3.99465 0 7.23465 3.23999 7.23465 7.23465v32.23325c0 3.99599-3.24 7.23465-7.23465 7.23465" fill="#fff"/>
      <path d="m264.25934 250.86004-24.24927-10.23197v20.46394z" fill="#fff"/>
      <path d="m195.49151 250.86004c0 2.46666-1.99999 4.46532-4.46665 4.46532s-4.46666-1.99866-4.46666-4.46532c0-2.46799 2-4.46666 4.46666-4.46666s4.46665 1.99867 4.46665 4.46666" fill="#293d8a"/>
      <path d="m210.80881 250.86004c0 2.46666-2 4.46532-4.46666 4.46532s-4.46665-1.99866-4.46665-4.46532c0-2.46799 1.99999-4.46666 4.46665-4.46666s4.46666 1.99867 4.46666 4.46666" fill="#293d8a"/>
      <path d="m226.1261 250.86004c0 2.46666-1.99999 4.46532-4.46665 4.46532s-4.46666-1.99866-4.46666-4.46532c0-2.46799 2-4.46666 4.46666-4.46666s4.46665 1.99867 4.46665 4.46666" fill="#293d8a"/>
    </g>
    <g class="objects">
      <path d="m567.32925 128.35101h-149.05696c-9.57331 0-17.33329 7.75998-17.33329 17.33329v70.71316c0 9.57198 7.75998 17.33329 17.33329 17.33329h13.35996c0.376 6.40932-0.54266 15.94529-5.89598 28.13726 17.22129-7.94398 27.1386-19.87195 32.31858-28.13726h109.2744c9.57197 0 17.33329-7.76131 17.33329-17.33329v-70.71316c0-9.57331-7.76132-17.33329-17.33329-17.33329" fill="#599fdc"/>
      <path d="m503.74274 162.05226h-73.93048c-2.03066 0-3.67866-1.64666-3.67866-3.67732 0-2.032 1.648-3.67866 3.67866-3.67866h73.93048c2.032 0 3.67866 1.64666 3.67866 3.67866 0 2.03066-1.64666 3.67732-3.67866 3.67732" fill="#fff"/>
      <path d="m556.75461 183.47754h-128.36768c-1.244 0-2.25333-1.008-2.25333-2.25199 0-1.244 1.00933-2.25333 2.25333-2.25333h128.36768c1.24399 0 2.25333 1.00933 2.25333 2.25333 0 1.24399-1.00934 2.25199-2.25333 2.25199" fill="#c3e4f7"/>
      <path d="m556.75461 195.98418h-128.36768c-1.244 0-2.25333-1.00933-2.25333-2.25333s1.00933-2.25333 2.25333-2.25333h128.36768c1.24399 0 2.25333 1.00933 2.25333 2.25333s-1.00934 2.25333-2.25333 2.25333" fill="#c3e4f7"/>
      <path d="m528.75201 209.31748h-100.36508c-1.244 0-2.25333-1.00933-2.25333-2.25333s1.00933-2.25333 2.25333-2.25333h100.36508c1.24533 0 2.25466 1.00933 2.25466 2.25333s-1.00933 2.25333-2.25466 2.25333" fill="#c3e4f7"/>
      <path d="m555.74661 162.05226h-35.26791c-2.03066 0-3.67866-1.64666-3.67866-3.67732 0-2.032 1.648-3.67866 3.67866-3.67866h35.26791c2.032 0 3.67732 1.64666 3.67732 3.67866 0 2.03066-1.64532 3.67732-3.67732 3.67732" fill="#fff"/>
    </g>
    <g class="objects">
      <path d="m466.8575 324.67319h-40.04523c-1.47333 0-2.66666-1.19467-2.66666-2.66666v-27.35727c0-1.47199 1.19333-2.66666 2.66666-2.66666h40.04523c1.47333 0 2.66666 1.19467 2.66666 2.66666v27.35727c0 1.47199-1.19333 2.66666-2.66666 2.66666" fill="#fff"/>
      <path d="m447.11222 313.21322c-0.22534 0-0.452-0.0773-0.63734-0.22934l-21.79461-18.00128c-0.42533-0.352-0.48533-0.98133-0.13333-1.408 0.35333-0.42533 0.984-0.484 1.40666-0.13333l21.14128 17.45995 20.60128-17.92662c0.416-0.36133 1.048-0.31733 1.41067 0.0987 0.36266 0.41733 0.31866 1.04799-0.0987 1.41066l-21.23995 18.48262c-0.188 0.164-0.42266 0.24667-0.65599 0.24667" fill="#647ab4"/>
      <path d="m425.3176 323.92652c-0.248 0-0.496-0.092-0.68933-0.276-0.4-0.38133-0.416-1.01333-0.0347-1.41333l15.24262-16.02396c0.37734-0.40133 1.01333-0.41733 1.412-0.036 0.40133 0.38134 0.41733 1.01334 0.036 1.41467l-15.24263 16.02396c-0.196 0.20666-0.46 0.31066-0.724 0.31066" fill="#647ab4"/>
      <path d="m468.35216 323.33986c-0.256 0-0.512-0.0973-0.708-0.29333l-15.18129-15.22263c-0.38933-0.39067-0.38933-1.02533 3e-3 -1.41467 0.39199-0.39066 1.02533-0.38933 1.41466 1e-3l15.18129 15.22263c0.38934 0.39199 0.38934 1.02533-3e-3 1.41466-0.196 0.19467-0.45067 0.292-0.70667 0.292" fill="#647ab4"/>
      <path d="m484.98412 290.97061c0 7.38931-5.98932 13.37996-13.37863 13.37996-7.38932 0-13.37864-5.99065-13.37864-13.37996 0-7.38799 5.98932-13.37864 13.37864-13.37864 7.38931 0 13.37863 5.99065 13.37863 13.37864" fill="#f1494a"/>
      <path d="m467.77182 291.3985q-0.84375 0-1.29687 0.46094-0.45313 0.46093-0.45313 1.32031 0 0.85937 0.45313 1.32031 0.45312 0.45313 1.29687 0.45313 0.83594 0 1.28125-0.45313 0.44531-0.46094 0.44531-1.32031 0-0.86719-0.44531-1.32031-0.44531-0.46094-1.28125-0.46094zm-2.19531-0.99219q-1.0625-0.32031-1.60156-0.98437-0.53907-0.66407-0.53907-1.65625 0-1.47657 1.10157-2.25 1.10156-0.77344 3.23437-0.77344 2.11719 0 3.21875 0.77344 1.10156 0.76562 1.10156 2.25 0 0.99218-0.54687 1.65625-0.53906 0.66406-1.60156 0.98437 1.1875 0.32813 1.78906 1.07031 0.60937 0.73438 0.60937 1.85938 0 1.73437-1.15625 2.625-1.14843 0.88281-3.41406 0.88281-2.27344 0-3.4375-0.88281-1.15625-0.89063-1.15625-2.625 0-1.125 0.60156-1.85938 0.60938-0.74218 1.79688-1.07031zm0.70312-2.33594q0 0.69532 0.38282 1.07032 0.39062 0.375 1.10937 0.375 0.70313 0 1.08594-0.375t0.38281-1.07032q0-0.69531-0.38281-1.0625-0.38281-0.375-1.08594-0.375-0.71875 0-1.10937 0.375-0.38282 0.375-0.38282 1.0625z" fill="#fff"/>
      <path d="m473.30435 284.95319h7.47656v2.21093h-5.07812v1.80469q0.34375-0.0937 0.6875-0.14062 0.35156-0.0547 0.72656-0.0547 2.13281 0 3.32031 1.07031 1.1875 1.0625 1.1875 2.96875 0 1.89063-1.29687 2.96094-1.28906 1.07031-3.58594 1.07031-0.99219 0-1.96875-0.19531-0.96875-0.1875-1.92969-0.57813v-2.36718q0.95313 0.54687 1.80469 0.82031 0.85938 0.27344 1.61719 0.27344 1.09375 0 1.71875-0.53125 0.63281-0.53907 0.63281-1.45313 0-0.92187-0.63281-1.45312-0.625-0.53125-1.71875-0.53125-0.64844 0-1.38281 0.17187-0.73438 0.16406-1.57813 0.51563z" fill="#fff"/>
    </g>
    <g class="objects">
      <path d="m605.98249 286.04662h-78.16114c-2.94533 0-5.33332-2.388-5.33332-5.33332v-12.2293c0-2.94533 2.38799-5.33332 5.33332-5.33332h78.16114c2.94532 0 5.33332 2.38799 5.33332 5.33332v12.2293c0 2.94532-2.388 5.33332-5.33332 5.33332" fill="#293d8a"/>
      <path d="m533.464 280.60263c-0.35067 0-0.632-0.124-0.84533-0.37466-0.21333-0.24934-0.30667-0.56267-0.28-0.93733l0.336-2.96533-0.036-0.14933-0.188 0.0373-2.44 1.76266c-0.29999 0.22533-0.61333 0.308-0.93866 0.244-0.324-0.0613-0.58666-0.256-0.78666-0.58133-0.22534-0.4-0.26934-0.75067-0.132-1.05066 0.136-0.3 0.36933-0.512 0.69333-0.63734l2.73999-1.23866 0.11333-0.112-0.11333-0.11333-2.73999-1.23867c-0.34933-0.14933-0.57467-0.38666-0.67333-0.71199-0.10134-0.32534-0.0627-0.65067 0.112-0.976 0.2-0.32533 0.46266-0.51867 0.78666-0.58267 0.32533-0.0613 0.63867 8e-3 0.93866 0.208l2.44 1.80133 0.188 0.036 0.036-0.14933-0.336-2.96533c-0.0267-0.37466 0.0733-0.688 0.3-0.93733 0.22533-0.25067 0.52533-0.37466 0.9-0.37466 0.35066 0 0.63733 0.12399 0.86266 0.37466 0.22533 0.24933 0.31333 0.56267 0.26267 0.93733l-0.33734 2.96533 0.0373 0.14933 0.18933-0.036 2.43866-1.76399c0.29867-0.22667 0.61867-0.30667 0.95733-0.24534 0.336 0.064 0.592 0.25734 0.768 0.58267 0.22533 0.4 0.26933 0.75066 0.12933 1.05066-0.136 0.3-0.368 0.51333-0.69333 0.63733l-2.73866 1.23867-0.112 0.11333 0.112 0.112 2.73866 1.23866c0.352 0.14934 0.58267 0.388 0.69333 0.712 0.11334 0.32667 0.0707 0.652-0.12933 0.976-0.176 0.32533-0.432 0.52-0.768 0.58133-0.33866 0.064-0.65866-7e-3 -0.95733-0.20533l-2.43866-1.80133-0.18933-0.0373-0.0373 0.14933 0.33734 2.96533c0.0507 0.37466-0.044 0.68799-0.28 0.93733-0.24 0.25066-0.54533 0.37466-0.92 0.37466" fill="#fff"/>
      <path d="m549.62929 280.60263c-0.34933 0-0.63066-0.124-0.844-0.37466-0.21333-0.24934-0.30666-0.56267-0.28133-0.93733l0.33733-2.96533-0.0373-0.14933-0.18666 0.0373-2.44 1.76266c-0.3 0.22533-0.61333 0.308-0.93866 0.244-0.324-0.0613-0.58667-0.256-0.78667-0.58133-0.22533-0.4-0.26933-0.75067-0.132-1.05066 0.136-0.3 0.368-0.512 0.69333-0.63734l2.74-1.23866 0.11333-0.112-0.11333-0.11333-2.74-1.23867c-0.34933-0.14933-0.57466-0.38666-0.67466-0.71199-0.1-0.32534-0.0613-0.65067 0.11333-0.976 0.2-0.32533 0.46267-0.51867 0.78667-0.58267 0.32533-0.0613 0.63866 8e-3 0.93866 0.208l2.44 1.80133 0.18666 0.036 0.0373-0.14933-0.33733-2.96533c-0.0253-0.37466 0.0747-0.688 0.3-0.93733 0.22533-0.25067 0.52533-0.37466 0.90133-0.37466 0.35067 0 0.63733 0.12399 0.86267 0.37466 0.22533 0.24933 0.31333 0.56267 0.26266 0.93733l-0.33733 2.96533 0.0373 0.14933 0.188-0.036 2.43866-1.76399c0.29867-0.22667 0.62-0.30667 0.95733-0.24534 0.33734 0.064 0.59334 0.25734 0.76934 0.58267 0.224 0.4 0.268 0.75066 0.12933 1.05066-0.136 0.3-0.368 0.51333-0.69333 0.63733l-2.73866 1.23867-0.112 0.11333 0.112 0.112 2.73866 1.23866c0.35066 0.14934 0.58266 0.388 0.69333 0.712 0.11333 0.32667 0.0707 0.652-0.12933 0.976-0.176 0.32533-0.432 0.52-0.76934 0.58133-0.33733 0.064-0.65866-7e-3 -0.95733-0.20533l-2.43866-1.80133-0.188-0.0373-0.0373 0.14933 0.33733 2.96533c0.0507 0.37466-0.044 0.68799-0.28133 0.93733-0.23867 0.25066-0.544 0.37466-0.92 0.37466" fill="#fff"/>
      <path d="m565.79592 280.60263c-0.34933 0-0.632-0.124-0.844-0.37466-0.21467-0.24934-0.308-0.56267-0.28133-0.93733l0.33733-2.96533-0.0373-0.14933-0.18667 0.0373-2.44133 1.76266c-0.3 0.22533-0.61333 0.308-0.93733 0.244-0.32533-0.0613-0.588-0.256-0.78666-0.58133-0.22667-0.4-0.27067-0.75067-0.132-1.05066 0.136-0.3 0.368-0.512 0.69333-0.63734l2.73999-1.23866 0.112-0.112-0.112-0.11333-2.73999-1.23867c-0.34933-0.14933-0.576-0.38666-0.67466-0.71199-0.1-0.32534-0.0613-0.65067 0.11333-0.976 0.19866-0.32533 0.46133-0.51867 0.78666-0.58267 0.324-0.0613 0.63733 8e-3 0.93733 0.208l2.44133 1.80133 0.18667 0.036 0.0373-0.14933-0.33733-2.96533c-0.0267-0.37466 0.0747-0.688 0.3-0.93733 0.22533-0.25067 0.52533-0.37466 0.90133-0.37466 0.35066 0 0.636 0.12399 0.86133 0.37466 0.22667 0.24933 0.31467 0.56267 0.26267 0.93733l-0.336 2.96533 0.0373 0.14933 0.188-0.036 2.43866-1.76399c0.29867-0.22667 0.61867-0.30667 0.95733-0.24534 0.33733 0.064 0.59333 0.25734 0.76933 0.58267 0.224 0.4 0.268 0.75066 0.12934 1.05066-0.136 0.3-0.36934 0.51333-0.69334 0.63733l-2.73866 1.23867-0.11333 0.11333 0.11333 0.112 2.73866 1.23866c0.35067 0.14934 0.58134 0.388 0.69334 0.712 0.112 0.32667 0.0693 0.652-0.12934 0.976-0.176 0.32533-0.432 0.52-0.76933 0.58133-0.33866 0.064-0.65866-7e-3 -0.95733-0.20533l-2.43866-1.80133-0.188-0.0373-0.0373 0.14933 0.336 2.96533c0.052 0.37466-0.044 0.68799-0.28 0.93733-0.23867 0.25066-0.54534 0.37466-0.92 0.37466" fill="#fff"/>
      <path d="m581.96121 280.60263c-0.34933 0-0.63066-0.124-0.84266-0.37466-0.21467-0.24934-0.308-0.56267-0.28134-0.93733l0.33734-2.96533-0.0387-0.14933-0.18667 0.0373-2.43999 1.76266c-0.3 0.22533-0.61333 0.308-0.93866 0.244-0.324-0.0613-0.58667-0.256-0.78667-0.58133-0.22533-0.4-0.26933-0.75067-0.132-1.05066 0.136-0.3 0.36933-0.512 0.69333-0.63734l2.74-1.23866 0.11333-0.112-0.11333-0.11333-2.74-1.23867c-0.34933-0.14933-0.57466-0.38666-0.67333-0.71199-0.10133-0.32534-0.0627-0.65067 0.112-0.976 0.2-0.32533 0.46267-0.51867 0.78667-0.58267 0.32533-0.0613 0.63866 8e-3 0.93866 0.208l2.43999 1.80133 0.18667 0.036 0.0387-0.14933-0.33734-2.96533c-0.0267-0.37466 0.0733-0.688 0.29867-0.93733 0.22667-0.25067 0.52667-0.37466 0.90133-0.37466 0.35067 0 0.63733 0.12399 0.86267 0.37466 0.22533 0.24933 0.31333 0.56267 0.26266 0.93733l-0.33733 2.96533 0.0373 0.14933 0.18934-0.036 2.43866-1.76399c0.29866-0.22667 0.61866-0.30667 0.95733-0.24534 0.336 0.064 0.592 0.25734 0.768 0.58267 0.22533 0.4 0.26933 0.75066 0.12933 1.05066-0.136 0.3-0.368 0.51333-0.69333 0.63733l-2.73866 1.23867-0.112 0.11333 0.112 0.112 2.73866 1.23866c0.352 0.14934 0.58266 0.388 0.69333 0.712 0.11333 0.32667 0.0707 0.652-0.12933 0.976-0.176 0.32533-0.432 0.52-0.768 0.58133-0.33867 0.064-0.65867-7e-3 -0.95733-0.20533l-2.43866-1.80133-0.18934-0.0373-0.0373 0.14933 0.33733 2.96533c0.0507 0.37466-0.044 0.68799-0.28 0.93733-0.24 0.25066-0.54533 0.37466-0.92133 0.37466" fill="#fff"/>
      <path d="m598.12784 280.60263c-0.34933 0-0.63067-0.124-0.84267-0.37466-0.21466-0.24934-0.308-0.56267-0.28266-0.93733l0.33866-2.96533-0.0387-0.14933-0.18667 0.0373-2.43999 1.76266c-0.3 0.22533-0.61334 0.308-0.93867 0.244-0.324-0.0613-0.58666-0.256-0.78666-0.58133-0.22534-0.4-0.26934-0.75067-0.132-1.05066 0.136-0.3 0.368-0.512 0.69333-0.63734l2.73999-1.23866 0.11334-0.112-0.11334-0.11333-2.73999-1.23867c-0.34933-0.14933-0.57467-0.38666-0.67467-0.71199-0.1-0.32534-0.0613-0.65067 0.11334-0.976 0.2-0.32533 0.46266-0.51867 0.78666-0.58267 0.32533-0.0613 0.63867 8e-3 0.93867 0.208l2.43999 1.80133 0.18667 0.036 0.0387-0.14933-0.33866-2.96533c-0.0253-0.37466 0.0747-0.688 0.3-0.93733 0.22533-0.25067 0.52533-0.37466 0.90133-0.37466 0.35066 0 0.63733 0.12399 0.86266 0.37466 0.22534 0.24933 0.31333 0.56267 0.26267 0.93733l-0.33733 2.96533 0.0373 0.14933 0.188-0.036 2.43866-1.76399c0.29867-0.22667 0.62-0.30667 0.95733-0.24534 0.33733 0.064 0.59333 0.25734 0.76933 0.58267 0.224 0.4 0.268 0.75066 0.12933 1.05066-0.136 0.3-0.36799 0.51333-0.69333 0.63733l-2.73866 1.23867-0.11333 0.11333 0.11333 0.112 2.73866 1.23866c0.35067 0.14934 0.58267 0.388 0.69333 0.712 0.11334 0.32667 0.0707 0.652-0.12933 0.976-0.176 0.32533-0.432 0.52-0.76933 0.58133-0.33733 0.064-0.65866-7e-3 -0.95733-0.20533l-2.43866-1.80133-0.188-0.0373-0.0373 0.14933 0.33733 2.96533c0.0507 0.37466-0.044 0.68799-0.28133 0.93733-0.23867 0.25066-0.544 0.37466-0.92 0.37466" fill="#5da4de"/>
    </g>
  </g>
</svg>
