<svg version="1.1" viewBox="0 0 666.66669 666.66669" xmlns="http://www.w3.org/2000/svg">
  <g transform="matrix(1.33333,0,0,-1.33333,0,666.667)">
    <g>
      <path d="m76.4289 109.865c-11.2121 8.122-34.3676 28.743-41.793 64.632-3.0816 14.894-1.0629 29.392 3.3106 43.02 10.9387-41.986 37.3148-72.595 54.25-88.745h-15.7676v-18.907m383.1201 18.907h-0.824c4.028 12.982 9.206 32.7 11.281 53.664 1.225-10.927 0.202-22.26-3.371-35.25-1.988-7.231-4.451-13.318-7.086-18.414m-15.36 155.507c-18.079 28.776-43.545 51.629-70.94 51.629-0.593 0-1.191-0.011-1.785-0.032-1.898-0.069-3.773-0.102-5.631-0.102-42.721 0-74.646 17.481-74.646 17.481l-36.413 33.931c-1.974 1.839-4.084 3.662-6.312 5.452 20.407 10.556 44.588 33.139 79.809 33.139 4.807 0 9.818-0.42 15.055-1.35 51.309-9.103 100.965-36.413 103.448-96 0.843-20.246-0.797-33.804-2.585-44.148" fill="#d1eaf9"/>
      <g>
        <path d="m107.464 115.738s-54.621 38.896-70.3452 105.103c-15.7247 66.207 8.2753 146.483 53.7929 187.035 45.5173 40.551 127.4483 13.241 163.8623-20.69l36.413-33.931s34.759-19.034 80.277-17.379c45.517 1.655 86.068-60.414 96.827-109.242 10.758-48.827-14.897-113.378-14.897-113.378l-345.93 2.482" fill="#d1ebfa"/>
        <path d="m458.725 128.772h-71.367c6.931 18.422 14.645 44.348 12.367 63.932-3.946 33.93-22.891 66.206-61.571 91.034-14.658 9.409-37.704 16.322-62.782 17.811 1.531 9.345 1.599 19.198 1.126 24.396-0.827 9.103-5.172 16.552-5.172 16.552s-8.169 4.633-18.611 4.633c-3.16 0-6.529-0.425-9.941-1.53-14.69-4.758-19.862-27.517-18.207-39.517 0.472-3.42 1.326-6.359 2.457-8.941-25.284-6.577-48.559-20.532-63.321-44.852-21.674-35.709-20.298-73.233-14.481-99.765v-23.753h-57.0255c-16.9352 16.15-43.3113 46.759-54.25 88.745 9.7211 30.29 31.0769 56.289 33.9305 72.842 4.1382 24-4.9653 53.793 33.104 76.965 38.068 23.173 105.931 14.897 131.586 20.69 3.852 0.87 7.797 2.504 11.895 4.624 2.228-1.79 4.338-3.613 6.312-5.452l36.413-33.931s31.925-17.481 74.646-17.481c1.858 0 3.733 0.033 5.631 0.102 0.594 0.021 1.192 0.032 1.785 0.032 27.395 0 52.861-22.853 70.94-51.629-3.473-20.098-7.499-28.06 5.067-49.369 11.566-19.611 18.854-35.555 20.75-52.474-2.075-20.964-7.253-40.682-11.281-53.664" fill="#b0d6f2"/>
      </g>
      <path d="m387.358 128.772h-69.486c1.156 4.16 3.936 19.448 3.936 19.448s-23.586 20.207-24.827 23.518c-0.828 2.207-0.414 43.103-3.932 61.931-3.517 18.828-8.068 22.621-17.585 27.31-9.836 4.847-24.415 9.38-24.415 9.38s2.897-6.69 5.586-22.414c2.691-15.725 5.173-42.207 5.794-60.414 0.563-16.508 0.955-52.234 1.024-58.759h-29.257c0.497 4.671 2.45 23.662 1.543 25.655-0.399 0.88-10.055 1.388-21.758 1.682v74.663s-11.901 0.831-24.852 0.831c-12.087 0-25.089-0.724-30.183-3.52-10.551-5.793-9.724-25.863-9.724-25.863v-49.695c-5.817 26.532-7.193 64.056 14.481 99.765 14.762 24.32 38.037 38.275 63.321 44.852 0.113-0.257 0.228-0.511 0.346-0.761-0.83-6.598-2.463-18.941-3.217-20.298l-1.034-1.862-5.173-3.518s9.931-14.069 22.138-16.344c1.658-0.31 3.071-0.443 4.276-0.443 7.669 0 6.896 5.408 6.896 5.408l-1.862 3.931 1.624 14.068c1.273-0.197 2.567-0.304 3.857-0.304 5.362 0 10.664 1.832 14.174 6.512 3.196 4.261 5.173 10.996 6.323 18.018 25.078-1.489 48.124-8.402 62.782-17.811 38.68-24.828 57.625-57.104 61.571-91.034 2.278-19.584-5.436-45.51-12.367-63.932" fill="#95c3eb"/>
    </g>
    <g id="ch-b">
      <g>
        <path d="m434.464 233.6h-44.622c-2.76 0-5 2.239-5 5v22.276c0 2.761 2.24 5 5 5h44.622c2.761 0 5-2.239 5-5v-22.276c0-2.761-2.239-5-5-5" fill="#599fdc"/>
        <path d="m412.153 220.979 7.071 16.759h-14.142z" fill="#599fdc"/>
        <path d="m411.984 255.28h12.773v-1.869l6.262 3.611-6.262 3.61v-1.869h-12.773v-3.483" fill="#293d8a"/>
        <path d="m431.019 247.935h-12.773v1.869l-6.262-3.61 6.262-3.61v1.869h12.773v3.482" fill="#fff"/>
      </g>
      <g fill="#293d8a">
        <path d="m404.144 244.65-0.608-0.222s-1.895 2.164-2.879 4.521c-0.984 2.356-1.018 5.234-1.018 5.234l0.445 0.186-2.702 6.464c-0.481-0.376-0.94-0.86-1.311-1.487-1.528-2.583-1.377-6.547 0.161-10.42 1.537-3.872 3.181-7.326 6.181-9.498 1.77-1.282 3.287-1.506 4.465-1.32l-2.734 6.542"/>
        <path d="m406.084 245.411-0.84-0.305 2.764-6.618c0.313 0.102 0.593 0.228 0.836 0.361 0.714 0.391 1.028 1.25 0.727 2.006l-1.444 3.639c-0.321 0.807-1.226 1.215-2.043 0.917"/>
        <path d="m399.494 261.966c-0.34-0.122-0.71-0.288-1.082-0.507l2.758-6.602 0.928 0.388c0.806 0.336 1.196 1.254 0.878 2.067l-1.45 3.722c-0.314 0.808-1.216 1.227-2.032 0.932"/>
      </g>
    </g>
    <g id="person">
      <g>
        <path d="m149.222 127.738v74.482s-0.827 20.07 9.724 25.863c10.552 5.793 55.035 2.689 55.035 2.689v-103.034h-64.759" fill="#3a76c4"/>
        <path d="m227.877 300.497s-2.689-22.552-3.724-24.414l-1.034-1.862-5.173-3.518s9.931-14.069 22.138-16.344c12.207-2.276 11.172 4.965 11.172 4.965l-1.862 3.931 2.484 21.518s-22.139 10.137-24.001 15.724" fill="#f57c83"/>
        <path d="m211.532 268.841 8.069 3.518s5.173-8.483 17.173-13.449c12-4.965 12.207-2.069 12.827 0 0.621 2.069-0.207 4.345-0.207 4.345l0.888 7.244 4.799-1.599 16.658-134.748-42.827-2.069-17.38 136.758" fill="#fff"/>
        <path d="m251.049 270.359s2.897-6.69 5.586-22.414c2.691-15.725 5.173-42.207 5.794-60.414 0.62-18.207 1.035-59.793 1.035-59.793h54c0.62 0 4.344 20.482 4.344 20.482s-23.586 20.207-24.827 23.518c-0.828 2.207-0.414 43.103-3.932 61.931-3.517 18.828-8.068 22.621-17.585 27.31-9.836 4.847-24.415 9.38-24.415 9.38" fill="#293d8a"/>
        <path d="m279.187 151.445c-0.276 0-0.5 0.224-0.5 0.5 0 1.479-0.263 22.496-0.516 42.821-0.255 20.328-0.518 41.348-0.518 42.834 0 0.277 0.224 0.5 0.5 0.5s0.5-0.223 0.5-0.5c0-1.479 0.263-22.496 0.517-42.821 0.254-20.328 0.517-41.348 0.517-42.834 0-0.276-0.223-0.5-0.5-0.5" fill="#788cbd"/>
        <path d="m171.601 156.497-0.413-28.759h62.896s2.69 24.414 1.655 26.689c-1.034 2.277-64.138 2.07-64.138 2.07" fill="#293d8a"/>
        <path d="m250.401 271.977c-2.731 1.002-6.237 2.66-8.8 4.726-4.49 3.62-7.366 7.932-9.23 12.162 2.075-2.359 4.371-4.4 6.678-6.368 2.922-2.492 7.306-4.449 11.969-5.174l-0.617-5.346" fill="#945168"/>
        <path d="m271.326 342.497s4.345-7.449 5.172-16.552c0.828-9.104 0-32.483-7.449-42.414-7.448-9.931-22.965-7.034-30-1.034-6.455 5.506-12.827 11.586-14.482 23.586s3.517 34.759 18.207 39.517c14.689 4.759 28.552-3.103 28.552-3.103" fill="#f57c83"/>
        <path d="m289.99 140.745s-0.73 0-1.84 0.03c-0.26 0.01-0.55 0-0.851 0.01-1.069 0.03-2.369 0.059-3.679 0.099-0.29 0.011-0.59 0.021-0.88 0.031-1.3 0.03-2.41-0.13-3.45-0.071h-0.03c-0.22 0.011-0.54-0.019-0.8-0.029-0.13-0.011-0.25-0.02-0.33-0.011-0.6 0.111-0.72 0.25-1.37 0.54-0.84 0.381-12.211 2.92-21.461 2.861-9.239-0.04-17.529-0.67-18.879 0.46-1.36 1.15-2.18 12.759 5.71 13.52l9.7-3.68s22.15 2.629 30.27-3.36c8.14-5.99 7.89-10.4 7.89-10.4" fill="#f57c83"/>
      </g>
      <g fill="#293d8a">
        <path d="m279.26 140.844c-0.22 0.011-0.54-0.019-0.8-0.029-0.2 0.319-0.621 0.9-0.85 1.14-2.5 2.55-8.54 4.2-10.73 4.73-0.2 0.05-0.331 0.25-0.28 0.449 0.04 0.201 0.25 0.321 0.46 0.281 3.19-0.77 9.96-2.741 11.88-5.97 0.06-0.09 0.22-0.4 0.32-0.601"/>
        <path d="m283.623 140.885c-0.29 7e-3 -0.59 0.015-0.88 0.032-2.73 4.978-7.196 6.407-12.715 8.182l-0.327 0.109c-0.189 0.064-0.304 0.277-0.238 0.475 0.064 0.189 0.267 0.304 0.475 0.239l0.317-0.108c5.836-1.873 10.532-3.378 13.368-8.929"/>
        <path d="m288.151 140.775c-0.26 7e-3 -0.55 4e-3 -0.851 0.011-1.655 3.481-7.134 9.306-14.383 10.664-0.209 0.035-0.345 0.228-0.31 0.437 0.045 0.2 0.238 0.334 0.438 0.299 7.467-1.402 13.491-7.501 15.106-11.411"/>
        <path d="m229.532 316.324s4.552 2.173 7.759 8.276 2.793 11.586 2.793 11.586 5.793 0.931 14.483-1.655c8.689-2.586 19.034-6.104 27.724-1.138s8.69 12.931 4.448 16.241c-4.75 3.708-14.172 1.449-14.172 1.449s3.62 3.517 1.655 5.586c-1.966 2.069-9.103-0.621-9.103-0.621s-8.69 6.931-25.138 6.104c-16.449-0.828-24.311-12.311-25.242-25.138-0.931-12.828 3.725-25.655 3.725-25.655l11.068 4.965"/>
      </g>
      <path d="m263.22 295.222c-0.19 0-0.389 5e-3 -0.6 0.014-1.218 0.047-2.749 0.248-3.794 0.902-0.309 0.194-0.192 0.699 0.187 0.699h2e-3c0.65-3e-3 1.285-0.199 1.934-0.248 0.603-0.044 1.213-0.07 1.817-0.098 0.351-0.016 0.767-0.048 1.191-0.048 0.635 0 1.284 0.072 1.746 0.378 2.02 1.337-1.907 2.987-2.738 3.599-1.738 1.281-1.389 3.493-1.207 5.39 0.235 2.439 0.212 5.107 1.144 7.405 0.067 0.164 0.239 0.251 0.398 0.251 0.18 0 0.345-0.111 0.324-0.349-0.263-2.928-0.94-5.818-1.124-8.76-0.078-1.224-0.168-2.544 0.927-3.328 0.79-0.566 1.75-0.836 2.533-1.416 0.679-0.504 1.356-1.313 1.235-2.215-0.106-0.802-0.76-1.275-1.435-1.61-0.906-0.45-1.628-0.566-2.54-0.566" fill="#945168"/>
      <g fill="#293d8a">
        <path d="m271.359 306.335c-0.309-1.744-1.577-2.977-2.834-2.755-1.256 0.222-2.024 1.817-1.716 3.56 0.309 1.744 1.577 2.978 2.834 2.756 1.256-0.222 2.025-1.817 1.716-3.561"/>
        <path d="m255.528 307.717c-0.28-1.882-1.605-3.243-2.961-3.042-1.356 0.202-2.228 1.891-1.948 3.772 0.28 1.882 1.606 3.244 2.962 3.042 1.355-0.202 2.227-1.891 1.947-3.772"/>
        <path d="m267.673 313.524c0.967-0.163 1.943 4e-3 2.918-0.065 0.235-0.016 0.466-0.051 0.701-0.074 0.166-0.015-0.311 0.05-0.079 0.012l0.149-0.025c0.122-0.022 0.244-0.047 0.364-0.076 0.208-0.051 0.409-0.129 0.617-0.175 0.189-0.041 0.399-0.085 0.589-0.076 0.107 0.014 0.212 0.028 0.319 0.043l-0.201-0.037 0.396 0.043c0.555 0.13 0.897 0.772 0.742 1.308-0.045 0.154-0.113 0.294-0.211 0.421l-0.127 0.161 0.117-0.134-0.128 0.17c-0.055 0.092-0.128 0.166-0.221 0.221l-0.234 0.178c-0.256 0.178-0.593 0.282-0.897 0.36-0.577 0.149-1.183 0.225-1.777 0.228-0.592 3e-3 -1.176-0.059-1.761-0.14-0.516-0.071-1.09-0.247-1.509-0.558-0.323-0.241-0.522-0.55-0.466-0.973 0.047-0.35 0.323-0.748 0.699-0.812"/>
        <path d="m256.638 316.292c-0.131 0.078-0.265 0.146-0.404 0.209-0.117 0.053-0.437 0.221-0.195 0.089l-0.266 0.142c-0.401 0.202-0.817 0.337-1.25 0.447-0.944 0.241-1.938 0.302-2.906 0.2-1.033-0.109-1.976-0.359-2.871-0.898-0.126-0.077-0.256-0.151-0.361-0.256-0.071-0.09-0.141-0.181-0.209-0.273l0.059 0.09c-0.276-0.193-0.437-0.509-0.434-0.843 2e-3 -0.321 0.169-0.589 0.448-0.744 0.337-0.188 0.657-0.098 1.005-9e-3h-0.524c0.287-0.044 0.489-0.056 0.779 8e-3 0.011 2e-3 0.279 0.069 0.102 0.032-0.166-0.036 0.282 0.034 0.331 0.041 0.057 8e-3 0.368 0.039 0.039 7e-3l0.182 0.021c0.155 0.019 0.312 0.039 0.468 0.051 0.683 0.055 1.364 0.086 2.048 0.108 0.635 0.021 1.282 0.026 1.916-1e-3 0.273-0.012 0.543-0.021 0.816-0.029 0.152-4e-3 0.088-0.028-0.017 5e-3l0.17-0.044c0.113-0.031 0.224-0.068 0.333-0.11 0.442-0.168 0.971 0.151 1.134 0.557 0.178 0.442 0.027 0.95-0.393 1.2"/>
        <path d="m261.55 287.531c0.95 1.909 2.677 3.308 4.674 4.208-1.733 0.176-9.918 0.934-11.983-0.239-2.314-1.313 0.428-6.588 5.212-6.853 0.503-0.028 0.96 0.013 1.395 0.081 0.039 0.963 0.261 1.916 0.702 2.803"/>
      </g>
      <g>
        <path d="m223.739 298.634s0.828-3.207 5.586-6.931c4.759-3.724 11.656-6.448 11.656-6.448l0.551 2.414s-7.138 3.104-10.448 6.517c-3.31 3.414-3.724 5.276-3.724 5.276l-3.621-0.828" fill="#d6dceb"/>
        <path d="m242.36 289.455c3.83 0.178 5.967-2.85 6.234-4.809 0.267-1.96-1.573-4.157-5.878-2.227-5.347 2.397-4.185 6.858-0.356 7.036" fill="#293d8a"/>
        <path d="m226.739 322.324s1.654 11.89 9.621 19.966c15.207 15.413 28.138 14.483 28.138 14.483s-0.104 2.172-4.966 3.827c-4.565 1.554-6.62 0.724-6.62 0.724s-12.518-1.034-23.069-12.724c-10.552-11.69-11.69-26.586-11.69-26.586l8.586 0.31" fill="#d6dceb"/>
        <path d="m225.601 323.773c-9.962 1.688-15.517-6.104-15.931-13.966s5.299-13.839 12.931-13.241c17.173 1.344 15.207 25.137 3 27.207" fill="#fff"/>
        <path d="m220.641 304.206c-2.63 0-4.853 1.322-6.123 3.649-1.361 2.493-1.247 5.562 0.291 7.819 0.117 0.169 0.349 0.214 0.521 0.098 0.171-0.117 0.216-0.35 0.099-0.521-1.381-2.026-1.48-4.788-0.253-7.036 1.165-2.134 3.221-3.343 5.656-3.256 2.276 0.061 4.205 1.102 5.432 2.932 1.4 2.089 1.722 4.973 0.82 7.347-0.895 2.356-3.349 3.962-5.58 3.67-0.202-0.026-0.394 0.117-0.421 0.323-0.028 0.205 0.116 0.393 0.322 0.421 2.61 0.348 5.351-1.436 6.38-4.147 0.986-2.595 0.633-5.747-0.898-8.031-1.366-2.038-3.509-3.197-6.035-3.265l-0.211-3e-3" fill="#7588bb"/>
        <path d="m213.394 271.738s-30.206-7.448-40.758-19.448-15.517-71.173-15.724-82.138c-0.207-10.966 7.448-15.518 12-18.621 4.552-3.104 24.62-8.69 40.758-9.518 16.138-0.827 31.449 0 31.449 0s-0.052 3.518 2.43 8.691c2.303 4.797 5.225 5.793 5.225 5.793l-13.862 4.965s-2.427 43.494-6.207 64.551c-4.345 24.208-15.311 45.725-15.311 45.725" fill="#293d8a"/>
      </g>
      <g fill="#788cbd">
        <path d="m263.464 168.411-0.203 0.043c-0.253 0.112-0.367 0.407-0.255 0.659 2.831 6.386 5.763 18.922 7.415 27.717l0.135 0.711c0.5 2.587 1.122 5.804-0.119 8.025-0.633 1.133-2.062 3.591-3.437 5.954-1.427 2.453-2.775 4.771-3.149 5.462-0.728 1.351 1.566 4.959 4.887 9.908 0.896 1.338 1.672 2.493 2.124 3.275 1.184 2.048 0.395 3.924-0.517 6.096l-0.31 0.748c-0.827 2.031-1.768 4.065-2.676 6.032-0.371 0.803-0.743 1.608-1.109 2.417-0.486 1.069-0.973 2.157-1.467 3.257-2.924 6.518-5.947 13.257-9.819 19.768-0.141 0.237-0.063 0.544 0.174 0.685 0.238 0.14 0.544 0.063 0.686-0.175 3.9-6.559 6.935-13.325 9.871-19.868 0.493-1.1 0.98-2.186 1.465-3.255 0.366-0.806 0.736-1.609 1.106-2.41 0.914-1.977 1.859-4.022 2.695-6.074l0.306-0.738c0.931-2.215 1.893-4.506 0.46-6.983-0.469-0.812-1.252-1.98-2.159-3.331-1.731-2.581-5.335-7.953-4.837-8.876 0.366-0.678 1.71-2.989 3.133-5.435 1.378-2.369 2.811-4.833 3.446-5.969 1.42-2.54 0.759-5.957 0.229-8.703l-0.136-0.705c-0.602-3.203-3.788-19.602-7.482-27.937-0.083-0.188-0.266-0.298-0.457-0.298"/>
        <path d="m233.981 166.652c-0.129 0-0.258 0.049-0.355 0.147-2.351 2.37-13.689 22.001-14.533 25.693-0.462 2.021 0.698 7.147 1.82 12.105 0.869 3.841 1.768 7.813 1.512 8.888-0.382 1.607-3.281 3.976-6.085 6.266-3.387 2.766-6.889 5.628-7.567 8.205-0.771 2.929-0.112 21.266 0.324 33.399 0.157 4.363 0.281 7.809 0.28 9.038 0 0.276 0.224 0.5 0.5 0.5s0.5-0.223 0.5-0.499c1e-3 -1.248-0.123-4.702-0.281-9.075-0.407-11.341-1.089-30.321-0.356-33.109 0.596-2.262 4.122-5.143 7.233-7.685 3.068-2.506 5.965-4.873 6.425-6.809 0.309-1.3-0.534-5.026-1.51-9.339-1.046-4.623-2.231-9.862-1.82-11.662 0.828-3.62 11.959-22.884 14.268-25.21 0.194-0.197 0.193-0.513-3e-3 -0.707-0.098-0.097-0.225-0.146-0.352-0.146"/>
        <path d="m193.326 175.238-0.07 5e-3c-0.274 0.039-0.464 0.292-0.426 0.565 0.367 2.601 6.107 54.401 6.37 58.368 0.019 0.277 0.257 0.493 0.533 0.466 0.275-0.018 0.483-0.257 0.465-0.532-0.264-3.974-6.01-55.838-6.378-58.442-0.035-0.249-0.249-0.43-0.494-0.43"/>
        <path d="m234.498 161.17-0.188 0.036c-1.272 0.515-6.891 2.411-14.005 4.809-14.358 4.843-34.023 11.474-37.762 13.417-0.245 0.127-0.34 0.429-0.213 0.674 0.127 0.246 0.427 0.344 0.674 0.213 3.671-1.907 24.102-8.797 37.621-13.355 7.13-2.406 12.761-4.304 14.061-4.831 0.256-0.104 0.379-0.395 0.275-0.651-0.079-0.194-0.266-0.312-0.463-0.312"/>
        <path d="m227.593 140.544c-12.636 0-37.134 2.278-55.744 8.86-0.261 0.093-0.397 0.378-0.305 0.639 0.091 0.259 0.38 0.396 0.638 0.304 23.51-8.316 56.398-9.736 62.517-8.362 0.269 0.058 0.536-0.11 0.597-0.379s-0.109-0.537-0.378-0.598c-1.325-0.296-3.886-0.464-7.325-0.464"/>
      </g>
    </g>
    <g id="plant">
      <g fill="#60a6df">
        <path d="m82.9598 264.761c3.923-3.45 8.8914-5.662 12.334-9.652 1.3542-1.57 2.571-3.241 3.8289-4.887 0.9153-1.198 3.3583-3.185 3.7543-4.691 0.175-0.663 0.138 0.235-0.038 0.9l-0.029 0.083c-0.344 3.049-0.59 6.11-0.697 9.177-0.107 3.059 0.084 6.13-0.108 9.184-0.27 4.309-1.615 8.481-5.137 11.18-1.7215 1.32-3.9336 2.123-5.5164 3.587-1.502 1.39-0.8993 2.982-0.0161 4.532 0.8262 1.451 1.8282 2.876 2.15 4.546 0.3661 1.898-0.3472 3.856-1.3101 5.472-2.0484 3.44-6.5926 7.275-10.8953 6.761-3.5891-0.429-3.9957-4.569-3.9446-7.453 0.05-2.804 0.3274-5.599 0.354-8.405 0.0281-2.882-0.4622-5.71-0.5032-8.579-0.0695-4.881 2.1856-8.6 5.7735-11.755"/>
        <path d="m119.409 219.979c1.092 2.605 2.345 5.04 3.886 7.409 2.114 3.25 4.459 6.417 5.878 10.057 1.45 3.716 1.237 7.69 1.38 11.604 0.104 2.875 0.959 5.743 0.728 8.626-0.11 1.383-0.907 3.62-2.696 3.391-1.392-0.178-2.219-1.904-2.754-3.005-0.934-1.922-1.581-3.972-2.275-5.988-0.27-0.789-0.529-1.592-0.871-2.353-0.199-0.443-0.832-1.523-1.429-1.376-1.017 0.251-0.094 4.402 0.057 5.137 0.759 3.692 1.902 7.123 2.061 10.922 0.23 5.508-0.198 12.065-5.585 15.077-1.409 0.787-3.193 1.256-4.531 0.078-1.32-1.161-1.693-3.175-1.889-4.832-0.601-5.087 0.596-9.904 2.226-14.69 1.346-3.952 2.95-8.03 3.067-12.256 0.113-4.068-2.004-7.673-2.997-11.516-1.583-6.124-1.256-9.371-1.263-11.354-0.011-2.485 0.08-4.943 0.261-7.42 0.168-2.277 0.365-4.555 0.643-6.821 0.057-0.459 0.109-0.938 0.17-1.417-0.875 2.107-1.181 4.52-1.906 6.637-1.287 3.764-2.783 7.45-4.019 11.232-1.021 3.125-1.985 6.271-3.334 9.275-1.264 2.819-2.791 5.798-5.1498 7.866-1.4258 1.25-3.1543 1.981-5.0613 1.966-1.2196-9e-3 -2.3157-0.431-3.4805-0.739-1.4336-0.379-2.5613-0.248-3.7406 0.658-3.861 2.968-5.0352 8.289-7.8934 12.047-2.132 2.803-7.1902 7.581-10.9098 4.524-1.973-1.621-2.5171-4.754-2.4136-7.156 0.13-3.013 1.4468-5.769 3.0152-8.289 1.668-2.679 3.8211-5.078 5.3539-7.833 0.9063-1.627 1.0481-3.186 0.9039-5.022-0.1351-1.729-0.2863-3.404 0.3031-5.072 1.77-5.009 7.2969-4.31 11.5954-4.441 3.0078-0.091 6.2347-0.539 9.0902-1.501 3.3004-1.111 5.4473-3.259 6.6273-6.523 0.853-2.363 1.31-5.045 2.918-7.052 0.756-0.944 1.757-1.641 2.858-2.128 1.676-0.74 6.787-1.064 6.825-0.597 0.126 1.563 0.867 3.212 1.331 4.695 0.87 2.781 1.893 5.494 3.02 8.18"/>
        <path d="m143.14 220.923c-0.445 2.864-0.36 6.02-1.716 8.65-0.097 0.188-0.353 0.236-0.528 0.139-0.972-0.539-1.012-2.109-1.092-3.071-0.131-1.596-0.033-3.196-0.23-4.788-0.344-2.796-0.99-5.678-1.998-8.313-1.139-2.982-3.212-4.672-6.222-5.603-1.934-0.597-3.831-1.118-5.445-2.401-1.446-1.15-2.45-2.735-3.195-4.404-2.009-4.507-2.966-9.545-3.898-14.36-0.627-3.242-1.139-6.499-1.926-9.709-0.787-3.207-1.632-6.398-2.083-9.675-0.076-0.165-0.157-0.329-0.227-0.496-0.206-0.49 0.56-0.755 0.824-0.347 3.108 4.783 6.893 9.076 12.057 11.71 2.332 1.189 5.43 1.436 7.375 3.305 1.48 1.422 1.683 3.592 1.462 5.526-0.291 2.541-1.508 4.632-2.777 6.797-0.696 1.19-1.519 2.464-1.238 3.91 0.265 1.364 1.399 2.366 2.524 3.065 2.147 1.333 4.657 1.933 6.415 3.854 1.633 1.784 2.538 4.004 2.719 6.408 0.241 3.204-0.311 6.639-0.801 9.803"/>
        <path d="m100.774 204.41c-2.7416 3.532-6.0513 6.578-9.7744 9.051-1.9867 1.319-6.6738 3.922-7.6195 0.03-0.5547-2.281 1.6777-4.525 3.1469-5.955 2.2082-2.149 4.7621-4.003 6.625-6.48-2.3067-0.735-4.7168-0.879-6.7211-2.473-2.3727-1.889-3.4371-5.535-1.0844-7.848 1.1465-1.127 2.6668-1.819 4.0945-2.511 1.8559-0.898 3.7461-1.713 5.6485-2.508 4.1078-1.715 8.2675-3.456 11.7705-6.267 3.57-2.864 6.927-7.707 7.21-12.38 0.028-0.446-0.142-0.04 0.124 0.164 0.146-0.131 0.636 0.104 0.633 0.364-0.073 6.935-1.319 13.537-4.153 19.889-2.626 5.889-5.94 11.822-9.9 16.924"/>
      </g>
      <g fill="#3e579e">
        <path d="m91.3039 268.964c1.5125-3.14 3.0941-6.207 4.7734-9.268 1.6161-2.947 3.2309-5.872 4.4397-9.016 1.489-3.871 3.05-7.684 4.624-11.521 1.636-3.988 3.098-8.052 4.271-12.2 2.29-8.099 3.991-16.435 4.832-24.811 0.428-4.26 0.622-8.545 0.505-12.824-0.092-3.345-0.469-6.653-0.783-9.981-0.327-3.461-0.563-6.964-0.273-10.438 0.242-2.904 0.704-6.356 2.958-8.428 0.44-0.406 1.065 0.1 0.809 0.624-2.678 5.492-2.528 11.48-2.016 17.435 0.283 3.288 0.675 6.558 0.786 9.858 0.141 4.199-0.024 8.406-0.419 12.588-0.777 8.221-2.416 16.344-4.542 24.316-1.091 4.087-2.44 8.095-3.994 12.031-1.559 3.943-3.358 7.778-4.868 11.741-2.73 7.167-6.8918 13.522-10.5773 20.201-0.1914 0.347-0.6942 0.042-0.5258-0.307"/>
        <path d="m114.367 210.359c0.433 5.219 0.895 10.245 2.655 15.224 0.82 2.322 1.815 4.58 2.607 6.911 0.654 1.927 1.633 4.569 1.129 6.617-0.056 0.229-0.389 0.217-0.452 0-0.337-1.17-0.3-2.453-0.542-3.652-0.237-1.167-0.552-2.315-0.915-3.449-0.772-2.412-1.781-4.723-2.655-7.097-1.688-4.586-2.555-9.666-2.186-14.554 0.017-0.231 0.34-0.231 0.359 0"/>
        <path d="m84.123 240.353c2.0719-5.005 8.2997-5.294 12.8356-6.415 3.2394-0.8 5.6304-2.961 7.3474-5.766 1.88-3.069 3.151-6.672 4.196-10.097l0.061 0.016c-1.269 5.999-3.087 13.222-9.2708 16.013-4.9555 2.237-11.4856 1.113-14.6551 6.466-0.1558 0.263-0.6394 0.086-0.5141-0.217"/>
        <path d="m111.092 211.151c0.247-0.333 0.473-0.681 0.727-1.007 0.126-0.162 0.254-0.314 0.413-0.444 0.163-0.133 0.353-0.298 0.576-0.294 0.093 2e-3 0.158 0.105 0.108 0.188-0.102 0.167-0.287 0.268-0.431 0.395-0.149 0.131-0.3 0.26-0.444 0.395-0.29 0.274-0.555 0.572-0.838 0.852l-0.111-0.085"/>
        <path d="m98.1371 195.274c3.5739-2.933 6.8709-6.404 9.4899-10.207 1.252-1.818 2.408-3.742 3.456-5.684 1.145-2.122 1.896-4.364 2.793-6.589 0.068-0.169 0.377-0.173 0.353 0.047-0.496 4.707-3.477 8.742-5.865 12.658-1.24 2.034-2.782 3.674-4.44 5.37-1.712 1.752-3.457 3.409-5.4642 4.822-0.2442 0.172-0.5559-0.225-0.3227-0.417"/>
        <path d="m126.593 200.815c-1.721-0.975-1.777-3.694-1.811-5.43-0.065-3.335 0.761-6.467-0.703-9.645-1.322-2.871-3.434-5.268-5.094-7.934-1.555-2.495-3.088-5.685-3.054-8.689 2e-3 -0.173 0.268-0.272 0.349-0.095 0.626 1.364 0.851 2.913 1.3 4.342 0.504 1.607 1.208 3.066 2.12 4.479 1.598 2.476 3.559 4.73 4.856 7.393 1.366 2.807 1.166 5.587 1.075 8.628-0.057 1.939-0.251 5.055 1.312 6.497 0.246 0.226-0.068 0.613-0.35 0.454"/>
      </g>
      <path d="m115.085 168.807c-6.933 0.096-20.1389 0.172-20.1389 0.172l3.268-24.262c0.7347-5.458 5.3939-9.531 10.9009-9.531h11.938c5.508 0 10.167 4.073 10.902 9.531l3.268 24.262s-13.206-0.076-20.138-0.172" fill="#fff"/>
    </g>
    <g id="laptop">
      <path d="m450.188 213.393-39.553-78.344-115.309-0.829 35.586 80.277 119.276-1.104" fill="#f5f6f9"/>
      <path d="m218.796 134.709 0.022 6.27h74.646l34.344 75.311h119.379l3.001-2.897h-116.621l-35.69-78.621s-79.081 0.143-79.081-0.063" fill="#d1d8e8"/>
      <path d="m390.31 170.161c-1.303-3.908-8.373-6.926-15.792-6.74-7.419 0.185-12.377 3.503-11.075 7.412 1.303 3.907 8.373 6.925 15.792 6.739s12.378-3.504 11.075-7.411" fill="#d1d8e8"/>
      <path d="m297.878 134.272-0.207 0.045c-0.251 0.114-0.363 0.41-0.249 0.662l35.823 78.914h116.943c0.277 0 0.5-0.223 0.5-0.5 0-0.276-0.223-0.5-0.5-0.5h-116.299l-35.556-78.328c-0.083-0.183-0.266-0.293-0.455-0.293" fill="#fff"/>
    </g>
    <g id="table" transform="translate(-.068)">
      <path d="m76.4289 98.359h137.172v30.4129h-137.172z" fill="#4f68a9"/>
      <path d="m212.817 98.359h246.8v30.4129h-246.8z" fill="#6f83b8"/>
      <path d="m76.4289 123.186h136.388v5.58594h-136.388z" fill="#3d5192"/>
      <path d="m459.617 123.186h-246.8v5.586h246.8v-5.586" fill="#5165a1"/>
      <path d="m219.601 127.324h-149.7928v7.448h149.7928v-7.448" fill="#647ab4"/>
      <path d="m465.617 127.324h-246.799v7.448h246.799v-7.448" fill="#8e9ec7"/>
    </g>
    <g id="ch-c">
      <path d="m178.969 294.343h-48.424c-2.997 0-5.426 2.429-5.426 5.426v24.175c0 2.996 2.429 5.426 5.426 5.426h48.424c2.996 0 5.426-2.43 5.426-5.426v-24.175c0-2.997-2.43-5.426-5.426-5.426" fill="#fff"/>
      <path d="m198.195 311.856-18.187 7.674v-15.348z" fill="#fff"/>
      <g fill="#293d8a">
        <path d="m146.619 311.856c0-1.85-1.5-3.349-3.35-3.349s-3.35 1.499-3.35 3.349c0 1.851 1.5 3.35 3.35 3.35s3.35-1.499 3.35-3.35"/>
        <path d="m158.107 311.856c0-1.85-1.5-3.349-3.35-3.349s-3.35 1.499-3.35 3.349c0 1.851 1.5 3.35 3.35 3.35s3.35-1.499 3.35-3.35"/>
        <path d="m169.595 311.856c0-1.85-1.5-3.349-3.35-3.349s-3.35 1.499-3.35 3.349c0 1.851 1.5 3.35 3.35 3.35s3.35-1.499 3.35-3.35"/>
      </g>
    </g>
    <g>
      <path d="m425.498 403.738h-111.793c-7.18 0-13-5.82-13-13v-53.035c0-7.179 5.82-13 13-13h10.02c0.282-4.807-0.407-11.959-4.422-21.103 12.916 5.958 20.354 14.904 24.239 21.103h81.956c7.179 0 13 5.821 13 13v53.035c0 7.18-5.821 13-13 13" fill="#599fdc"/>
      <path d="m377.808 378.462h-55.448c-1.523 0-2.759 1.235-2.759 2.758 0 1.524 1.236 2.759 2.759 2.759h55.448c1.524 0 2.759-1.235 2.759-2.759 0-1.523-1.235-2.758-2.759-2.758" fill="#fff"/>
      <g fill="#c3e4f7">
        <path d="m417.567 362.393h-96.276c-0.933 0-1.69 0.756-1.69 1.689s0.757 1.69 1.69 1.69h96.276c0.933 0 1.69-0.757 1.69-1.69s-0.757-1.689-1.69-1.689"/>
        <path d="m417.567 353.013h-96.276c-0.933 0-1.69 0.757-1.69 1.69s0.757 1.69 1.69 1.69h96.276c0.933 0 1.69-0.757 1.69-1.69s-0.757-1.69-1.69-1.69"/>
        <path d="m396.565 343.013h-75.274c-0.933 0-1.69 0.757-1.69 1.69s0.757 1.69 1.69 1.69h75.274c0.934 0 1.691-0.757 1.691-1.69s-0.757-1.69-1.691-1.69"/>
      </g>
      <path d="m416.811 378.462h-26.451c-1.523 0-2.759 1.235-2.759 2.758 0 1.524 1.236 2.759 2.759 2.759h26.451c1.524 0 2.758-1.235 2.758-2.759 0-1.523-1.234-2.758-2.758-2.758" fill="#fff"/>
    </g>
    <g>
      <path d="m350.144 256.496h-30.034c-1.105 0-2 0.896-2 2v20.518c0 1.104 0.895 2 2 2h30.034c1.105 0 2-0.896 2-2v-20.518c0-1.104-0.895-2-2-2" fill="#fff"/>
      <g fill="#647ab4">
        <path d="m335.335 265.091c-0.169 0-0.339 0.058-0.478 0.172l-16.346 13.501c-0.319 0.264-0.364 0.736-0.1 1.056 0.265 0.319 0.738 0.363 1.055 0.1l15.856-13.095 15.451 13.445c0.312 0.271 0.786 0.238 1.058-0.074 0.272-0.313 0.239-0.786-0.074-1.058l-15.93-13.862c-0.141-0.123-0.317-0.185-0.492-0.185"/>
        <path d="m318.989 257.056c-0.186 0-0.372 0.069-0.517 0.207-0.3 0.286-0.312 0.76-0.026 1.06l11.432 12.018c0.283 0.301 0.76 0.313 1.059 0.027 0.301-0.286 0.313-0.76 0.027-1.061l-11.432-12.018c-0.147-0.155-0.345-0.233-0.543-0.233"/>
        <path d="m351.265 257.496c-0.192 0-0.384 0.073-0.531 0.22l-11.386 11.417c-0.292 0.293-0.292 0.769 2e-3 1.061 0.294 0.293 0.769 0.292 1.061-1e-3l11.386-11.417c0.292-0.294 0.292-0.769-2e-3 -1.061-0.147-0.146-0.338-0.219-0.53-0.219"/>
      </g>
      <path d="m363.739 281.773c0-5.542-4.492-10.035-10.034-10.035s-10.034 4.493-10.034 10.035c0 5.541 4.492 10.034 10.034 10.034s10.034-4.493 10.034-10.034" fill="#f1494a"/>
      <text transform="matrix(1,0,0,-1,346.652,277.538)" fill="#ffffff" font-family="Quicksand" font-size="12px" font-weight="bold"><tspan x="0 7.0556674" y="0">85</tspan></text>
    </g>
    <g id="ch-a">
      <path d="m454.488 285.466h-58.621c-2.209 0-4 1.791-4 4v9.172c0 2.209 1.791 4 4 4h58.621c2.209 0 4-1.791 4-4v-9.172c0-2.209-1.791-4-4-4" fill="#293d8a"/>
      <g fill="#fff">
        <path d="m400.099 289.549c-0.263 0-0.474 0.093-0.634 0.281-0.16 0.187-0.23 0.422-0.21 0.703l0.252 2.224-0.027 0.112-0.141-0.028-1.83-1.322c-0.225-0.169-0.46-0.231-0.704-0.183-0.243 0.046-0.44 0.192-0.59 0.436-0.169 0.3-0.202 0.563-0.099 0.788 0.102 0.225 0.277 0.384 0.52 0.478l2.055 0.929 0.085 0.084-0.085 0.085-2.055 0.929c-0.262 0.112-0.431 0.29-0.505 0.534-0.076 0.244-0.047 0.488 0.084 0.732 0.15 0.244 0.347 0.389 0.59 0.437 0.244 0.046 0.479-6e-3 0.704-0.156l1.83-1.351 0.141-0.027 0.027 0.112-0.252 2.224c-0.02 0.281 0.055 0.516 0.225 0.703 0.169 0.188 0.394 0.281 0.675 0.281 0.263 0 0.478-0.093 0.647-0.281 0.169-0.187 0.235-0.422 0.197-0.703l-0.253-2.224 0.028-0.112 0.142 0.027 1.829 1.323c0.224 0.17 0.464 0.23 0.718 0.184 0.252-0.048 0.444-0.193 0.576-0.437 0.169-0.3 0.202-0.563 0.097-0.788-0.102-0.225-0.276-0.385-0.52-0.478l-2.054-0.929-0.084-0.085 0.084-0.084 2.054-0.929c0.264-0.112 0.437-0.291 0.52-0.534 0.085-0.245 0.053-0.489-0.097-0.732-0.132-0.244-0.324-0.39-0.576-0.436-0.254-0.048-0.494 5e-3 -0.718 0.154l-1.829 1.351-0.142 0.028-0.028-0.112 0.253-2.224c0.038-0.281-0.033-0.516-0.21-0.703-0.18-0.188-0.409-0.281-0.69-0.281"/>
        <path d="m412.223 289.549c-0.262 0-0.473 0.093-0.633 0.281-0.16 0.187-0.23 0.422-0.211 0.703l0.253 2.224-0.028 0.112-0.14-0.028-1.83-1.322c-0.225-0.169-0.46-0.231-0.704-0.183-0.243 0.046-0.44 0.192-0.59 0.436-0.169 0.3-0.202 0.563-0.099 0.788 0.102 0.225 0.276 0.384 0.52 0.478l2.055 0.929 0.085 0.084-0.085 0.085-2.055 0.929c-0.262 0.112-0.431 0.29-0.506 0.534s-0.046 0.488 0.085 0.732c0.15 0.244 0.347 0.389 0.59 0.437 0.244 0.046 0.479-6e-3 0.704-0.156l1.83-1.351 0.14-0.027 0.028 0.112-0.253 2.224c-0.019 0.281 0.056 0.516 0.225 0.703 0.169 0.188 0.394 0.281 0.676 0.281 0.263 0 0.478-0.093 0.647-0.281 0.169-0.187 0.235-0.422 0.197-0.703l-0.253-2.224 0.028-0.112 0.141 0.027 1.829 1.323c0.224 0.17 0.465 0.23 0.718 0.184 0.253-0.048 0.445-0.193 0.577-0.437 0.168-0.3 0.201-0.563 0.097-0.788-0.102-0.225-0.276-0.385-0.52-0.478l-2.054-0.929-0.084-0.085 0.084-0.084 2.054-0.929c0.263-0.112 0.437-0.291 0.52-0.534 0.085-0.245 0.053-0.489-0.097-0.732-0.132-0.244-0.324-0.39-0.577-0.436-0.253-0.048-0.494 5e-3 -0.718 0.154l-1.829 1.351-0.141 0.028-0.028-0.112 0.253-2.224c0.038-0.281-0.033-0.516-0.211-0.703-0.179-0.188-0.408-0.281-0.69-0.281"/>
        <path d="m424.348 289.549c-0.262 0-0.474 0.093-0.633 0.281-0.161 0.187-0.231 0.422-0.211 0.703l0.253 2.224-0.028 0.112-0.14-0.028-1.831-1.322c-0.225-0.169-0.46-0.231-0.703-0.183-0.244 0.046-0.441 0.192-0.59 0.436-0.17 0.3-0.203 0.563-0.099 0.788 0.102 0.225 0.276 0.384 0.52 0.478l2.055 0.929 0.084 0.084-0.084 0.085-2.055 0.929c-0.262 0.112-0.432 0.29-0.506 0.534-0.075 0.244-0.046 0.488 0.085 0.732 0.149 0.244 0.346 0.389 0.59 0.437 0.243 0.046 0.478-6e-3 0.703-0.156l1.831-1.351 0.14-0.027 0.028 0.112-0.253 2.224c-0.02 0.281 0.056 0.516 0.225 0.703 0.169 0.188 0.394 0.281 0.676 0.281 0.263 0 0.477-0.093 0.646-0.281 0.17-0.187 0.236-0.422 0.197-0.703l-0.252-2.224 0.028-0.112 0.141 0.027 1.829 1.323c0.224 0.17 0.464 0.23 0.718 0.184 0.253-0.048 0.445-0.193 0.577-0.437 0.168-0.3 0.201-0.563 0.097-0.788-0.102-0.225-0.277-0.385-0.52-0.478l-2.054-0.929-0.085-0.085 0.085-0.084 2.054-0.929c0.263-0.112 0.436-0.291 0.52-0.534 0.084-0.245 0.052-0.489-0.097-0.732-0.132-0.244-0.324-0.39-0.577-0.436-0.254-0.048-0.494 5e-3 -0.718 0.154l-1.829 1.351-0.141 0.028-0.028-0.112 0.252-2.224c0.039-0.281-0.033-0.516-0.21-0.703-0.179-0.188-0.409-0.281-0.69-0.281"/>
        <path d="m436.472 289.549c-0.262 0-0.473 0.093-0.632 0.281-0.161 0.187-0.231 0.422-0.211 0.703l0.253 2.224-0.029 0.112-0.14-0.028-1.83-1.322c-0.225-0.169-0.46-0.231-0.704-0.183-0.243 0.046-0.44 0.192-0.59 0.436-0.169 0.3-0.202 0.563-0.099 0.788 0.102 0.225 0.277 0.384 0.52 0.478l2.055 0.929 0.085 0.084-0.085 0.085-2.055 0.929c-0.262 0.112-0.431 0.29-0.505 0.534-0.076 0.244-0.047 0.488 0.084 0.732 0.15 0.244 0.347 0.389 0.59 0.437 0.244 0.046 0.479-6e-3 0.704-0.156l1.83-1.351 0.14-0.027 0.029 0.112-0.253 2.224c-0.02 0.281 0.055 0.516 0.224 0.703 0.17 0.188 0.395 0.281 0.676 0.281 0.263 0 0.478-0.093 0.647-0.281 0.169-0.187 0.235-0.422 0.197-0.703l-0.253-2.224 0.028-0.112 0.142 0.027 1.829 1.323c0.224 0.17 0.464 0.23 0.718 0.184 0.252-0.048 0.444-0.193 0.576-0.437 0.169-0.3 0.202-0.563 0.097-0.788-0.102-0.225-0.276-0.385-0.52-0.478l-2.054-0.929-0.084-0.085 0.084-0.084 2.054-0.929c0.264-0.112 0.437-0.291 0.52-0.534 0.085-0.245 0.053-0.489-0.097-0.732-0.132-0.244-0.324-0.39-0.576-0.436-0.254-0.048-0.494 5e-3 -0.718 0.154l-1.829 1.351-0.142 0.028-0.028-0.112 0.253-2.224c0.038-0.281-0.033-0.516-0.21-0.703-0.18-0.188-0.409-0.281-0.691-0.281"/>
      </g>
      <path d="m448.597 289.549c-0.262 0-0.473 0.093-0.632 0.281-0.161 0.187-0.231 0.422-0.212 0.703l0.254 2.224-0.029 0.112-0.14-0.028-1.83-1.322c-0.225-0.169-0.46-0.231-0.704-0.183-0.243 0.046-0.44 0.192-0.59 0.436-0.169 0.3-0.202 0.563-0.099 0.788 0.102 0.225 0.276 0.384 0.52 0.478l2.055 0.929 0.085 0.084-0.085 0.085-2.055 0.929c-0.262 0.112-0.431 0.29-0.506 0.534s-0.046 0.488 0.085 0.732c0.15 0.244 0.347 0.389 0.59 0.437 0.244 0.046 0.479-6e-3 0.704-0.156l1.83-1.351 0.14-0.027 0.029 0.112-0.254 2.224c-0.019 0.281 0.056 0.516 0.225 0.703 0.169 0.188 0.394 0.281 0.676 0.281 0.263 0 0.478-0.093 0.647-0.281 0.169-0.187 0.235-0.422 0.197-0.703l-0.253-2.224 0.028-0.112 0.141 0.027 1.829 1.323c0.224 0.17 0.465 0.23 0.718 0.184 0.253-0.048 0.445-0.193 0.577-0.437 0.168-0.3 0.201-0.563 0.097-0.788-0.102-0.225-0.276-0.385-0.52-0.478l-2.054-0.929-0.085-0.085 0.085-0.084 2.054-0.929c0.263-0.112 0.437-0.291 0.52-0.534 0.085-0.245 0.053-0.489-0.097-0.732-0.132-0.244-0.324-0.39-0.577-0.436-0.253-0.048-0.494 5e-3 -0.718 0.154l-1.829 1.351-0.141 0.028-0.028-0.112 0.253-2.224c0.038-0.281-0.033-0.516-0.211-0.703-0.179-0.188-0.408-0.281-0.69-0.281" fill="#5da4de"/>
    </g>
  </g>
</svg>
