<svg version="1.1" viewBox="0 0 120 120" xmlns="http://www.w3.org/2000/svg" xmlns:xlink="http://www.w3.org/1999/xlink"><defs><linearGradient id="linearGradient10239" x1="35.424355" x2="89.293739" y1="109.36211" y2="63.691044" gradientUnits="userSpaceOnUse"><stop stop-color="#0a63d9" offset="0"/><stop stop-color="#0adb72" offset="1"/></linearGradient></defs><path d="m50.165165 52.697731a6.3087311 6.3087311 0 01-6.308731 6.308731 6.3087311 6.3087311 0 01-6.308731-6.308731 6.3087311 6.3087311 0 016.308731-6.308731 6.3087311 6.3087311 0 016.308731 6.308731zm18.292697-37.349785c-4.236394 3.819497-9.265082 8.834123-12.650191 15.767066-3.385109 6.932945-4.665957 16.629639-2.876431 23.838442 1.789524 7.208803 2.090349 6.127504 1.789524 7.208803-14.650593-3.633427-23.776516 2.996242-27.093759 15.026714-3.317244 12.030473 1.934688 27.456159 9.116195 33.390349 7.780473 6.4291 16.21406 2.8694 18.808524-2.25844 2.594464-5.12786-.617835-9.405673-1.623634-10.450483-1.005799-1.044828-.353378 2.770253-1.041765 6.425263-.688387 3.655-8.160231 8.75669-13.373411 1.64182-5.21318-7.114893-9.513994-23.705116-2.018441-33.580187 5.410471-6.492841 17.527167-6.079743 22.020187.94276 4.493019 7.022503 5.305686 15.841574 5.072179 21.940684-1.508765-6.567025-7.216306-15.130744-14.525244-15.130744-7.308939 0-1.745457 21.019847-1.304748 20.915127.440707-.10472-.833216-16.099315 2.505038-16.210907 3.338255-.111596 6.686009 8.591382 8.067207 13.711114 0 0 4.067612 14.929943 4.53284 16.802043s8.938624-2.95055 12.582605-5.29627c9.587749-6.17191 18.209843-13.248905 16.792745-27.474629-1.417097-14.225719-8.85407-31.266734-9.396142-47.348062-.344526-10.220853 5.342819-28.1737716 3.931912-30.4269799-1.410908-2.2532093-10.842402 2.9275235-19.31519 10.5665169zm11.798894 43.479225c4.734481 12.981482 11.763186 24.179535 5.318003 34.629883-6.445184 10.450346-15.612145 14.026726-15.612145 14.026726 2.543604-12.670873 1.662739-26.765475-4.982443-38.2429-6.645181-11.477424-8.50644-28.379214-1.624446-38.124889 6.881995-9.745675 12.409076-14.615348 20.118684-20.545878-7.700725 14.889197-7.730053 35.001713-3.217653 48.257058z" fill="url(#linearGradient10239)" opacity=".999211" stroke-linejoin="round" stroke-width=".4" style="paint-order:stroke fill markers"/></svg>
