<svg version="1.1" viewBox="0 0 120 120" xmlns="http://www.w3.org/2000/svg" xmlns:xlink="http://www.w3.org/1999/xlink"><defs><linearGradient id="linearGradient10239" x1="35.424355" x2="89.293739" y1="109.36211" y2="63.691044" gradientTransform="matrix(.7598568 0 0 .7598568 14.408592 14.408593)" gradientUnits="userSpaceOnUse"><stop stop-color="#0a63d9" offset="0"/><stop stop-color="#0adb72" offset="1"/></linearGradient></defs><g stroke-linejoin="round"><circle cx="60" cy="60" r="59.860184" fill="#fff" opacity=".999211" stroke-width=".407429" style="paint-order:stroke fill markers"/><path d="m52.526934 54.451322a4.7937322 4.7937322 0 01-4.793732 4.793732 4.7937322 4.7937322 0 01-4.793732-4.793732 4.7937322 4.7937322 0 014.793732-4.793733 4.7937322 4.7937322 0 014.793732 4.793733zm13.89983-28.380488c-3.219053 2.90227-7.040135 6.712668-9.612334 11.980712-2.572198 5.268045-3.545459 12.636144-2.185675 18.113802 1.359782 5.477658 1.588366 4.656026 1.359782 5.477658-11.132353-2.760884-18.066748 2.276715-20.587377 11.418151-2.520631 9.141436 1.470086 20.862749 6.927003 25.371883 5.912045 4.8852 12.320363 2.18033 14.291784-1.716091 1.971421-3.896439-.469466-7.146964-1.233729-7.94087-.764263-.79392-.268517 2.104995-.791592 4.88228-.523076 2.777276-6.200607 6.653831-10.161877 1.247548-3.961271-5.4063-7.229273-18.012494-1.533727-25.516134 4.111184-4.933629 13.318137-4.619734 16.732189.716363 3.414051 5.336097 4.031562 12.037328 3.85413 16.671778-1.146445-4.989999-5.483359-11.497199-11.037105-11.497199-5.553747 0-1.326298 15.972074-.991422 15.892502.334874-.07957-.633125-12.233174 1.90347-12.317968 2.536596-.0848 5.080409 6.52822 6.129922 10.418483 0 0 3.090803 11.344618 3.444309 12.767148.353507 1.42253 6.792075-2.241997 9.560978-4.024408 7.285317-4.689768 13.836873-10.067271 12.760082-20.876784-1.076791-10.809509-6.727826-23.75824-7.139723-35.977747-.26179-7.766384 4.059778-21.408031 2.98769-23.120147s-8.238672 2.224499-14.676778 8.02904zm8.96547 33.037984c3.597527 9.864068 8.938337 18.372984 4.040921 26.313752-4.897417 7.940767-11.862995 10.658303-11.862995 10.658303 1.932775-9.628049 1.263444-20.337928-3.785943-29.059127-5.049386-8.721199-6.463676-21.564139-1.234346-28.969456 5.22933-7.405318 9.42912-11.105572 15.287318-15.611925-5.851448 11.313657-5.873733 26.596289-2.444955 36.668453z" fill="url(#linearGradient10239)" opacity=".999211" stroke-width=".303943" style="paint-order:stroke fill markers"/></g></svg>
