<svg version="1.1" viewBox="0 0 5333.3335 4000" xmlns="http://www.w3.org/2000/svg">
  <defs>
    <linearGradient id="linearGradient22" x2="1" gradientTransform="matrix(176.02238,1152.4566,1389.649,-212.25105,710.0429,2469.5628)" gradientUnits="userSpaceOnUse">
      <stop stop-color="#8de792" offset="0"/>
      <stop stop-color="#0a7650" offset="1"/>
    </linearGradient>
    <linearGradient id="linearGradient30" x2="1" gradientTransform="matrix(194.23371,1135.0259,1223.7715,-246.12555,668.42837,2483.035)" gradientUnits="userSpaceOnUse">
      <stop stop-color="#def6e4" offset="0"/>
      <stop stop-color="#49d0a0" offset="1"/>
    </linearGradient>
    <linearGradient id="linearGradient38" x2="1" gradientTransform="matrix(-176.02238,1152.4566,-1389.649,-212.25105,4549.8693,2458.9016)" gradientUnits="userSpaceOnUse">
      <stop stop-color="#8de792" offset="0"/>
      <stop stop-color="#0a7650" offset="1"/>
    </linearGradient>
    <linearGradient id="linearGradient46" x2="1" gradientTransform="matrix(-194.23371,1135.0259,-1223.7715,-246.12555,4591.4715,2472.3738)" gradientUnits="userSpaceOnUse">
      <stop stop-color="#def6e4" offset="0"/>
      <stop stop-color="#49d0a0" offset="1"/>
    </linearGradient>
    <linearGradient id="linearGradient54" x2="1" gradientTransform="matrix(-34.599689,504.68863,-1150.5459,-32.579783,4471.6844,3245.3085)" gradientUnits="userSpaceOnUse">
      <stop stop-color="#8de792" offset="0"/>
      <stop stop-color="#0a7650" offset="1"/>
    </linearGradient>
    <linearGradient id="linearGradient62" x2="1" gradientTransform="matrix(-34.599689,504.68863,-1150.5459,-32.579783,750.57953,3255.9696)" gradientUnits="userSpaceOnUse">
      <stop stop-color="#8de792" offset="0"/>
      <stop stop-color="#0a7650" offset="1"/>
    </linearGradient>
  </defs>
  <g>
    <g id="background" fill-rule="evenodd">
      <path d="m4927.1986 3605.8698c256.8032-428.0157 167.7789-927.1336-269.367-1189.4027-263.4854-158.0944-309.9685-287.4121-288.5361-660.2302 32.8414-570.8055-104.1439-681.7548-829.5488-723.4802-434.8209-25.0044-279.1747-683.87963-840.5882-683.87963-742.9418 0-568.1573 546.38625-1067.8297 683.87963-338.1599 93.0583-923.4753 205.07-813.14341 723.4802 77.73845 365.2583 63.11768 645.1875-205.48873 794.4287-331.28217 184.0687-549.710415 627.1885-292.9118 1055.2042h4607.41374" fill="#e2eeff"/>
      <path d="m5151.0218 3626.6862c0-11.4859-9.3151-20.801-20.801-20.801h-4927.10519c-11.48448 0-20.80723 9.3151-20.80723 20.801v3.6183c0 11.486 9.32276 20.8164 20.80723 20.8164h4927.10519c11.4859 0 20.801-9.3304 20.801-20.8164v-3.6183" fill="#a4bfe6"/>
    </g>
    <g class="leafs" fill-rule="evenodd">
      <path d="m4608.254 3605.8708c302.8088-66.9145 344.6112-386.6291 62.588-354.0803 314.6798-201.3593 315.6036-465.9225 94.8751-432.0188 0 0 289.8909-364.8578 92.8581-464.3212-187.7332-94.7673-276.5574 226.102-302.8089 331.0774 0 0-45.6361-113.2434-153.4291-88.8241-146.1618 33.1031-125.9612 321.5928-146.1618 418.4849 0 0-62.9884-65.6212-157.8634-42.3874-206.856 50.6709-53.2884 632.0695-53.2884 632.0695h563.2304" fill="url(#linearGradient38)"/>
      <path d="m4718.88 2618.4741-63.7274-186.0396c-3.3411 5.1118-6.5898 10.3467-9.7615 15.7048l64.6665 188.8109-216.633 453.8976-88.7625-493.6367c-0.7544 0.1539-1.5397 0.3233-2.3249 0.5081-3.9724 0.893-7.837 1.9862-11.5476 3.2487l91.38 508.1867c0.1847 1.0316 0.5851 2.0016 1.1701 2.833l-186.332 390.4474-195.2468-529.4343c-1.1394 0.2617-2.2942 0.5235-3.4489 0.816-3.5875 0.8776-7.0518 1.9092-10.3929 3.0948l199.4656 540.8434c0.2925 0.816 0.739 1.5396 1.2625 2.1709l-41.0171 85.9603h15.8741l41.2327-86.4068 554.0846-171.3356c-0.816-4.7576-1.9092-9.4228-3.2949-13.9803l-542.3831 167.7328 186.8864-391.6023 416.3602-219.2812c-0.4927-1.7706-1.0161-3.5258-1.5704-5.2503l-4.1726-7.9139-400.286 210.8129 211.3673-442.9042 173.0446-40.6014c2.2788-5.4042 4.4959-10.8393 6.6053-16.2744l-171.7359 40.3088 130.3031-273.0314c-0.4619-0.231-0.9238-0.4619-1.3703-0.6929-3.9108-1.9708-7.7754-3.7568-11.6092-5.3889l-128.086 268.3971" fill="url(#linearGradient46)"/>
      <path d="m4679.7875 3605.8708s168.7643-82.0034 142.3434-218.6038c0 0-156.1543-41.9409-243.9777 97.5849 0 0 118.7094-233.2307 0-400.1936 0 0-198.4801 84.9287-133.9521 400.1936 0 0-30.2393-218.8963-190.828-233.2307 0 0-60.8943 118.0934 62.742 272.2462 0 0-98.6627-153.8602-223.6693-75.7061 0 0 28.2377 114.8756 100.033 157.7095h487.3087" fill="url(#linearGradient54)"/>
    </g>
    <g class="leafs" fill-rule="evenodd">
      <path d="m651.65669 3616.5319c-302.81502-66.9145-344.61271-386.6291-62.58183-354.0802-314.69211-201.3594-315.61592-465.9226-94.88278-432.0188 0 0-289.89095-364.8578-92.86273-464.3212 187.74551-94.7673 276.57119 226.102 302.81504 331.0774 0 0 45.63919-113.2434 153.42601-88.8241 146.1587 33.1031 125.97048 321.5928 146.1587 418.4849 0 0 62.996-65.6212 157.8711-42.3874 206.856 50.6708 53.2883 632.0694 53.2883 632.0694h-563.23181" fill="url(#linearGradient22)"/>
      <path d="m541.02293 2629.1353 63.72119-186.0396c3.34265 5.1118 6.59906 10.3467 9.77081 15.7048l-64.67426 188.8109 216.63142 453.8975 88.76256-493.6366c0.76522 0.154 1.54891 0.3233 2.33569 0.5081 3.97545 0.893 7.82775 1.9862 11.54452 3.2487l-91.37691 508.1866c-0.18476 1.0316-0.59278 2.0016-1.17786 2.833l186.34132 390.4475 195.24979-529.4344c1.1394 0.2618 2.2942 0.5235 3.4489 0.8161 3.5721 0.8776 7.0518 1.9092 10.3775 3.0947l-199.45473 540.8434c-0.30026 0.816-0.73597 1.5397-1.27178 2.171l41.02311 85.9603h-15.8771l-41.23259-86.4069-554.08464-171.3355c0.81603-4.7577 1.91382-9.4229 3.29338-13.9803l542.39385 167.7327-186.8956-391.6022-416.35564-219.2812c0.48345-1.7707 1.00695-3.5259 1.57201-5.2503l4.17406-7.914 400.28602 210.813-211.37959-442.9042-173.03848-40.6014c-2.28642-5.4042-4.4897-10.8393-6.59753-16.2744l171.72667 40.3088-130.30004-273.0314c0.46653-0.231 0.91611-0.4619 1.3703-0.6929 3.90465-1.9708 7.76771-3.7568 11.60151-5.3889l128.09214 268.3971" fill="url(#linearGradient30)"/>
      <path d="m958.69038 3616.5319s168.77502-82.0034 142.33872-218.6038c0 0-156.14197-41.9409-243.97917 97.5849 0 0 118.71857-233.2307 0-400.1936 0 0-198.47091 84.9288-133.95216 400.1936 0 0-30.2347-218.8963-190.81562-233.2307 0 0-60.90358 118.0935 62.73426 272.2462 0 0-98.6627-153.8602-223.66162-75.706 0 0 28.2285 114.8755 100.02378 157.7094h487.31179" fill="url(#linearGradient62)"/>
    </g>
    <g id="pc-screen" fill-rule="evenodd">
      <path d="m4283.0736 1504.7311c0-11.178-9.0687-20.2468-20.2468-20.2468h-3234.9492c-11.1766 0-20.2499 9.0688-20.2499 20.2468v1984.5705c0 11.1781 9.0733 20.2468 20.2499 20.2468h3234.9492c11.1781 0 20.2468-9.0687 20.2468-20.2468v-1984.5705" fill="#161868"/>
      <path d="m4249.2468 1540.0668c0-9.854-8.0063-17.8603-17.8603-17.8603h-3172.0487c-9.857 0-17.8603 8.0063-17.8603 17.8603v1750.3543c0 9.854 8.0033 17.8603 17.8603 17.8603h3172.0487c9.854 0 17.8603-8.0063 17.8603-17.8603v-1750.3543" fill="#99d5ff"/>
      <path d="m4429.066 3426.8214h-3567.40768c0 98.8936 80.16344 179.0494 179.04938 179.0494h3209.3089c98.8937 0 179.0494-80.1558 179.0494-179.0494" fill="#324c8f"/>
    </g>
    <g class="screen-item">
      <path d="m3644.4934 2876.802v75.1364l111.7038 45.9595-111.7038 45.9594v75.1365l188.0104-81.757v-78.6777zm-202.8376 0-188.0104 81.7571v78.6777l188.0104 81.757v-75.1365l-111.7038-45.9594 111.7038-45.9749zm5.5737 319.9919h73.7353l121.6502-416.4221h-73.7353l-121.6502 416.4221" fill="#004385"/>
    </g>
    <g class="screen-item" fill-rule="evenodd">
      <path d="m3010.5896 2013.1489c0-19.6771-15.9664-35.6436-35.6436-35.6436h-1623.4385c-19.6772 0-35.6436 15.9665-35.6436 35.6436v1116.8376c0 19.6771 15.9664 35.6435 35.6436 35.6435h1623.4385c19.6772 0 35.6436-15.9664 35.6436-35.6435v-1116.8376" fill="#e6f2ff"/>
      <path d="m1315.8639 2165.1153h1694.7411v-149.5183c0-21.0167-17.0596-38.0763-38.0763-38.0763h-1618.5886c-21.0166 0-38.0762 17.0596-38.0762 38.0763v149.5183" fill="#4364b1"/>
      <path d="m1436.4362 2042.2796c16.0435 0 29.0384 12.9949 29.0384 29.0384 0 16.0434-12.9949 29.0383-29.0384 29.0383s-29.0384-12.9949-29.0384-29.0383c0-16.0435 12.9949-29.0384 29.0384-29.0384" fill="#f0f7ff"/>
      <path d="m1611.8211 2042.2796c16.0435 0 29.0384 12.9949 29.0384 29.0384 0 16.0434-12.9949 29.0383-29.0384 29.0383-16.0434 0-29.0383-12.9949-29.0383-29.0383 0-16.0435 12.9949-29.0384 29.0383-29.0384" fill="#f0f7ff"/>
      <path d="m1787.2215 2042.2796c16.0435 0 29.0384 12.9949 29.0384 29.0384 0 16.0434-12.9949 29.0383-29.0384 29.0383s-29.0384-12.9949-29.0384-29.0383c0-16.0435 12.9949-29.0384 29.0384-29.0384" fill="#f0f7ff"/>
      <path d="m2054.7255 2267.7504c0-9.0226-7.3289-16.3514-16.3514-16.3514h-597.7346c-9.0225 0-16.3514 7.3288-16.3514 16.3514v239.8975c0 9.0225 7.3289 16.3514 16.3514 16.3514h597.7346c9.0225 0 16.3514-7.3289 16.3514-16.3514v-239.8975" fill="#adc4ee"/>
      <path d="m2359.9209 2616.0876c0-3.2026-2.6021-5.82-5.82-5.82h-923.9928c-3.2025 0-5.8046 2.6174-5.8046 5.82v104.6366c0 3.2025 2.6021 5.82 5.8046 5.82h923.9928c3.2179 0 5.82-2.6175 5.82-5.82v-104.6366" fill="#adc4ee"/>
      <path d="m2359.9209 2797.9237c0-7.5291-6.1126-13.6262-13.6262-13.6262h-908.365c-7.529 0-13.6262 6.0971-13.6262 13.6262v245.348c0 7.529 6.0972 13.6261 13.6262 13.6261h908.365c7.5136 0 13.6262-6.0971 13.6262-13.6261v-245.348" fill="#adc4ee"/>
      <path d="m2902.1654 2632.6083c0-12.3328-10.008-22.3253-22.3254-22.3253h-430.6331c-12.3174 0-22.3254 9.9925-22.3254 22.3253v401.9642c0 12.3174 10.008 22.3253 22.3254 22.3253h430.6331c12.3174 0 22.3254-10.0079 22.3254-22.3253v-401.9642" fill="#adc4ee"/>
    </g>
    <g class="screen-item" fill-rule="evenodd">
      <path d="m3926.3451 1750.2331c0-16.9211-13.7339-30.655-30.655-30.655h-1396.0741c-16.9211 0-30.655 13.7339-30.655 30.655v960.4216c0 16.9211 13.7339 30.655 30.655 30.655h1396.0741c16.9211 0 30.655-13.7339 30.655-30.655v-960.4216" fill="#7bc1f2"/>
      <path d="m2468.961 2165.1153v545.5394c0 16.9211 13.7339 30.655 30.655 30.655h510.9736v-557.6413c0-19.6617-541.6286-18.5531-541.6286-18.5531" fill="#d5e8fe"/>
      <path d="m2468.961 2610.283v100.3717c0 16.9211 13.7339 30.655 30.655 30.655h402.5494v-108.7014c0-12.3174-10.008-22.3253-22.3408-22.3253h-410.8636" fill="#89a9e4"/>
      <path d="m2468.961 1977.5053v187.5946h541.6286v-149.5183c0-21.0167-17.0596-38.0763-38.0763-38.0763h-503.5523" fill="#385595"/>
      <path d="m3974.845 1695.4975c0-16.9211-13.7339-30.655-30.655-30.655h-1396.074c-16.9211 0-30.6551 13.7339-30.6551 30.655v960.4216c0 16.9211 13.734 30.655 30.6551 30.655h1396.074c16.9211 0 30.655-13.7339 30.655-30.655v-960.4216" fill="#fafcff"/>
      <path d="m2517.4609 1826.1701h1457.3841v-128.5786c0-18.0759-14.6731-32.749-32.7336-32.749h-1391.9015c-18.0758 0-32.749 14.6731-32.749 32.749v128.5786" fill="#214088"/>
      <path d="m2621.143 1720.5327c13.7955 0 24.9736 11.1781 24.9736 24.9736s-11.1781 24.9736-24.9736 24.9736c-13.7956 0-24.9736-11.1781-24.9736-24.9736s11.178-24.9736 24.9736-24.9736" fill="#f0f7ff"/>
      <path d="m2771.97 1720.5327c13.7956 0 24.9736 11.1781 24.9736 24.9736s-11.178 24.9736-24.9736 24.9736c-13.7955 0-24.9736-11.1781-24.9736-24.9736s11.1781-24.9736 24.9736-24.9736" fill="#f0f7ff"/>
      <path d="m2922.7971 1720.5327c13.7955 0 24.9736 11.1781 24.9736 24.9736s-11.1781 24.9736-24.9736 24.9736c-13.7956 0-24.9736-11.1781-24.9736-24.9736s11.178-24.9736 24.9736-24.9736" fill="#f0f7ff"/>
      <path d="m3131.4545 1941.5999c0-14.1342-11.4706-25.5894-25.5895-25.5894h-459.1171c-14.1343 0-25.6049 11.4552-25.6049 25.5894v76.7839c0 14.1342 11.4706 25.6049 25.6049 25.6049h459.1171c14.1189 0 25.5895-11.4707 25.5895-25.6049v-76.7839" fill="#fbd068"/>
      <path d="m3535.4973 2107.4389c0-5.5121-4.4804-9.9926-9.9925-9.9926h-894.3693c-5.5121 0-9.9925 4.4805-9.9925 9.9926v29.9621c0 5.5121 4.4804 9.9926 9.9925 9.9926h894.3693c5.5121 0 9.9925-4.4805 9.9925-9.9926v-29.9621" fill="#4acfb6"/>
      <path d="m3889.0541 2107.4389c0-5.5121-4.4805-9.9926-9.9926-9.9926h-278.8514c-5.5121 0-9.9771 4.4805-9.9771 9.9926v29.9621c0 5.5121 4.465 9.9926 9.9771 9.9926h278.8514c5.5121 0 9.9926-4.4805 9.9926-9.9926v-29.9621" fill="#fe7474"/>
      <path d="m2919.9795 2194.9697c0-5.5121-4.4805-9.9925-9.9926-9.9925h-278.836c-5.5275 0-9.9925 4.4804-9.9925 9.9925v29.9622c0 5.512 4.465 9.9925 9.9925 9.9925h278.836c5.5121 0 9.9926-4.4805 9.9926-9.9925v-29.9622" fill="#1f99fa"/>
      <path d="m3889.0541 2194.9697c0-5.5121-4.4805-9.9925-9.9926-9.9925h-897.8336c-5.512 0-9.9925 4.4804-9.9925 9.9925v29.9622c0 5.512 4.4805 9.9925 9.9925 9.9925h897.8336c5.5121 0 9.9926-4.4805 9.9926-9.9925v-29.9622" fill="#fbd068"/>
      <path d="m3353.5072 2457.5313c0-5.512-4.4805-9.9925-9.9926-9.9925h-712.3791c-5.5121 0-9.9925 4.4805-9.9925 9.9925v29.9622c0 5.512 4.4804 9.9925 9.9925 9.9925h712.3791c5.5121 0 9.9926-4.4805 9.9926-9.9925v-29.9622" fill="#fbd068"/>
      <path d="m3895.7517 2457.5313c0-5.512-4.4805-9.9925-9.9926-9.9925h-484.8144c-5.512 0-9.9771 4.4805-9.9771 9.9925v29.9622c0 5.512 4.4651 9.9925 9.9771 9.9925h484.8144c5.5121 0 9.9926-4.4805 9.9926-9.9925v-29.9622" fill="#4acfb6"/>
      <path d="m3304.9611 2282.4851c0-5.5121-4.4805-9.9925-9.9926-9.9925h-663.833c-5.5121 0-9.9925 4.4804-9.9925 9.9925v29.9622c0 5.512 4.4804 9.9925 9.9925 9.9925h663.833c5.5121 0 9.9926-4.4805 9.9926-9.9925v-29.9622" fill="#c07cf1"/>
      <path d="m3641.7661 2370.0005c0-5.5121-4.4805-9.9925-9.9926-9.9925h-1000.638c-5.5121 0-9.9925 4.4804-9.9925 9.9925v29.9622c0 5.512 4.4804 9.9925 9.9925 9.9925h1000.638c5.5121 0 9.9926-4.4805 9.9926-9.9925v-29.9622" fill="#fe7474"/>
      <path d="m3562.8729 2545.0467c0-5.512-4.4805-9.9925-9.9926-9.9925h-921.7448c-5.5121 0-9.9925 4.4805-9.9925 9.9925v29.9622c0 5.512 4.4804 9.9925 9.9925 9.9925h921.7448c5.5121 0 9.9926-4.4805 9.9926-9.9925v-29.9622" fill="#1f99fa"/>
    </g>
  </g>
</svg>
